<svg width="44" height="49" viewBox="0 0 44 49" fill="none" xmlns="http://www.w3.org/2000/svg">
<g clip-path="url(#clip0_1402_9363)">
<path d="M18.638 17.8893C18.8952 17.7157 19.0243 17.423 19.275 17.2226C20.9763 15.8214 23.4763 16.6778 24.2757 18.6131C25.3035 17.2694 27.0836 16.8273 28.5165 17.7517C29.1816 18.1812 29.49 18.6875 29.9112 19.3321C31.5769 17.1423 34.4272 17.7401 35.4802 20.1417C36.4221 22.279 37.4416 25.4118 38.1252 27.6815C41.3288 38.2589 30.1762 45.2343 20.946 40.6625C17.3764 38.8972 14.1914 35.5868 13.607 31.5355C13.3296 29.6192 13.8612 27.5347 15.6532 26.4966L9.06048 12.3522C7.90883 9.8296 10.0664 6.85591 12.8992 7.84351C13.317 7.9887 14.3563 8.70301 14.5298 9.07536L18.638 17.8893ZM18.6063 32.8194L16.3022 27.8759C14.8842 28.9006 14.8956 31.0363 15.4159 32.5411C18.1571 40.4297 29.7283 43.7553 35.3533 36.6548C39.3893 31.5591 35.4866 25.7506 33.9728 20.5342C33.4188 19.6175 32.5524 19.2222 31.5634 19.8203C30.3726 20.5424 31.4085 22.0395 30.5833 22.4838C29.3403 23.1585 28.665 20.1813 28.1104 19.4319C27.1929 18.2017 25.1823 18.9003 25.2911 20.4419C25.3156 20.8181 25.4511 21.0054 25.5073 21.3072C25.6697 22.1738 24.621 22.6566 24.1503 21.9576C23.4256 20.882 23.0471 18.5417 21.6778 18.1423C20.3084 17.7429 19.3779 19.0234 19.7532 20.2559C19.9566 20.9126 20.9345 22.389 20.8315 22.932C20.6909 23.6536 19.6101 23.7697 19.3499 23.056L13.3029 10.0826C12.2485 8.40323 9.97726 9.30681 10.3469 11.2397L19.8056 31.5328C19.91 32.0805 20.3286 32.5772 19.7596 33.0273C19.4189 33.2934 18.8466 33.1666 18.6086 32.8243L18.6063 32.8194Z" fill="#0679B8"/>
</g>
<defs>
<clipPath id="clip0_1402_9363">
<rect width="29" height="40" fill="white" transform="translate(0 12.252) rotate(-24.9903)"/>
</clipPath>
</defs>
</svg>
