<svg width="46" height="42" viewBox="0 0 46 42" fill="none" xmlns="http://www.w3.org/2000/svg">
<path d="M27.7348 15.0382C27.5362 17.7937 25.4922 19.9163 23.2632 19.9163C21.0342 19.9163 18.9867 17.7943 18.7916 15.0382C18.5884 12.1717 20.5782 10.1602 23.2632 10.1602C25.9482 10.1602 27.938 12.2239 27.7348 15.0382Z" stroke="url(#paint0_linear_2148_1204)" stroke-width="1.8" stroke-linecap="round" stroke-linejoin="round"/>
<path d="M23.5 24C19.2005 24 15.0659 26.6012 14.0301 31.6669C13.8929 32.3371 14.2379 33 14.8033 33H32.1973C32.7627 33 33.1058 32.3371 32.9705 31.6669C31.9348 26.52 27.8002 24 23.5 24Z" stroke="url(#paint1_linear_2148_1204)" stroke-width="1.8" stroke-miterlimit="10"/>
<path d="M14.0503 16.2536C13.8917 18.4542 12.24 20.1872 10.4595 20.1872C8.67896 20.1872 7.02448 18.4549 6.86865 16.2536C6.70673 13.9643 8.31446 12.3281 10.4595 12.3281C12.6045 12.3281 14.2122 14.0063 14.0503 16.2536Z" stroke="url(#paint2_linear_2148_1204)" stroke-width="1.8" stroke-linecap="round" stroke-linejoin="round"/>
<path d="M14 24.896C12.859 24.2489 11.6023 24 10.2703 24C6.98315 24 3.81609 26.0229 3.02274 29.9631C2.91844 30.4843 3.18268 31 3.61507 31H10.7128" stroke="url(#paint3_linear_2148_1204)" stroke-width="1.8" stroke-miterlimit="10" stroke-linecap="round"/>
<path d="M32.5806 16.6286C32.7391 18.8292 34.3909 20.5622 36.1714 20.5622C37.9519 20.5622 39.6064 18.8299 39.7622 16.6286C39.9241 14.3393 38.3164 12.7031 36.1714 12.7031C34.0264 12.7031 32.4187 14.3813 32.5806 16.6286Z" stroke="url(#paint4_linear_2148_1204)" stroke-width="1.8" stroke-linecap="round" stroke-linejoin="round"/>
<path d="M32 24.896C33.2448 24.2489 34.6157 24 36.0687 24C39.6547 24 43.1097 26.0229 43.9752 29.9631C44.089 30.4843 43.8007 31 43.329 31H35.586" stroke="url(#paint5_linear_2148_1204)" stroke-width="1.8" stroke-miterlimit="10" stroke-linecap="round"/>
<defs>
<linearGradient id="paint0_linear_2148_1204" x1="20.5486" y1="10.7067" x2="24.7063" y2="18.4836" gradientUnits="userSpaceOnUse">
<stop offset="0.00899963" stop-color="#89C3FE"/>
<stop offset="0.454" stop-color="#0B9FF0"/>
<stop offset="0.964" stop-color="#0679B8"/>
</linearGradient>
<linearGradient id="paint1_linear_2148_1204" x1="17.7512" y1="24.5042" x2="19.7889" y2="33.2543" gradientUnits="userSpaceOnUse">
<stop offset="0.00899963" stop-color="#89C3FE"/>
<stop offset="0.454" stop-color="#0B9FF0"/>
<stop offset="0.964" stop-color="#0679B8"/>
</linearGradient>
<linearGradient id="paint2_linear_2148_1204" x1="8.27973" y1="12.7684" x2="11.6349" y2="19.0242" gradientUnits="userSpaceOnUse">
<stop offset="0.00899963" stop-color="#89C3FE"/>
<stop offset="0.454" stop-color="#0B9FF0"/>
<stop offset="0.964" stop-color="#0679B8"/>
</linearGradient>
<linearGradient id="paint3_linear_2148_1204" x1="5.17175" y1="24.3922" x2="7.21629" y2="30.9272" gradientUnits="userSpaceOnUse">
<stop offset="0.00899963" stop-color="#89C3FE"/>
<stop offset="0.454" stop-color="#0B9FF0"/>
<stop offset="0.964" stop-color="#0679B8"/>
</linearGradient>
<linearGradient id="paint4_linear_2148_1204" x1="38.3511" y1="13.1434" x2="34.9959" y2="19.3992" gradientUnits="userSpaceOnUse">
<stop offset="0.00899963" stop-color="#89C3FE"/>
<stop offset="0.454" stop-color="#0B9FF0"/>
<stop offset="0.964" stop-color="#0679B8"/>
</linearGradient>
<linearGradient id="paint5_linear_2148_1204" x1="41.6308" y1="24.3922" x2="39.7296" y2="31.0216" gradientUnits="userSpaceOnUse">
<stop offset="0.00899963" stop-color="#89C3FE"/>
<stop offset="0.454" stop-color="#0B9FF0"/>
<stop offset="0.964" stop-color="#0679B8"/>
</linearGradient>
</defs>
</svg>
