<svg width="13" height="17" viewBox="0 0 13 17" fill="none" xmlns="http://www.w3.org/2000/svg">
<g style="mix-blend-mode:multiply">
<path d="M12.5069 1.6768C12.0205 1.57824 11.5322 1.49218 11.0422 1.41838C10.9055 1.39787 10.7687 1.3783 10.6318 1.35968C10.1555 1.2946 9.67803 1.24108 9.19987 1.19911C8.95348 1.17765 8.7071 1.15903 8.46047 1.1437C8.09054 1.1206 7.72013 1.10456 7.34973 1.09513C7.10357 1.089 6.85742 1.08594 6.61104 1.08594C6.61033 1.08594 6.60938 1.08594 6.60868 1.08594C4.63263 1.08594 2.65657 1.28281 0.710938 1.6768V6.86249C0.710938 10.8323 3.00104 14.4538 6.60868 16.1882C10.2163 14.4538 12.5064 10.8323 12.5064 6.86249V1.6768H12.5069Z" fill="#E4E5E6"/>
</g>
<path d="M12.2879 1.38377C8.39639 0.596036 4.38393 0.596036 0.492188 1.38377V6.56946C0.492188 10.5392 2.77688 14.1624 6.38451 15.8968C9.99214 14.1624 12.2877 10.5392 12.2877 6.56946V1.38377H12.2879Z" fill="#3D4F53"/>
<path d="M6.38431 15.2601C4.82087 14.4537 3.51065 13.2525 2.57319 11.7701C1.58599 10.2093 1.06445 8.41101 1.06445 6.56959V1.84979C2.8177 1.52418 4.60701 1.35938 6.38996 1.35938C8.17291 1.35938 9.96223 1.52418 11.7155 1.84979V6.56935C11.7155 8.41077 11.1937 10.209 10.2067 11.7699C9.26928 13.2522 7.94775 14.454 6.38431 15.2601Z" fill="#77823C"/>
<path d="M6.38477 1.35938V15.2611C7.94821 14.4547 9.26926 13.2525 10.2067 11.7701C11.1939 10.2093 11.7155 8.41101 11.7155 6.56959V1.84979C9.96221 1.52418 8.17289 1.35938 6.38994 1.35938H6.38477Z" fill="#3D4F53"/>
<g style="mix-blend-mode:multiply">
<path d="M12.0372 1.92965C10.1639 1.55045 8.26176 1.34961 6.35938 1.34961V15.8963C9.83251 14.227 12.0372 10.7414 12.0372 6.92068V1.92965Z" fill="#E8DBC4"/>
</g>
</svg>
