<svg width="256" height="318" viewBox="0 0 256 318" fill="none" xmlns="http://www.w3.org/2000/svg">
<g filter="url(#filter0_d_1857_17410)">
<g style="mix-blend-mode:multiply">
<path d="M239.273 24.528C230.264 22.7026 221.219 21.1086 212.145 19.7417C209.612 19.3617 207.079 18.9992 204.541 18.6542C195.72 17.4489 186.876 16.4576 178.02 15.6802C173.456 15.2828 168.892 14.9378 164.324 14.6539C157.472 14.226 150.612 13.929 143.751 13.7543C139.191 13.6408 134.632 13.584 130.069 13.584C130.055 13.584 130.038 13.584 130.025 13.584C93.4238 13.584 56.8228 17.2305 20.7852 24.528V120.579C20.7852 194.109 63.2032 261.188 130.025 293.313C196.846 261.188 239.265 194.109 239.265 120.579V24.528H239.273Z" fill="#E4E5E6"/>
</g>
<path d="M235.21 19.109C163.131 4.51836 88.8106 4.51836 16.7266 19.109V115.16C16.7266 188.689 59.0442 255.799 125.866 287.924C192.688 255.799 235.206 188.689 235.206 115.16V19.109H235.21Z" fill="#3D4F53"/>
<path d="M125.868 276.136C96.9095 261.2 72.6411 238.949 55.2774 211.493C36.9921 182.583 27.332 149.275 27.332 115.167V27.7458C59.8061 21.7147 92.9483 18.6621 125.973 18.6621C158.997 18.6621 192.139 21.7147 224.613 27.7458V115.163C224.613 149.27 214.949 182.578 196.668 211.489C179.304 238.945 154.827 261.204 125.868 276.136Z" fill="#77823C"/>
<path d="M125.869 18.6621V276.153C154.828 261.218 179.297 238.949 196.66 211.493C214.946 182.583 224.606 149.275 224.606 115.167V27.7458C192.132 21.7147 158.989 18.6621 125.965 18.6621H125.869Z" fill="#3D4F53"/>
<path d="M165.365 237.016L145.739 252.34L125.869 237.046L106.487 252.34L86.8613 237.016L80.0137 242.505C92.3377 256.524 107.714 267.97 125.869 276.132C144.023 267.965 160.02 256.48 172.348 242.461L165.374 237.016H165.365Z" fill="#F8F6E4"/>
<path d="M122.433 177.525C122.566 177.514 122.703 177.533 122.84 177.525C127.369 180.904 129.441 185.906 129.391 191.503C127.04 192.129 121.585 194.811 122.906 197.85C123.325 198.808 125.01 199.383 125.339 200.416C125.797 201.859 124.874 206.18 123.517 202.915C123.344 204.112 123.153 205.304 122.504 206.36L121.491 204.671C121.143 206.227 120.755 207.541 119.465 208.586C119.093 207.94 119.23 207.166 118.518 206.697C118.444 207.24 117.028 210.076 116.629 210.072C116.571 210.072 115.953 209.415 115.683 209.395C114.302 209.309 112.683 215.684 110.012 212.23C109.836 213.329 108.44 215.187 107.31 215.336C106.113 215.496 105.042 214.018 104.744 216.282C101.956 213.196 105.808 212.019 107.783 210.541C107.02 210.987 105.53 211.124 104.881 211.554C103.943 212.176 104.482 213.157 102.718 212.903C101.498 212.727 100.431 210.596 99.8831 213.58C98.3344 212.317 100.407 210.58 100.356 210.404C100.278 210.146 99.582 210.999 99.6797 209.864C99.7423 209.141 101.26 208.253 101.909 208.175C103.376 208.003 104.287 209.243 105.624 208.378C104.74 208.629 104.138 207.737 103.665 207.635C102.957 207.483 101.76 207.972 101.502 207.905C101.244 207.839 100.826 206.912 100.556 206.826C99.5546 206.505 98.5964 207.322 97.9902 208.042C98.3422 205.903 100.321 204.553 102.449 205.476C102.769 204.741 101.807 204.51 101.299 204.327C105.112 201.683 105.319 207.404 108.659 206.689C109.985 206.403 114.678 202.711 115.073 201.487C115.706 199.524 113.098 196.908 112.371 195.003C110.259 189.485 111.858 184.987 116.219 181.295C117.028 180.611 121.647 177.588 122.433 177.514V177.525Z" fill="#F8F6E4"/>
<path d="M88.9376 119.445C89.7158 119.375 91.6321 120.232 92.1132 120.865C92.7233 121.671 92.6177 123.282 92.7194 123.364C93.4976 123.998 93.4507 121.808 93.5289 121.745C97.6314 124.471 92.7585 126.81 92.6529 129.242C92.5199 132.312 97.7879 137.025 100.08 138.832C98.6795 140.459 97.0252 142.25 96.8375 144.502C96.6537 146.724 96.904 147.041 96.4308 149.501C96.247 150.463 96.4034 151.46 96.0945 152.402C94.3463 151.859 93.1574 150.56 92.3791 148.957L95.3514 148.82C93.6071 148.343 91.9763 147.275 91.0299 145.715C92.2344 145.656 93.392 146.098 94.405 145.175C92.6451 144.808 91.1316 144.139 89.9466 142.743C90.6818 142.379 91.4796 142.461 91.8355 141.526C91.507 141.288 89.3091 140.095 89.27 139.907C89.2543 139.833 89.6493 139.235 89.4069 138.421C88.7068 136.086 87.205 136.931 85.6915 136.599C84.6708 136.376 83.8104 135.527 83.3294 134.639C84.8155 135.198 85.6681 134.107 85.8949 132.75C83.9121 133.595 81.9097 132.109 81.8432 130.048C81.7963 128.558 83.6109 127.201 80.627 127.615C81.2801 126.074 83.3607 126.098 84.7451 126.602C86.7279 127.322 86.7123 129.766 88.6599 130.384C87.5922 129.661 87.3888 128.085 86.8374 127.345C86.3251 126.657 85.0736 126.528 84.8116 125.996C84.0529 124.459 86.4776 122.297 83.0556 122.351C83.9668 121.174 85.5507 121.252 86.5011 122.285C85.891 120.861 88.1241 121.639 88.7968 122.148C90.7053 123.595 89.4577 125.793 90.4159 127.549C90.2242 126.567 90.9986 125.668 90.8891 124.78C90.8343 124.33 90.103 123.56 90.0795 123.431C89.9427 122.695 90.803 122.277 90.7561 121.542C90.6974 120.654 89.2348 119.84 88.4604 119.653C88.6208 119.649 88.9063 119.453 88.9336 119.449L88.9376 119.445Z" fill="#F8F6E4"/>
<path d="M107.167 123.76C108.313 126.658 110.366 124.386 112.435 124.166C112.92 124.116 115.212 124.006 115.204 124.773C115.196 125.617 112.576 125.395 111.895 125.516C109.956 125.864 103.788 127.776 107.167 123.76Z" fill="#F8F6E4"/>
<path d="M132.556 103.783C134.018 105.782 133.13 107.585 131.003 108.441C132.462 108.887 133.619 108.926 134.988 109.724C136.932 110.858 138.563 114.73 140.999 112.493L141.269 112.63C141.566 114.972 140.397 115.883 138.567 116.951C142.728 118.203 140.714 125.923 145.591 124.648C144.738 127.421 143.443 128.195 140.592 127.35C143.69 130.377 138.277 136.24 143.698 137.209C142.012 139.239 140.483 140.06 138.16 138.289C139.838 141.273 134.961 145.888 139.916 147.202C138.328 148.782 136.916 149.548 134.988 147.945C135.207 153.498 129.583 157.612 124.386 155.442C125.481 154.855 126.928 153.584 126.345 152.266C125 154.359 121.636 153.678 119.458 154.022C117.115 154.394 114.816 155.078 114.19 157.667C112.18 156.373 111.093 154.292 113.177 152.466C109.583 152.27 103.021 155.966 105.481 160.162C105.078 156.729 108.398 154.206 111.421 153.815C110.823 156.021 112.673 157.48 114.19 158.743C115.907 154.378 120.471 155.379 124.182 154.421C124.836 154.492 123.056 155.461 123.033 155.704C124.875 156.987 127.237 157.28 129.446 156.717C131.848 161.383 134.824 166.166 138.629 169.818C140.557 171.668 143.033 173.021 144.773 175.02C147.131 177.726 148.027 181.242 151.727 182.787C157.914 185.368 157.139 180.186 155.172 176.373C152.431 171.062 148.496 167.652 147.069 161.246C142.657 141.449 167.875 139.364 171.109 156.924C171.719 160.244 170.303 162.716 174.214 164.488C172.986 164.805 171.629 164.531 170.636 163.745C170.538 167.042 173.913 169.357 176.51 166.647C175.575 169.717 172.865 169.556 170.569 167.996C171.84 169.478 172.036 171.203 170.636 172.654C170.491 169.517 166.103 169.177 166.044 165.63C165.387 166.4 165.606 166.776 165.775 167.656C162.501 165.751 162.407 162.943 163.952 159.756C162.814 159.767 162.689 161.019 162.669 161.848C160.467 161.179 160.624 158.754 161.117 156.92C161.449 155.684 162.454 154.93 162.603 153.678C161.492 154.937 160.162 155.829 158.688 154.488C161.289 153.26 160.237 149.185 157.812 148.344C154.449 147.178 150.921 150.385 149.912 153.408C145.915 165.376 163.143 176.166 160.041 184.335C158.277 188.978 151.965 187.288 148.426 186.224C149.189 188.415 146.991 192.658 149.032 194.261C150.17 195.153 151.613 194.57 152.814 194.801C154.085 195.043 155.536 197.234 155.446 198.516C155.223 198.379 153.565 197.367 153.42 197.707C154.472 198.622 155.305 199.721 155.176 201.219C154.472 200.644 153.956 199.791 152.947 199.666C153.975 200.769 154.218 202.177 154.097 203.651L153.893 203.988L152.474 202.705C153.064 204.14 153.103 206.17 151.867 207.23L150.921 205.88C150.98 206.549 150.022 209.463 149.435 209.525C149.392 209.529 148.876 209.197 148.625 209.256C147.886 209.428 146.901 215.685 143.764 212.631C143.905 213.784 142.704 215.978 141.468 216.143C140.436 216.279 139.392 215.149 139.173 217.222C136.138 214.954 139.603 212.889 141.402 211.481C140.811 211.755 139.493 212.154 139.04 212.494C138.449 212.932 138.109 214.058 137.691 214.25C136.228 214.911 134.12 212.302 134.046 215.466C133.08 214.68 133.052 213.225 133.979 212.427H133.303C133.303 211.352 134.198 210.214 135.262 209.928C136.666 209.553 137.694 210.441 138.84 209.725C138.113 209.881 137.526 209.177 137.018 209.119C136.161 209.017 135.442 209.752 134.855 209.658C134.538 209.608 134.061 208.892 133.909 208.849C132.853 208.552 132.121 209.557 131.476 210.198C131.703 208.055 133.42 206.494 135.665 207.226C135.868 206.553 134.969 206.279 134.515 206.213C137.37 203.198 138.657 208.059 141.335 207.633C143.127 207.347 146.244 203.245 145.184 201.489C144.413 200.214 138.766 199.85 137.014 199.126C130.444 196.404 131.699 189.099 129.654 183.663C126.674 175.747 117.569 172.396 110.271 169.685C110.17 168.719 111.39 167.484 110.271 166.31C110.209 167.89 109.54 169.533 108.246 170.499C104.863 173.017 107.639 169.322 107.029 168.066C106.431 170.053 104.757 171.637 102.641 171.915C102.489 171.668 103.666 169.681 102.978 169.283C102.63 170.831 101.519 171.926 100.142 172.658C99.7355 172.568 100.217 170.01 99.1958 169.685C99.2388 170.288 97.917 173.064 97.4398 173.06C97.3264 173.06 96.8298 172.134 95.6839 172.654C94.3855 173.244 93.486 179.001 90.0131 175.759C90.2634 177.096 88.832 179.572 87.4476 179.811C86.0631 180.049 85.0189 178.622 84.882 181.16C83.083 180.303 83.1534 178.305 84.2758 176.905C85.0932 175.88 86.8727 175.575 87.1777 174.273C86.5833 175.125 85.1558 175.274 84.4753 175.759C83.7557 176.275 83.4859 177.464 83.126 177.648C81.2175 178.626 79.0861 175.383 78.9375 178.997C77.7838 177.972 77.776 176.346 79.004 175.419C77.467 176.236 78.0341 174.5 78.5973 173.8C80.275 171.715 82.5668 173.526 84.4049 172.45C83.4272 172.783 82.6959 171.915 82.0427 171.844C81.1315 171.742 80.1381 172.568 79.4772 172.384C79.1761 172.302 78.7967 171.375 77.8581 171.437C76.9195 171.5 76.4619 172.748 75.6289 172.857C76.2742 170.475 77.6039 169.013 80.2203 169.752C80.2828 168.825 79.3169 168.817 78.7341 168.536C82.7741 165.043 83.5836 171.504 87.5805 170.225C91.3272 169.024 96.8962 161.449 99.1958 158.207C99.6534 159.627 99.9545 161.164 101.359 161.989C102.09 161.911 99.9585 158.817 100.549 158.207L102.575 160.503L103.521 161.042C101.664 159.372 100.236 157.612 100.279 154.965L98.3902 157.667C95.8559 153.209 97.0957 146.967 101.022 143.69C99.5908 143.533 98.7891 144.984 97.8466 145.782C97.8622 140.397 103.478 136.505 108.449 135.989C107.491 134.992 105.305 135.989 106.286 134.1C107.792 131.202 115.449 132.759 118.105 130.925C119.313 130.092 120.815 127.284 119.051 126.466C117.55 125.774 117.366 128.054 116.216 128.222C115.313 128.355 114.374 127.307 112.571 127.816C111.347 128.164 109.697 130.713 109.329 130.788C107.737 131.108 104.612 126.924 105.954 125.927C106.192 125.747 108.836 125.997 109.466 125.927C110.224 125.841 113.975 125.293 114.464 125.117C117.174 124.131 113.623 120.397 111.492 120.119C109.994 119.923 105.477 120.135 107.776 122.481C105.434 123.455 106.056 121.241 105.75 120.185C105.504 119.333 104.949 118.867 104.534 117.08C104.386 116.435 103.678 115.887 103.994 115.191C104.378 114.39 110.6 113.142 111.761 113.502C112.004 113.408 111.718 112.446 111.965 111.949C112.508 110.838 117.037 110.463 118.246 110.529C116.239 108.226 115.262 105.504 118.652 103.912L118.989 103.979C118.969 104.714 118.926 105.492 119.462 106.071C120.221 104.91 121.284 104.354 122.567 103.908L122.904 103.975L122.97 105.664C124.265 104.339 126.228 104.17 127.968 104.448C129.583 104.706 131.738 106.38 132.559 103.771L132.556 103.783Z" fill="#F8F6E4"/>
<path d="M114.19 113.641C114.323 113.645 114.913 114.251 115.269 114.317C115.84 114.419 116.396 114.149 116.959 114.251C115.715 115.287 113.932 115.616 112.5 114.79C112.473 114.689 114.061 113.637 114.19 113.641Z" fill="#77823C"/>
<path d="M47.8351 50.9668C47.8351 49.0802 48.1914 47.4137 48.9041 45.9673C49.6378 44.5209 50.6126 43.3051 51.8284 42.3199C53.0652 41.3137 54.4487 40.559 55.9789 40.0559C57.5301 39.5528 59.1337 39.3013 60.7898 39.3013C61.775 39.3013 62.6973 39.4166 63.5568 39.6472C64.4162 39.8778 65.1814 40.1712 65.8521 40.5276V39.8044C65.8521 39.6996 65.9046 39.6262 66.0094 39.5843C66.1142 39.5424 66.2295 39.5214 66.3552 39.5214C66.6278 39.5214 66.764 39.6157 66.764 39.8044C66.764 40.58 66.785 41.3661 66.8269 42.1626C66.8898 42.9592 66.9736 43.7243 67.0784 44.458C67.0994 44.5628 67.0575 44.6467 66.9527 44.7096C66.8479 44.7515 66.7221 44.7724 66.5753 44.7724C66.4496 44.7724 66.3343 44.7515 66.2295 44.7096C66.1247 44.6467 66.0618 44.5628 66.0408 44.458L65.7893 42.9802C64.9298 42.1836 64.0284 41.6071 63.0851 41.2508C62.1418 40.8944 61.1461 40.7162 60.098 40.7162C58.6097 40.7162 57.2262 41.0726 55.9475 41.7853C54.6688 42.498 53.6416 43.5566 52.866 44.9611C52.1114 46.3656 51.7341 48.1264 51.7341 50.2436C51.7341 52.3818 52.1428 54.1636 52.9603 55.589C53.7779 56.9935 54.8574 58.0521 56.199 58.7648C57.5406 59.4565 59.008 59.8024 60.6011 59.8024C62.6554 59.8024 64.6049 59.1735 66.4496 57.9158L66.6382 56.438C66.6802 56.2074 66.8688 56.0921 67.2042 56.0921C67.33 56.0921 67.4453 56.1235 67.5501 56.1864C67.6549 56.2493 67.6968 56.3331 67.6759 56.438C67.5711 56.983 67.4977 57.6433 67.4558 58.4189C67.4348 59.1735 67.4243 59.9491 67.4243 60.7457C67.4243 60.9134 67.2671 60.9973 66.9527 60.9973C66.8269 60.9973 66.7116 60.9763 66.6068 60.9344C66.502 60.8924 66.4496 60.8296 66.4496 60.7457V59.9911C64.4162 60.8086 62.4039 61.2174 60.4124 61.2174C58.6935 61.2174 57.069 60.9973 55.5387 60.557C54.0294 60.1168 52.6878 59.467 51.5139 58.6076C50.361 57.7271 49.4596 56.6476 48.8098 55.3689C48.16 54.0902 47.8351 52.6228 47.8351 50.9668ZM84.9874 58.8277C84.5892 57.549 84.1699 56.2703 83.7297 54.9916C83.2895 53.7129 82.8493 52.4132 82.4091 51.0926H76.7178C76.0261 53.2936 75.3657 55.5261 74.7369 57.79C74.653 58.1254 74.5901 58.4189 74.5482 58.6704C74.5063 58.922 74.4853 59.1316 74.4853 59.2993C74.4853 59.6137 74.5482 59.771 74.674 59.771H76.9379C77.0637 59.771 77.1475 59.8338 77.1895 59.9596C77.2524 60.0644 77.2838 60.1692 77.2838 60.2741C77.2838 60.3579 77.2524 60.4732 77.1895 60.6199C77.1475 60.7457 77.0427 60.8086 76.875 60.8086C76.5396 60.8086 76.1204 60.8086 75.6173 60.8086C75.1142 60.7876 74.6111 60.7772 74.108 60.7772C73.6049 60.7772 73.1752 60.7772 72.8188 60.7772C72.2109 60.7772 71.624 60.7876 71.058 60.8086C70.492 60.8505 69.9156 60.8715 69.3286 60.8715C69.14 60.8715 69.0456 60.6933 69.0456 60.3369C69.0456 59.9806 69.14 59.8024 69.3286 59.8024H70.9008C71.362 59.8024 71.7078 59.5718 71.9384 59.1106C72.5463 57.811 73.0913 56.5323 73.5735 55.2746C74.0556 54.0168 74.5377 52.7067 75.0199 51.3441C75.502 49.9816 76.0156 48.5352 76.5606 47.0049C77.1266 45.4747 77.7764 43.7977 78.5101 41.974C78.573 41.8063 78.6359 41.6491 78.6988 41.5023C78.7616 41.3346 78.7931 41.1879 78.7931 41.0621C78.7931 40.8735 78.7512 40.7162 78.6673 40.5905C78.5835 40.4647 78.5415 40.3599 78.5415 40.276C78.5415 40.1083 78.6463 40.0245 78.856 40.0245C79.2962 40.0245 79.6316 39.9511 79.8622 39.8044C80.0927 39.6577 80.2604 39.5004 80.3653 39.3327C80.4701 39.1441 80.5644 38.9764 80.6482 38.8296C80.7321 38.6829 80.8474 38.6095 80.9941 38.6095C81.078 38.6095 81.1513 38.7144 81.2142 38.924C81.2771 39.1126 81.3505 39.3223 81.4343 39.5528L87.7545 56.6266C88.2156 57.8424 88.572 58.6704 88.8235 59.1106C89.0751 59.5509 89.2742 59.771 89.421 59.771H90.5529C90.7625 59.771 90.8674 59.9282 90.8674 60.2426C90.8674 60.3893 90.8464 60.5256 90.8045 60.6514C90.7835 60.7562 90.7206 60.8086 90.6158 60.8086C89.7983 60.8086 89.0646 60.8086 88.4148 60.8086C87.7859 60.7876 87.1885 60.7772 86.6225 60.7772C86.0775 60.7772 85.4276 60.7876 84.673 60.8086C83.9393 60.8505 83.258 60.8715 82.6292 60.8715C82.4405 60.8715 82.3462 60.6828 82.3462 60.3055C82.3462 59.9701 82.4405 59.8024 82.6292 59.8024H84.4215C85.0084 59.8024 85.1971 59.4775 84.9874 58.8277ZM79.5792 42.9173C79.139 44.0702 78.7197 45.2231 78.3214 46.3761C77.9231 47.508 77.5249 48.661 77.1266 49.8348H81.9689C81.6125 48.7238 81.2352 47.6024 80.8369 46.4704C80.4596 45.3175 80.0823 44.1331 79.7049 42.9173H79.5792ZM105.664 60.3684C105.559 60.5361 105.37 60.6199 105.098 60.6199C104.825 60.6199 104.647 60.5361 104.563 60.3684C104.375 60.0749 104.112 59.5613 103.777 58.8277C103.442 58.094 103.054 57.224 102.614 56.2179C102.194 55.1907 101.744 54.1007 101.262 52.9477C100.8 51.7948 100.35 50.6524 99.9095 49.5204C99.4693 48.3884 99.0606 47.3298 98.6833 46.3446C98.3059 45.3384 98.002 44.4999 97.7714 43.8291H97.6456C97.415 47.1621 97.2264 49.9082 97.0796 52.0673C96.9539 54.2055 96.8805 55.8301 96.8595 56.9411C96.8386 58.0311 96.9015 58.7753 97.0482 59.1735C97.1949 59.5718 97.3941 59.771 97.6456 59.771H99.0291C99.1759 59.771 99.2807 59.8234 99.3436 59.9282C99.4065 60.033 99.4379 60.1483 99.4379 60.2741C99.4379 60.3998 99.4065 60.5256 99.3436 60.6514C99.2807 60.7562 99.1759 60.8086 99.0291 60.8086C98.2535 60.8086 97.6351 60.8086 97.174 60.8086C96.7338 60.7876 96.2516 60.7772 95.7276 60.7772C94.91 60.7772 94.124 60.7876 93.3693 60.8086C92.6356 60.8505 92.1011 60.8715 91.7657 60.8715C91.6819 60.8715 91.6085 60.8191 91.5456 60.7143C91.5037 60.5885 91.4827 60.4627 91.4827 60.3369C91.4827 60.2112 91.5037 60.0959 91.5456 59.9911C91.6085 59.8653 91.6819 59.8024 91.7657 59.8024H92.8033C93.3064 59.8024 93.6733 59.7605 93.9039 59.6766C94.1554 59.5928 94.3231 59.3517 94.407 58.9534C94.4698 58.5342 94.5537 57.9158 94.6585 57.0983C94.7633 56.2598 94.8786 55.306 95.0044 54.2369C95.1301 53.1469 95.2559 52.0359 95.3817 50.9039C95.5075 49.772 95.6228 48.6924 95.7276 47.6652C95.8324 46.6381 95.9162 45.7577 95.9791 45.024C96.042 44.2903 96.0735 43.7977 96.0735 43.5462C96.0944 42.4352 96.0315 41.6805 95.8848 41.2822C95.759 40.863 95.5494 40.6534 95.2559 40.6534H93.6838C93.5999 40.6534 93.537 40.6114 93.4951 40.5276C93.4532 40.4228 93.4322 40.318 93.4322 40.2132C93.4322 40.0874 93.4532 39.9616 93.4951 39.8358C93.537 39.7101 93.5999 39.6472 93.6838 39.6472C94.1449 39.6472 94.7109 39.6577 95.3817 39.6786C96.0525 39.6786 96.7547 39.6891 97.4884 39.7101C98.243 39.7101 98.9558 39.7101 99.6266 39.7101C99.7314 40.0664 99.941 40.6953 100.255 41.5967C100.57 42.498 100.947 43.5776 101.387 44.8353C101.849 46.0721 102.341 47.4032 102.865 48.8287C103.389 50.2331 103.903 51.6271 104.406 53.0106C104.909 54.3941 105.36 55.6728 105.758 56.8467H105.884C106.764 54.6247 107.645 52.4446 108.525 50.3065C109.405 48.1683 110.202 46.1874 110.915 44.3637C111.648 42.54 112.204 40.9888 112.581 39.7101C113.566 39.7101 114.552 39.6996 115.537 39.6786C116.522 39.6367 117.298 39.6157 117.864 39.6157C117.948 39.6157 118.01 39.6891 118.052 39.8358C118.115 39.9826 118.147 40.1188 118.147 40.2446C118.147 40.5171 118.052 40.6534 117.864 40.6534H116.669C116.271 40.6534 115.998 40.7791 115.851 41.0307C115.726 41.2822 115.673 41.67 115.694 42.1941C115.694 42.3618 115.726 42.8754 115.788 43.7348C115.872 44.5733 115.977 45.6109 116.103 46.8477C116.229 48.0635 116.354 49.3632 116.48 50.7467C116.627 52.1092 116.763 53.4299 116.889 54.7086C117.036 55.9663 117.162 57.0459 117.266 57.9472C117.308 58.3875 117.382 58.8067 117.486 59.205C117.612 59.5823 117.78 59.771 117.99 59.771H119.97C120.075 59.771 120.159 59.8234 120.222 59.9282C120.285 60.033 120.316 60.1483 120.316 60.2741C120.316 60.4208 120.285 60.5466 120.222 60.6514C120.159 60.7562 120.075 60.8086 119.97 60.8086C119.635 60.8086 119.195 60.8086 118.65 60.8086C118.105 60.7876 117.57 60.7772 117.046 60.7772C116.522 60.7772 116.124 60.7772 115.851 60.7772C115.495 60.7772 115.034 60.7876 114.468 60.8086C113.902 60.8086 113.357 60.8191 112.833 60.84C112.309 60.861 111.942 60.8715 111.732 60.8715C111.648 60.8715 111.586 60.8086 111.544 60.6828C111.502 60.557 111.481 60.4313 111.481 60.3055C111.481 60.1797 111.502 60.0644 111.544 59.9596C111.586 59.8548 111.648 59.8024 111.732 59.8024H112.927C113.703 59.8024 114.059 59.467 113.996 58.7962C113.975 58.4608 113.933 57.9263 113.87 57.1926C113.829 56.4589 113.766 55.6099 113.682 54.6457C113.598 53.6605 113.514 52.6333 113.43 51.5642C113.346 50.4952 113.273 49.468 113.21 48.4828C113.147 47.4766 113.084 46.5962 113.021 45.8415C112.98 45.0659 112.959 44.4895 112.959 44.1121H112.833C112.518 44.7829 112.11 45.6948 111.607 46.8477C111.124 47.9797 110.59 49.2165 110.003 50.558C109.437 51.8787 108.871 53.1888 108.305 54.4885C107.739 55.7881 107.215 56.962 106.733 58.0101C106.272 59.0582 105.915 59.8443 105.664 60.3684ZM128.771 49.7405C129.694 49.7195 130.584 49.6881 131.444 49.6462C132.303 49.5833 133.027 49.5204 133.613 49.4575C134.2 49.3946 134.525 49.3422 134.588 49.3003L134.903 47.4451C134.924 47.2984 135.091 47.225 135.406 47.225C135.532 47.225 135.647 47.246 135.752 47.2879C135.856 47.3298 135.898 47.4032 135.877 47.508C135.814 47.9902 135.773 48.4304 135.752 48.8287C135.731 49.2269 135.72 49.6671 135.72 50.1493C135.72 50.6104 135.731 51.0926 135.752 51.5957C135.773 52.0778 135.814 52.5599 135.877 53.0421C135.898 53.1259 135.846 53.1888 135.72 53.2307C135.594 53.2727 135.458 53.2936 135.311 53.2936C135.039 53.2936 134.903 53.2307 134.903 53.105L134.557 51.2184C134.494 51.1764 134.179 51.124 133.613 51.0611C133.047 50.9982 132.335 50.9354 131.475 50.8725C130.616 50.8096 129.714 50.7677 128.771 50.7467V56.7838C128.771 57.5804 128.803 58.1778 128.865 58.5761C128.949 58.9744 129.044 59.2364 129.148 59.3622C129.253 59.488 129.348 59.5509 129.431 59.5509H131.035C132.398 59.5299 133.697 59.4041 134.934 59.1735C136.192 58.943 137.114 58.6285 137.701 58.2302L137.921 56.5008C137.942 56.417 138.005 56.3541 138.11 56.3122C138.236 56.2703 138.372 56.2493 138.519 56.2493C138.833 56.2493 138.98 56.3331 138.959 56.5008C138.854 57.2764 138.781 58.1045 138.739 58.9849C138.697 59.8653 138.676 60.7038 138.676 61.5003C138.676 61.6471 138.519 61.7205 138.204 61.7205C138.078 61.7205 137.963 61.6995 137.858 61.6576C137.754 61.6366 137.701 61.5842 137.701 61.5003V60.8086H129.935C128.593 60.8086 127.503 60.8086 126.664 60.8086C125.847 60.8296 125.197 60.84 124.715 60.84C124.254 60.84 123.887 60.84 123.614 60.84C123.363 60.861 123.122 60.8715 122.891 60.8715C122.807 60.8715 122.745 60.8191 122.703 60.7143C122.661 60.6095 122.64 60.4942 122.64 60.3684C122.64 60.2216 122.661 60.0959 122.703 59.9911C122.745 59.8653 122.807 59.8024 122.891 59.8024H124.243C124.788 59.8024 125.134 59.6976 125.281 59.488C125.449 59.2783 125.532 58.901 125.532 58.356V43.4518C125.532 42.6343 125.491 42.0369 125.407 41.6596C125.344 41.2613 125.26 40.9992 125.155 40.8735C125.071 40.7477 124.977 40.6848 124.872 40.6848H123.048C122.881 40.6848 122.797 40.4857 122.797 40.0874C122.797 39.9826 122.807 39.8882 122.828 39.8044C122.87 39.6996 122.944 39.6472 123.048 39.6472C123.593 39.6472 124.191 39.6577 124.841 39.6786C125.491 39.6996 126.214 39.7101 127.01 39.7101H136.129V39.0497C136.129 38.9449 136.181 38.8716 136.286 38.8296C136.391 38.7877 136.496 38.7668 136.601 38.7668C136.705 38.7668 136.8 38.7877 136.884 38.8296C136.988 38.8716 137.041 38.9449 137.041 39.0497C137.041 39.8254 137.062 40.6534 137.104 41.5338C137.146 42.3932 137.229 43.1584 137.355 43.8291C137.397 43.913 137.366 43.9759 137.261 44.0178C137.156 44.0597 137.041 44.0807 136.915 44.0807C136.789 44.0807 136.663 44.0597 136.538 44.0178C136.433 43.9759 136.37 43.913 136.349 43.8291C136.244 43.3889 136.108 42.9382 135.94 42.4771C135.773 42.0159 135.511 41.7015 135.154 41.5338C134.609 41.3242 133.917 41.1669 133.079 41.0621C132.261 40.9573 131.171 40.8944 129.809 40.8735C129.39 40.8944 129.107 41.0202 128.96 41.2508C128.834 41.4604 128.771 41.8168 128.771 42.3199V49.7405ZM148.086 59.5509H149.909C151.356 59.5509 152.718 59.4356 153.997 59.205C155.276 58.9744 156.219 58.6495 156.827 58.2302L157.047 56.5008C157.068 56.417 157.131 56.3541 157.236 56.3122C157.361 56.2703 157.498 56.2493 157.644 56.2493C157.959 56.2493 158.105 56.3331 158.085 56.5008C157.98 57.2764 157.906 58.1045 157.864 58.9849C157.823 59.8653 157.802 60.7038 157.802 61.5003C157.802 61.6471 157.644 61.7205 157.33 61.7205C157.204 61.7205 157.089 61.6995 156.984 61.6576C156.879 61.6366 156.827 61.5842 156.827 61.5003V60.8086H146.608C145.727 60.8086 145.025 60.8086 144.501 60.8086C143.977 60.8296 143.547 60.84 143.212 60.84C142.876 60.861 142.541 60.8715 142.206 60.8715C142.122 60.8715 142.059 60.8191 142.017 60.7143C141.975 60.6095 141.954 60.4942 141.954 60.3684C141.954 60.2216 141.975 60.0959 142.017 59.9911C142.059 59.8653 142.122 59.8024 142.206 59.8024H143.558C144.103 59.8024 144.449 59.6976 144.595 59.488C144.763 59.2783 144.847 58.901 144.847 58.356V43.4518C144.847 42.6343 144.805 42.0369 144.721 41.6596C144.658 41.2613 144.574 40.9992 144.47 40.8735C144.386 40.7477 144.291 40.6848 144.187 40.6848H142.363C142.195 40.6848 142.111 40.4857 142.111 40.0874C142.111 39.9826 142.122 39.8882 142.143 39.8044C142.185 39.6996 142.258 39.6472 142.363 39.6472C143.034 39.6472 143.704 39.6577 144.375 39.6786C145.046 39.6786 145.696 39.6786 146.325 39.6786C147.226 39.6786 147.928 39.6786 148.431 39.6786C148.955 39.6577 149.385 39.6367 149.721 39.6157C150.056 39.5948 150.391 39.5843 150.727 39.5843C150.832 39.5843 150.894 39.6367 150.915 39.7415C150.957 39.8463 150.978 39.9616 150.978 40.0874C150.978 40.2341 150.957 40.3704 150.915 40.4961C150.874 40.601 150.811 40.6534 150.727 40.6534H149.375C148.851 40.6534 148.505 40.7582 148.337 40.9678C148.169 41.1774 148.086 41.5547 148.086 42.0998V59.5509ZM171.453 39.3013C173.025 39.3013 174.503 39.5843 175.886 40.1503C177.27 40.7162 178.486 41.5023 179.534 42.5085C180.582 43.5147 181.399 44.6781 181.986 45.9987C182.594 47.3194 182.898 48.7343 182.898 50.2436C182.898 51.7739 182.594 53.1993 181.986 54.5199C181.399 55.8405 180.582 57.0039 179.534 58.0101C178.486 59.0163 177.27 59.8024 175.886 60.3684C174.503 60.9344 173.025 61.2174 171.453 61.2174C169.88 61.2174 168.403 60.9344 167.019 60.3684C165.636 59.8024 164.42 59.0163 163.372 58.0101C162.324 57.0039 161.496 55.8405 160.888 54.5199C160.301 53.1993 160.007 51.7739 160.007 50.2436C160.007 48.7343 160.301 47.3194 160.888 45.9987C161.496 44.6781 162.324 43.5147 163.372 42.5085C164.42 41.5023 165.636 40.7162 167.019 40.1503C168.403 39.5843 169.88 39.3013 171.453 39.3013ZM171.453 40.7477C169.964 40.7477 168.654 41.1774 167.522 42.0369C166.411 42.8754 165.541 44.0178 164.912 45.4642C164.284 46.8896 163.969 48.4828 163.969 50.2436C163.969 52.0044 164.284 53.6081 164.912 55.0544C165.541 56.5008 166.411 57.6538 167.522 58.5132C168.654 59.3517 169.964 59.771 171.453 59.771C172.941 59.771 174.241 59.3517 175.352 58.5132C176.484 57.6538 177.364 56.5008 177.993 55.0544C178.622 53.6081 178.936 52.0044 178.936 50.2436C178.936 48.4828 178.622 46.8896 177.993 45.4642C177.364 44.0178 176.484 42.8754 175.352 42.0369C174.241 41.1774 172.941 40.7477 171.453 40.7477ZM196.457 57.0039C196.457 57.8005 196.489 58.3979 196.551 58.7962C196.635 59.1945 196.73 59.4565 196.834 59.5823C196.939 59.7081 197.034 59.771 197.117 59.771H198.941C199.109 59.771 199.193 59.9701 199.193 60.3684C199.193 60.4522 199.172 60.5466 199.13 60.6514C199.109 60.7562 199.046 60.8086 198.941 60.8086C198.291 60.8086 197.62 60.8086 196.929 60.8086C196.258 60.7876 195.608 60.7772 194.979 60.7772C194.099 60.7772 193.397 60.7876 192.873 60.8086C192.348 60.8086 191.919 60.8191 191.583 60.84C191.248 60.861 190.913 60.8715 190.577 60.8715C190.493 60.8715 190.43 60.8191 190.388 60.7143C190.347 60.6095 190.326 60.4942 190.326 60.3684C190.326 60.2216 190.347 60.0959 190.388 59.9911C190.43 59.8653 190.493 59.8024 190.577 59.8024H191.929C192.474 59.8024 192.82 59.6976 192.967 59.488C193.135 59.2783 193.218 58.901 193.218 58.356V43.7977C193.218 41.953 193.009 41.0307 192.59 41.0307H191.929C190.965 41.0307 190.064 41.0726 189.225 41.1565C188.387 41.2193 187.611 41.3346 186.898 41.5023C186.5 41.6281 186.207 41.9425 186.018 42.4456C185.829 42.9487 185.693 43.4099 185.609 43.8291C185.588 43.934 185.525 44.0073 185.42 44.0493C185.337 44.0912 185.242 44.1121 185.137 44.1121C185.012 44.1121 184.875 44.0912 184.729 44.0493C184.603 43.9864 184.55 43.913 184.571 43.8291C184.676 43.1793 184.739 42.4247 184.76 41.5652C184.802 40.6848 184.823 39.8463 184.823 39.0497C184.823 38.9659 184.896 38.903 185.043 38.8611C185.19 38.7982 185.326 38.7668 185.452 38.7668C185.703 38.7668 185.829 38.8611 185.829 39.0497V39.6472C186.374 39.6681 186.94 39.6891 187.527 39.7101C188.135 39.7101 188.879 39.7101 189.76 39.7101H199.161C200.293 39.7101 201.226 39.7101 201.96 39.7101C202.693 39.6891 203.322 39.6681 203.846 39.6472V39.0497C203.846 38.8611 203.972 38.7668 204.224 38.7668C204.349 38.7668 204.486 38.7982 204.632 38.8611C204.779 38.903 204.852 38.9659 204.852 39.0497C204.852 39.8463 204.863 40.6848 204.884 41.5652C204.926 42.4247 204.999 43.1793 205.104 43.8291C205.125 43.913 205.062 43.9864 204.915 44.0493C204.79 44.0912 204.664 44.1121 204.538 44.1121C204.433 44.1121 204.328 44.0912 204.224 44.0493C204.14 44.0073 204.087 43.934 204.066 43.8291C203.983 43.4099 203.846 42.9487 203.658 42.4456C203.49 41.9425 203.196 41.6281 202.777 41.5023C202.064 41.3137 201.268 41.1984 200.387 41.1565C199.507 41.0936 198.553 41.0516 197.526 41.0307C197.086 41.0516 196.792 41.1774 196.646 41.408C196.52 41.6176 196.457 41.974 196.457 42.4771V57.0039Z" fill="#F8F6E4"/>
<path d="M67.9032 70.8621C68.7709 70.8621 69.2048 71.3 69.2048 72.1757C69.2048 73.0593 68.7709 73.5012 67.9032 73.5012C67.0354 73.5012 66.6016 73.0593 66.6016 72.1757C66.6016 71.3 67.0354 70.8621 67.9032 70.8621ZM68.9779 85.8366C68.9779 86.3541 69.1769 86.6845 69.575 86.8278C69.973 86.9631 70.172 87.1303 70.172 87.3293C70.172 87.4965 70.0924 87.5801 69.9332 87.5801H65.8851C65.7179 87.5801 65.6343 87.4965 65.6343 87.3293C65.6343 87.1303 65.8333 86.9631 66.2314 86.8278C66.6294 86.6845 66.8285 86.3541 66.8285 85.8366V78.1941C66.8285 77.6926 66.6294 77.3702 66.2314 77.2269C65.8333 77.0836 65.6343 76.9084 65.6343 76.7015C65.6343 76.5343 65.7179 76.4507 65.8851 76.4507C66.4105 76.4268 66.928 76.3472 67.4375 76.2119C67.9549 76.0686 68.4684 75.9093 68.9779 75.7342V85.8366ZM77.6693 77.3941C78.1072 77.2269 78.4933 77.0796 78.8277 76.9522C79.162 76.8249 79.4804 76.7094 79.783 76.6059C80.5154 76.3512 81.2756 76.184 82.0638 76.1044C82.1593 76.0964 82.2588 76.0924 82.3623 76.0924C83.031 76.0924 83.6679 76.3193 84.2729 76.7731C85.2362 77.5135 85.7178 79.1017 85.7178 81.5377V85.8366C85.7178 86.3541 85.9169 86.6845 86.3149 86.8278C86.713 86.9631 86.912 87.1303 86.912 87.3293C86.912 87.4965 86.8324 87.5801 86.6732 87.5801H83.7714C83.6361 87.5801 83.5684 87.5283 83.5684 87.4248V81.5377C83.5684 79.7943 83.2062 78.5683 82.4817 77.8598C82.02 77.406 81.4548 77.1791 80.786 77.1791C80.4039 77.1791 79.986 77.2547 79.5322 77.406C79.3571 77.4697 79.1341 77.5533 78.8635 77.6568C78.6008 77.7523 78.3739 77.8359 78.1828 77.9075C77.9918 77.9792 77.8206 78.0429 77.6693 78.0986V85.8366C77.6693 86.3541 77.8684 86.6845 78.2664 86.8278C78.6645 86.9631 78.8635 87.1303 78.8635 87.3293C78.8635 87.4965 78.7839 87.5801 78.6246 87.5801H74.5765C74.4093 87.5801 74.3257 87.4965 74.3257 87.3293C74.3257 87.1303 74.5248 86.9631 74.9228 86.8278C75.3209 86.6845 75.5199 86.3541 75.5199 85.8366V78.1941C75.5199 77.6926 75.3209 77.3702 74.9228 77.2269C74.5248 77.0836 74.3257 76.9084 74.3257 76.7015C74.3257 76.5343 74.4093 76.4507 74.5765 76.4507C75.1019 76.4268 75.6194 76.3472 76.1289 76.2119C76.6464 76.0686 77.1598 75.9093 77.6693 75.7342V77.3941ZM95.3885 76.1402C96.5587 76.2039 97.6653 76.5582 98.7082 77.203L98.4574 79.2927C98.4415 79.4122 98.3778 79.4719 98.2663 79.4719H98.2305C98.135 79.4639 98.0474 79.3684 97.9678 79.1853C97.6812 78.5882 97.2633 78.0906 96.714 77.6926C96.1647 77.2866 95.5716 77.0716 94.9347 77.0478H94.8869C94.3933 77.0478 93.9117 77.1712 93.442 77.4179C92.9484 77.6727 92.6459 78.0628 92.5345 78.5882C92.4947 78.7633 92.4748 78.9226 92.4748 79.0659C92.4748 79.5674 92.6977 79.9256 93.1435 80.1406C93.7087 80.4272 94.3655 80.6541 95.1138 80.8212C96.1408 81.0521 97.0722 81.3626 97.9081 81.7527C98.752 82.1428 99.2137 82.9588 99.2933 84.2007V84.3201C99.2933 84.9092 99.0664 85.4983 98.6126 86.0874C98.1191 86.7243 97.4066 87.2059 96.4751 87.5323C95.894 87.7234 95.2491 87.8308 94.5406 87.8547H94.2182C93.239 87.8547 92.3036 87.7274 91.412 87.4726L90.4447 84.8455L90.4805 84.6067C90.4885 84.4873 90.5602 84.4275 90.6955 84.4275H90.7194C90.799 84.4435 90.8826 84.539 90.9701 84.7141C91.3363 85.5023 91.7822 86.0635 92.3076 86.3979C92.841 86.7243 93.5137 86.8994 94.3257 86.9233H94.469C95.0342 86.9233 95.6552 86.7919 96.3318 86.5292C97.0642 86.2426 97.4464 85.7252 97.4782 84.9769V84.9052C97.4782 84.0454 97.0722 83.5001 96.2602 83.2692C95.4163 83.0304 94.676 82.8194 94.0391 82.6363C93.251 82.4214 92.5106 82.0791 91.818 81.6094C91.1333 81.1476 90.791 80.463 90.791 79.5555V79.4957C90.799 78.2618 91.2766 77.3821 92.224 76.8567C93.0917 76.3711 94.051 76.1283 95.1019 76.1283C95.1974 76.1283 95.2929 76.1323 95.3885 76.1402ZM114.469 85.8366C114.469 86.3541 114.668 86.6845 115.066 86.8278C115.464 86.9631 115.663 87.1303 115.663 87.3293C115.663 87.4965 115.579 87.5801 115.412 87.5801H112.511C112.375 87.5801 112.308 87.5283 112.308 87.4248V86.6486C111.87 86.8158 111.48 86.9671 111.137 87.1024C110.803 87.2298 110.492 87.3413 110.206 87.4368C109.465 87.6836 108.705 87.8468 107.925 87.9264C107.814 87.9343 107.706 87.9383 107.603 87.9383C106.942 87.9383 106.313 87.7154 105.716 87.2696C104.745 86.5372 104.259 84.949 104.259 82.505V78.1941C104.259 77.6926 104.06 77.3702 103.662 77.2269C103.264 77.0836 103.065 76.9084 103.065 76.7015C103.065 76.5343 103.148 76.4507 103.316 76.4507C103.841 76.4268 104.359 76.3472 104.868 76.2119C105.385 76.0686 105.903 75.9093 106.42 75.7342V82.505C106.42 84.2564 106.783 85.4824 107.507 86.1829C107.969 86.6367 108.534 86.8636 109.203 86.8636C109.585 86.8636 110.003 86.788 110.457 86.6367C110.624 86.581 110.843 86.5014 111.113 86.3979C111.384 86.2944 111.615 86.2068 111.806 86.1352C111.846 86.1192 111.909 86.0954 111.997 86.0635C112.093 86.0317 112.196 85.9919 112.308 85.9441V78.1941C112.308 77.6926 112.108 77.3702 111.71 77.2269C111.312 77.0836 111.113 76.9084 111.113 76.7015C111.113 76.5343 111.197 76.4507 111.364 76.4507C111.89 76.4268 112.407 76.3472 112.917 76.2119C113.434 76.0686 113.951 75.9093 114.469 75.7342V85.8366ZM123.626 80.4749V85.8366C123.626 86.3541 123.821 86.6845 124.211 86.8278C124.609 86.9631 124.808 87.1303 124.808 87.3293C124.808 87.4965 124.729 87.5801 124.569 87.5801H120.521C120.354 87.5801 120.271 87.4965 120.271 87.3293C120.271 87.1303 120.47 86.9631 120.868 86.8278C121.266 86.6845 121.465 86.3541 121.465 85.8366V78.1941C121.465 77.6926 121.266 77.3702 120.868 77.2269C120.47 77.0836 120.271 76.9084 120.271 76.7015C120.271 76.5343 120.354 76.4507 120.521 76.4507C121.047 76.4268 121.564 76.3472 122.074 76.2119C122.591 76.0686 123.109 75.9093 123.626 75.7342V77.3105L125.286 76.6776C125.899 76.4467 126.377 76.2756 126.719 76.1641C126.822 76.1323 126.946 76.1163 127.089 76.1163C127.384 76.1163 127.758 76.1959 128.212 76.3552L127.949 79.3525H127.4C127.089 78.1902 126.492 77.609 125.608 77.609C125.521 77.609 125.433 77.613 125.346 77.6209C124.741 77.6926 124.307 78.0031 124.044 78.5524C123.789 79.0937 123.65 79.7346 123.626 80.4749ZM140.223 86.5412L136.939 87.7473C136.684 87.8348 136.473 87.8786 136.306 87.8786H135.816C134.686 87.8229 133.711 87.3612 132.891 86.4934C132.071 85.6257 131.605 84.5589 131.494 83.2931C131.462 82.9588 131.446 82.6363 131.446 82.3259C131.446 81.9119 131.474 81.5099 131.529 81.1198C131.625 80.4431 131.888 79.7664 132.317 79.0897C132.524 78.7395 132.879 78.3733 133.38 77.9911C133.555 77.8717 133.75 77.7642 133.965 77.6687C134.602 77.4299 135.239 77.1911 135.876 76.9522C136.521 76.7134 137.166 76.4746 137.811 76.2357C137.946 76.188 138.073 76.1641 138.193 76.1641H138.252C138.762 76.188 139.379 76.3154 140.103 76.5462C140.167 76.5701 140.207 76.586 140.223 76.594C140.398 76.6656 140.613 76.7452 140.868 76.8328C140.971 76.8647 141.067 76.8806 141.154 76.8806C141.282 76.8806 141.393 76.8448 141.488 76.7731C141.656 76.6298 141.775 76.5104 141.847 76.4149C141.887 76.3591 141.938 76.3313 142.002 76.3313C142.042 76.3313 142.082 76.3392 142.121 76.3552C142.297 76.4188 142.384 76.4985 142.384 76.594V85.8366C142.384 86.3541 142.583 86.6845 142.981 86.8278C143.379 86.9631 143.578 87.1303 143.578 87.3293C143.578 87.4965 143.495 87.5801 143.327 87.5801H140.426C140.29 87.5801 140.223 87.5283 140.223 87.4248V86.5412ZM140.223 78.3971C139.896 78.0946 139.466 77.816 138.933 77.5612C138.4 77.2985 137.926 77.1592 137.512 77.1433H137.464C137.305 77.1433 137.146 77.1751 136.987 77.2388C136.7 77.3423 136.413 77.4498 136.127 77.5612C135.848 77.6647 135.566 77.7682 135.279 77.8717C135.08 77.9513 134.921 78.0548 134.801 78.1822C134.308 78.7076 133.977 79.3445 133.81 80.0928C133.675 80.658 133.607 81.2193 133.607 81.7766C133.607 81.9517 133.615 82.1308 133.631 82.3139C133.719 83.4603 134.029 84.3917 134.562 85.1082C135.096 85.8486 135.765 86.3302 136.569 86.5531C136.871 86.6407 137.178 86.6845 137.488 86.6845C137.584 86.6845 137.683 86.6805 137.787 86.6725C137.962 86.6566 138.169 86.6049 138.408 86.5173C138.591 86.4536 138.877 86.3501 139.267 86.2068C139.657 86.0556 139.976 85.9322 140.223 85.8366V78.3971ZM150.789 77.3941C151.227 77.2269 151.613 77.0796 151.947 76.9522C152.282 76.8249 152.6 76.7094 152.903 76.6059C153.635 76.3512 154.395 76.184 155.183 76.1044C155.279 76.0964 155.378 76.0924 155.482 76.0924C156.151 76.0924 156.787 76.3193 157.393 76.7731C158.356 77.5135 158.837 79.1017 158.837 81.5377V85.8366C158.837 86.3541 159.036 86.6845 159.435 86.8278C159.833 86.9631 160.032 87.1303 160.032 87.3293C160.032 87.4965 159.952 87.5801 159.793 87.5801H156.891C156.756 87.5801 156.688 87.5283 156.688 87.4248V81.5377C156.688 79.7943 156.326 78.5683 155.601 77.8598C155.14 77.406 154.574 77.1791 153.906 77.1791C153.524 77.1791 153.106 77.2547 152.652 77.406C152.477 77.4697 152.254 77.5533 151.983 77.6568C151.72 77.7523 151.493 77.8359 151.302 77.9075C151.111 77.9792 150.94 78.0429 150.789 78.0986V85.8366C150.789 86.3541 150.988 86.6845 151.386 86.8278C151.784 86.9631 151.983 87.1303 151.983 87.3293C151.983 87.4965 151.903 87.5801 151.744 87.5801H147.696C147.529 87.5801 147.445 87.4965 147.445 87.3293C147.445 87.1303 147.644 86.9631 148.042 86.8278C148.44 86.6845 148.639 86.3541 148.639 85.8366V78.1941C148.639 77.6926 148.44 77.3702 148.042 77.2269C147.644 77.0836 147.445 76.9084 147.445 76.7015C147.445 76.5343 147.529 76.4507 147.696 76.4507C148.222 76.4268 148.739 76.3472 149.248 76.2119C149.766 76.0686 150.279 75.9093 150.789 75.7342V77.3941ZM169.284 76.1641H169.535C170.833 76.1641 172.027 76.5144 173.117 77.2149L172.914 79.233C172.899 79.3365 172.847 79.3883 172.759 79.3883H172.723C172.644 79.3803 172.572 79.3007 172.508 79.1494C172.19 78.4568 171.772 77.9553 171.255 77.6448C170.745 77.3423 170.124 77.1911 169.392 77.1911H169.105C168.237 77.2388 167.565 77.4896 167.087 77.9434C166.665 78.3573 166.355 78.8549 166.156 79.436C165.949 80.0172 165.845 80.666 165.845 81.3825C165.845 81.6213 165.857 81.8641 165.881 82.1109C165.961 83.2971 166.283 84.2683 166.848 85.0246C167.589 86.0197 168.417 86.585 169.332 86.7203C169.483 86.7442 169.639 86.7561 169.798 86.7561C170.514 86.7561 171.306 86.5173 172.174 86.0396C172.628 85.7928 172.934 85.6695 173.094 85.6695C173.133 85.6695 173.165 85.6774 173.189 85.6933C173.205 85.7093 173.213 85.7411 173.213 85.7889C173.213 85.8844 173.165 86.0357 173.07 86.2426C172.95 86.4815 172.815 86.6686 172.664 86.8039C172.21 87.2099 171.653 87.4885 170.992 87.6398C170.331 87.799 169.702 87.8786 169.105 87.8786C167.624 87.8707 166.379 87.4607 165.367 86.6486C164.364 85.8287 163.795 84.6584 163.66 83.1379C163.628 82.7876 163.612 82.4453 163.612 82.1109C163.612 81.681 163.64 81.2631 163.696 80.8571C163.799 80.1565 164.07 79.4559 164.508 78.7554C164.969 78.015 165.61 77.41 166.43 76.9403C167.258 76.4706 168.21 76.2119 169.284 76.1641ZM176.519 81.0004C176.742 79.5276 177.327 78.3494 178.274 77.4657C179.23 76.582 180.483 76.1323 182.036 76.1163H182.084C183.652 76.1163 184.85 76.5621 185.678 77.4538C186.506 78.3613 186.92 79.5435 186.92 81.0004C186.912 81.3188 186.9 81.5457 186.884 81.681C186.868 81.8084 186.705 81.8721 186.394 81.8721H178.788C178.812 83.1618 179.138 84.2325 179.767 85.0843C180.396 85.9282 181.188 86.4456 182.143 86.6367C182.422 86.7004 182.704 86.7322 182.991 86.7322C183.747 86.7322 184.532 86.5133 185.344 86.0755C185.797 85.8287 186.104 85.7053 186.263 85.7053C186.303 85.7053 186.335 85.7132 186.359 85.7292C186.382 85.753 186.394 85.7889 186.394 85.8366C186.394 85.9401 186.343 86.0874 186.239 86.2785C186.144 86.4695 186.064 86.5969 186 86.6606C185.945 86.7243 185.893 86.78 185.845 86.8278C184.977 87.5761 183.799 87.9503 182.31 87.9503C180.225 87.9343 178.66 87.2656 177.617 85.9441C176.813 84.9251 176.411 83.715 176.411 82.3139C176.411 81.892 176.447 81.4541 176.519 81.0004ZM178.788 81.0004H185.081C185.081 80.0291 184.862 79.1375 184.424 78.3255C184.002 77.5533 183.23 77.1672 182.107 77.1672H181.976C180.854 77.199 180.05 77.605 179.564 78.3852C179.078 79.1654 178.82 80.0371 178.788 81.0004Z" fill="#F8F6E4"/>
<path d="M125.405 260.65C125.405 261.358 125.414 261.921 125.433 262.341C125.461 262.76 125.484 263.081 125.503 263.305C125.531 263.519 125.554 263.677 125.573 263.78C125.601 263.882 125.615 263.976 125.615 264.059C125.615 264.097 125.601 264.134 125.573 264.171C125.545 264.208 125.484 264.227 125.391 264.227C125.335 264.227 125.284 264.176 125.237 264.073C125.2 263.971 125.158 263.85 125.112 263.71C125.065 263.57 125.009 263.449 124.944 263.347C124.888 263.244 124.818 263.193 124.734 263.193C124.306 263.379 123.845 263.519 123.351 263.612C122.857 263.705 122.419 263.752 122.037 263.752C121.264 263.752 120.537 263.654 119.857 263.459C119.186 263.263 118.595 262.974 118.082 262.592C117.579 262.201 117.183 261.726 116.894 261.167C116.606 260.598 116.461 259.946 116.461 259.21C116.461 258.372 116.62 257.631 116.936 256.988C117.253 256.336 117.682 255.791 118.222 255.353C118.772 254.915 119.387 254.584 120.067 254.361C120.756 254.137 121.469 254.025 122.205 254.025C122.689 254.025 123.09 254.072 123.407 254.165C123.733 254.249 124.087 254.37 124.469 254.529V254.235C124.469 254.189 124.487 254.156 124.525 254.137C124.571 254.119 124.618 254.109 124.664 254.109C124.711 254.109 124.758 254.119 124.804 254.137C124.851 254.156 124.874 254.189 124.874 254.235C124.874 254.58 124.883 254.939 124.902 255.311C124.921 255.675 124.953 256.019 125 256.345C125.009 256.383 124.986 256.415 124.93 256.443C124.883 256.471 124.832 256.485 124.776 256.485C124.646 256.485 124.571 256.443 124.553 256.359L124.455 255.744C124.064 255.39 123.654 255.12 123.225 254.934C122.806 254.738 122.363 254.64 121.897 254.64C121.227 254.64 120.612 254.803 120.053 255.13C119.494 255.446 119.042 255.921 118.697 256.555C118.362 257.179 118.194 257.952 118.194 258.875C118.194 259.806 118.371 260.589 118.725 261.223C119.088 261.856 119.568 262.331 120.165 262.648C120.761 262.965 121.413 263.123 122.121 263.123C122.428 263.123 122.731 263.077 123.029 262.983C123.337 262.89 123.593 262.741 123.798 262.536V261.25C123.798 260.887 123.779 260.622 123.742 260.454C123.714 260.277 123.677 260.16 123.63 260.105C123.593 260.049 123.551 260.021 123.505 260.021H122.023C121.949 260.021 121.911 259.932 121.911 259.755C121.911 259.709 121.916 259.667 121.925 259.629C121.944 259.583 121.977 259.56 122.023 259.56C122.219 259.56 122.47 259.56 122.778 259.56C123.095 259.56 123.407 259.564 123.714 259.574C124.022 259.574 124.268 259.574 124.455 259.574C124.855 259.574 125.168 259.569 125.391 259.56C125.624 259.55 125.815 259.546 125.964 259.546C126.113 259.536 126.262 259.532 126.411 259.532C126.458 259.532 126.486 259.555 126.495 259.601C126.514 259.648 126.523 259.699 126.523 259.755C126.523 259.82 126.514 259.881 126.495 259.937C126.477 259.983 126.449 260.007 126.411 260.007H125.978C125.745 260.007 125.591 260.053 125.517 260.146C125.442 260.24 125.405 260.407 125.405 260.65ZM133.533 262.69C133.356 262.122 133.17 261.553 132.974 260.985C132.778 260.417 132.583 259.839 132.387 259.252H129.858C129.55 260.23 129.257 261.223 128.977 262.229C128.94 262.378 128.912 262.508 128.893 262.62C128.875 262.732 128.865 262.825 128.865 262.9C128.865 263.039 128.893 263.109 128.949 263.109H129.955C130.011 263.109 130.049 263.137 130.067 263.193C130.095 263.24 130.109 263.286 130.109 263.333C130.109 263.37 130.095 263.421 130.067 263.486C130.049 263.542 130.002 263.57 129.927 263.57C129.778 263.57 129.592 263.57 129.368 263.57C129.145 263.561 128.921 263.556 128.698 263.556C128.474 263.556 128.283 263.556 128.125 263.556C127.854 263.556 127.594 263.561 127.342 263.57C127.09 263.589 126.834 263.598 126.573 263.598C126.49 263.598 126.448 263.519 126.448 263.361C126.448 263.202 126.49 263.123 126.573 263.123H127.272C127.477 263.123 127.631 263.021 127.733 262.816C128.004 262.238 128.246 261.67 128.46 261.111C128.674 260.552 128.889 259.969 129.103 259.364C129.317 258.758 129.545 258.115 129.788 257.435C130.039 256.755 130.328 256.01 130.654 255.199C130.682 255.125 130.71 255.055 130.738 254.99C130.766 254.915 130.78 254.85 130.78 254.794C130.78 254.71 130.761 254.64 130.724 254.584C130.687 254.529 130.668 254.482 130.668 254.445C130.668 254.37 130.715 254.333 130.808 254.333C131.003 254.333 131.153 254.3 131.255 254.235C131.357 254.17 131.432 254.1 131.479 254.025C131.525 253.942 131.567 253.867 131.604 253.802C131.642 253.737 131.693 253.704 131.758 253.704C131.795 253.704 131.828 253.751 131.856 253.844C131.884 253.928 131.916 254.021 131.954 254.123L134.763 261.712C134.968 262.252 135.126 262.62 135.238 262.816C135.35 263.011 135.438 263.109 135.503 263.109H136.006C136.1 263.109 136.146 263.179 136.146 263.319C136.146 263.384 136.137 263.445 136.118 263.5C136.109 263.547 136.081 263.57 136.034 263.57C135.671 263.57 135.345 263.57 135.056 263.57C134.777 263.561 134.511 263.556 134.26 263.556C134.017 263.556 133.729 263.561 133.393 263.57C133.067 263.589 132.764 263.598 132.485 263.598C132.401 263.598 132.359 263.514 132.359 263.347C132.359 263.198 132.401 263.123 132.485 263.123H133.281C133.542 263.123 133.626 262.979 133.533 262.69ZM131.129 255.619C130.934 256.131 130.747 256.643 130.57 257.156C130.393 257.659 130.216 258.171 130.039 258.693H132.191C132.033 258.199 131.865 257.701 131.688 257.198C131.521 256.685 131.353 256.159 131.185 255.619H131.129Z" fill="#3D4F53"/>
<g style="mix-blend-mode:multiply">
<path d="M235.048 19.3604C199.026 12.069 162.45 8.20703 125.869 8.20703V287.923C192.653 255.824 235.048 188.801 235.048 115.332V19.3604Z" fill="#E8DBC4"/>
</g>
</g>
<defs>
<filter id="filter0_d_1857_17410" x="0.830206" y="0.217837" width="254.34" height="316.939" filterUnits="userSpaceOnUse" color-interpolation-filters="sRGB">
<feFlood flood-opacity="0" result="BackgroundImageFix"/>
<feColorMatrix in="SourceAlpha" type="matrix" values="0 0 0 0 0 0 0 0 0 0 0 0 0 0 0 0 0 0 127 0" result="hardAlpha"/>
<feOffset dy="7.94818"/>
<feGaussianBlur stdDeviation="7.94818"/>
<feColorMatrix type="matrix" values="0 0 0 0 0 0 0 0 0 0 0 0 0 0 0 0 0 0 0.1 0"/>
<feBlend mode="normal" in2="BackgroundImageFix" result="effect1_dropShadow_1857_17410"/>
<feBlend mode="normal" in="SourceGraphic" in2="effect1_dropShadow_1857_17410" result="shape"/>
</filter>
</defs>
</svg>
