<svg width="404" height="273" viewBox="0 0 404 273" fill="none" xmlns="http://www.w3.org/2000/svg">
<g filter="url(#filter0_dddd_2327_6166)">
<rect x="30.5" y="8" width="160" height="160" rx="80" fill="white"/>
<rect x="31" y="8.5" width="159" height="159" rx="79.5" stroke="url(#paint0_linear_2327_6166)"/>
<path d="M53.04 102.6V89.8H40.24V85.96H53.04V73.16H56.88V85.96H69.68V89.8H56.88V102.6H53.04ZM93.5695 109V98.12H73.0895V95.56L94.2095 66.76H99.3295V95.56H105.09V98.12H99.3295V109H93.5695ZM76.9295 95.56H93.5695V72.904L76.9295 95.56ZM125.563 110.28C121.851 110.28 118.864 109.363 116.603 107.528C114.342 105.651 112.699 103.027 111.675 99.656C110.694 96.2853 110.203 92.36 110.203 87.88C110.203 83.3573 110.694 79.432 111.675 76.104C112.699 72.7333 114.342 70.1307 116.603 68.296C118.864 66.4187 121.851 65.48 125.563 65.48C129.318 65.48 132.304 66.4187 134.523 68.296C136.784 70.1307 138.406 72.7333 139.387 76.104C140.411 79.432 140.923 83.3573 140.923 87.88C140.923 92.36 140.411 96.2853 139.387 99.656C138.406 103.027 136.784 105.651 134.523 107.528C132.304 109.363 129.318 110.28 125.563 110.28ZM125.563 107.72C129.062 107.72 131.43 106.099 132.667 102.856C133.904 99.5707 134.523 94.5787 134.523 87.88C134.523 81.1387 133.904 76.1467 132.667 72.904C131.43 69.6613 129.062 68.04 125.563 68.04C122.064 68.04 119.696 69.6613 118.459 72.904C117.222 76.1467 116.603 81.1387 116.603 87.88C116.603 94.5787 117.222 99.5707 118.459 102.856C119.696 106.099 122.064 107.72 125.563 107.72ZM147.706 109L169.546 77.32H173.146L151.306 109H147.706ZM168.106 109.24C165.93 109.24 164.218 108.68 162.97 107.56C161.754 106.408 161.146 104.808 161.146 102.76C161.146 100.712 161.754 99.128 162.97 98.008C164.218 96.856 165.93 96.28 168.106 96.28C170.282 96.28 171.978 96.856 173.194 98.008C174.442 99.128 175.066 100.712 175.066 102.76C175.066 104.808 174.442 106.408 173.194 107.56C171.978 108.68 170.282 109.24 168.106 109.24ZM168.106 107.56C170.826 107.56 172.186 105.96 172.186 102.76C172.186 99.56 170.826 97.96 168.106 97.96C165.386 97.96 164.026 99.56 164.026 102.76C164.026 105.96 165.386 107.56 168.106 107.56ZM152.746 90.04C150.57 90.04 148.858 89.48 147.61 88.36C146.394 87.208 145.786 85.608 145.786 83.56C145.786 81.512 146.394 79.928 147.61 78.808C148.858 77.656 150.57 77.08 152.746 77.08C154.922 77.08 156.618 77.656 157.834 78.808C159.082 79.928 159.706 81.512 159.706 83.56C159.706 85.608 159.082 87.208 157.834 88.36C156.618 89.48 154.922 90.04 152.746 90.04ZM152.746 88.36C155.466 88.36 156.826 86.76 156.826 83.56C156.826 80.36 155.466 78.76 152.746 78.76C150.026 78.76 148.666 80.36 148.666 83.56C148.666 86.76 150.026 88.36 152.746 88.36Z" fill="#0091FB"/>
</g>
<path d="M219.732 58.144C218.9 58.144 218.164 57.9547 217.524 57.576C216.884 57.192 216.383 56.6667 216.02 56C215.657 55.3333 215.476 54.5813 215.476 53.744C215.476 52.9013 215.657 52.152 216.02 51.496C216.383 50.84 216.884 50.3253 217.524 49.952C218.164 49.5787 218.9 49.392 219.732 49.392C220.564 49.392 221.3 49.5787 221.94 49.952C222.58 50.3253 223.081 50.84 223.444 51.496C223.807 52.152 223.988 52.9013 223.988 53.744C223.988 54.5813 223.807 55.3333 223.444 56C223.081 56.6667 222.58 57.192 221.94 57.576C221.3 57.9547 220.564 58.144 219.732 58.144ZM219.732 57.24C220.372 57.24 220.935 57.0907 221.42 56.792C221.911 56.4933 222.295 56.08 222.572 55.552C222.849 55.024 222.988 54.4213 222.988 53.744C222.988 53.0613 222.849 52.4613 222.572 51.944C222.295 51.4267 221.911 51.024 221.42 50.736C220.935 50.4427 220.372 50.296 219.732 50.296C219.097 50.296 218.535 50.4427 218.044 50.736C217.553 51.024 217.169 51.4267 216.892 51.944C216.615 52.4613 216.476 53.0613 216.476 53.744C216.476 54.4213 216.615 55.024 216.892 55.552C217.169 56.08 217.553 56.4933 218.044 56.792C218.535 57.0907 219.097 57.24 219.732 57.24ZM226.329 58V49.504H227.321V52.008L226.969 51.896C227.001 51.6293 227.078 51.352 227.201 51.064C227.329 50.7707 227.505 50.496 227.729 50.24C227.953 49.984 228.233 49.7787 228.569 49.624C228.91 49.464 229.315 49.384 229.785 49.384C230.126 49.384 230.401 49.4133 230.609 49.472C230.817 49.5307 230.947 49.576 231.001 49.608L230.729 50.568C230.675 50.5307 230.566 50.4827 230.401 50.424C230.235 50.3653 229.998 50.336 229.689 50.336C229.241 50.336 228.865 50.424 228.561 50.6C228.257 50.7707 228.014 50.9947 227.833 51.272C227.651 51.5493 227.521 51.8453 227.441 52.16C227.361 52.4693 227.321 52.768 227.321 53.056V58H226.329ZM237.552 57.64C237.99 57.672 238.376 57.752 238.712 57.88C239.048 58.008 239.31 58.192 239.496 58.432C239.688 58.6773 239.784 58.992 239.784 59.376C239.784 59.8027 239.638 60.184 239.344 60.52C239.051 60.856 238.6 61.12 237.992 61.312C237.384 61.5093 236.608 61.608 235.664 61.608C234.352 61.608 233.371 61.4107 232.72 61.016C232.07 60.6213 231.744 60.1013 231.744 59.456C231.744 59.232 231.768 59.0373 231.816 58.872C231.87 58.712 231.928 58.584 231.992 58.488L232.936 58.632C232.888 58.7013 232.843 58.8 232.8 58.928C232.758 59.0613 232.736 59.216 232.736 59.392C232.736 59.8667 232.992 60.2187 233.504 60.448C234.022 60.6773 234.763 60.792 235.728 60.792C236.459 60.792 237.051 60.7307 237.504 60.608C237.963 60.4907 238.302 60.328 238.52 60.12C238.739 59.912 238.848 59.6827 238.848 59.432C238.848 59.048 238.691 58.7947 238.376 58.672C238.067 58.5547 237.68 58.4773 237.216 58.44L233.976 58.208C233.454 58.1653 233.032 58.016 232.712 57.76C232.392 57.4987 232.232 57.1707 232.232 56.776C232.232 56.536 232.291 56.312 232.408 56.104C232.531 55.896 232.672 55.7227 232.832 55.584C232.998 55.4453 233.144 55.36 233.272 55.328L234.064 55.712C233.92 55.7387 233.744 55.8347 233.536 56C233.328 56.1653 233.224 56.368 233.224 56.608C233.224 56.8213 233.312 56.9973 233.488 57.136C233.67 57.2747 233.998 57.3627 234.472 57.4L237.552 57.64ZM238.808 49.504H239.744L239.392 52.872C239.328 53.5013 239.15 54.072 238.856 54.584C238.563 55.096 238.155 55.504 237.632 55.808C237.11 56.1067 236.47 56.256 235.712 56.256C234.928 56.256 234.259 56.104 233.704 55.8C233.155 55.496 232.734 55.088 232.44 54.576C232.152 54.0587 232.008 53.4827 232.008 52.848C232.008 52.2027 232.163 51.6187 232.472 51.096C232.782 50.5733 233.211 50.1573 233.76 49.848C234.31 49.5387 234.944 49.384 235.664 49.384C236.331 49.384 236.904 49.504 237.384 49.744C237.864 49.984 238.24 50.28 238.512 50.632C238.79 50.984 238.947 51.3307 238.984 51.672H238.624L238.808 49.504ZM235.712 55.368C236.283 55.368 236.771 55.264 237.176 55.056C237.582 54.8427 237.891 54.5467 238.104 54.168C238.323 53.784 238.432 53.3333 238.432 52.816C238.432 52.32 238.323 51.8827 238.104 51.504C237.891 51.12 237.582 50.8187 237.176 50.6C236.771 50.3813 236.286 50.272 235.72 50.272C235.182 50.272 234.704 50.384 234.288 50.608C233.878 50.832 233.558 51.1387 233.328 51.528C233.099 51.912 232.984 52.3493 232.984 52.84C232.984 53.3413 233.091 53.784 233.304 54.168C233.523 54.5467 233.835 54.8427 234.24 55.056C234.651 55.264 235.142 55.368 235.712 55.368ZM244.546 58.152C243.895 58.152 243.327 58.0533 242.842 57.856C242.356 57.6587 241.98 57.3733 241.714 57C241.452 56.6213 241.322 56.1653 241.322 55.632C241.322 55.0933 241.46 54.6453 241.738 54.288C242.015 53.9253 242.41 53.6427 242.922 53.44C243.439 53.2373 244.05 53.1013 244.754 53.032C245.836 52.92 246.612 52.808 247.082 52.696C247.556 52.5787 247.794 52.392 247.794 52.136C247.794 52.12 247.794 52.104 247.794 52.088C247.794 52.0667 247.794 52.0453 247.794 52.024C247.794 51.4747 247.57 51.048 247.122 50.744C246.674 50.44 246.036 50.288 245.21 50.288C244.346 50.288 243.671 50.4587 243.186 50.8C242.706 51.1413 242.466 51.648 242.466 52.32H241.49C241.49 51.7067 241.644 51.1813 241.954 50.744C242.263 50.3013 242.698 49.9653 243.258 49.736C243.818 49.5013 244.471 49.384 245.218 49.384C245.89 49.384 246.495 49.488 247.034 49.696C247.572 49.904 247.999 50.208 248.314 50.608C248.634 51.0027 248.794 51.4907 248.794 52.072C248.794 52.184 248.794 52.296 248.794 52.408C248.794 52.5147 248.794 52.624 248.794 52.736V56.496C248.794 56.6773 248.802 56.8507 248.818 57.016C248.834 57.1813 248.858 57.3253 248.89 57.448C248.938 57.6027 248.988 57.7253 249.042 57.816C249.095 57.9067 249.138 57.968 249.17 58H248.17C248.148 57.9787 248.114 57.9227 248.066 57.832C248.018 57.736 247.97 57.624 247.922 57.496C247.879 57.3627 247.85 57.2133 247.834 57.048C247.818 56.8827 247.81 56.6827 247.81 56.448L247.97 56.568C247.799 56.8827 247.551 57.16 247.226 57.4C246.9 57.6347 246.511 57.8187 246.058 57.952C245.604 58.0853 245.1 58.152 244.546 58.152ZM244.698 57.264C245.274 57.264 245.794 57.1707 246.258 56.984C246.727 56.792 247.1 56.52 247.378 56.168C247.655 55.8107 247.794 55.3787 247.794 54.872V52.888L248.01 53.256C247.7 53.4107 247.279 53.536 246.746 53.632C246.212 53.7227 245.634 53.7973 245.01 53.856C244.13 53.9413 243.46 54.1093 243.002 54.36C242.548 54.6107 242.322 55.0187 242.322 55.584C242.322 56.128 242.522 56.544 242.922 56.832C243.322 57.12 243.914 57.264 244.698 57.264ZM257.425 58V53.776C257.425 53.5147 257.425 53.3067 257.425 53.152C257.425 52.9973 257.425 52.8453 257.425 52.696C257.425 52.2213 257.34 51.808 257.169 51.456C257.004 51.0987 256.748 50.8213 256.401 50.624C256.054 50.4213 255.609 50.32 255.065 50.32C254.585 50.32 254.134 50.44 253.713 50.68C253.292 50.9147 252.95 51.2347 252.689 51.64C252.433 52.0453 252.305 52.5013 252.305 53.008L251.705 52.784C251.705 52.1387 251.87 51.56 252.201 51.048C252.537 50.536 252.974 50.1307 253.513 49.832C254.057 49.5333 254.633 49.384 255.241 49.384C255.886 49.384 256.446 49.5067 256.921 49.752C257.396 49.992 257.761 50.3413 258.017 50.8C258.278 51.2533 258.409 51.8053 258.409 52.456C258.409 52.68 258.409 52.92 258.409 53.176C258.409 53.432 258.409 53.664 258.409 53.872V58H257.425ZM251.313 58V49.504H252.305V58H251.313ZM261.12 58V49.504H262.096V58H261.12ZM261.616 47.36C261.408 47.36 261.229 47.3013 261.08 47.184C260.93 47.0613 260.856 46.8987 260.856 46.696C260.856 46.4987 260.93 46.3413 261.08 46.224C261.229 46.1013 261.408 46.04 261.616 46.04C261.818 46.04 261.994 46.1013 262.144 46.224C262.293 46.3413 262.368 46.4987 262.368 46.696C262.368 46.8987 262.293 47.0613 262.144 47.184C261.994 47.3013 261.818 47.36 261.616 47.36ZM268.771 58.152C267.993 58.152 267.281 57.9787 266.635 57.632C265.99 57.28 265.473 56.776 265.083 56.12C264.699 55.464 264.507 54.6747 264.507 53.752C264.507 52.8293 264.699 52.0427 265.083 51.392C265.473 50.7413 265.99 50.2453 266.635 49.904C267.281 49.5573 267.993 49.384 268.771 49.384C269.369 49.384 269.902 49.4773 270.371 49.664C270.841 49.8453 271.238 50.088 271.563 50.392C271.889 50.6907 272.137 51.0187 272.307 51.376C272.478 51.7333 272.563 52.0853 272.563 52.432C272.563 52.4373 272.563 52.4453 272.563 52.456C272.563 52.4613 272.563 52.4693 272.563 52.48H271.579C271.579 52.4533 271.577 52.424 271.571 52.392C271.571 52.3547 271.569 52.32 271.563 52.288C271.515 51.904 271.363 51.5627 271.107 51.264C270.851 50.9653 270.523 50.728 270.123 50.552C269.723 50.376 269.27 50.288 268.763 50.288C268.193 50.288 267.659 50.4187 267.163 50.68C266.673 50.936 266.275 51.32 265.971 51.832C265.667 52.344 265.515 52.984 265.515 53.752C265.515 54.5147 265.665 55.1573 265.963 55.68C266.267 56.1973 266.665 56.5893 267.155 56.856C267.651 57.1173 268.187 57.248 268.763 57.248C269.393 57.248 269.913 57.144 270.323 56.936C270.734 56.728 271.043 56.4587 271.251 56.128C271.459 55.7973 271.569 55.4533 271.579 55.096H272.563C272.563 55.4533 272.481 55.8133 272.315 56.176C272.155 56.5387 271.915 56.8693 271.595 57.168C271.281 57.4667 270.886 57.7067 270.411 57.888C269.942 58.064 269.395 58.152 268.771 58.152ZM281.883 58.128C281.643 58.128 281.408 58.0987 281.179 58.04C280.955 57.9813 280.752 57.8773 280.571 57.728C280.395 57.5733 280.256 57.3627 280.155 57.096C280.054 56.8293 280.003 56.4907 280.003 56.08C280.003 55.968 280.003 55.8533 280.003 55.736C280.003 55.6133 280.003 55.4853 280.003 55.352V50.376H277.955V49.504H279.427C279.566 49.504 279.675 49.4987 279.755 49.488C279.835 49.4773 279.891 49.4507 279.923 49.408C279.96 49.3653 279.982 49.2987 279.987 49.208C279.998 49.1173 280.003 48.992 280.003 48.832V46.76H280.995V49.504H283.715V50.376H280.995V55.024C280.995 55.152 280.995 55.2747 280.995 55.392C280.995 55.5093 280.995 55.6187 280.995 55.72C280.995 56.2 281.064 56.576 281.203 56.848C281.347 57.12 281.616 57.256 282.011 57.256C282.16 57.256 282.307 57.2427 282.451 57.216C282.595 57.1893 282.704 57.16 282.779 57.128V57.992C282.688 58.0293 282.563 58.0613 282.403 58.088C282.243 58.1147 282.07 58.128 281.883 58.128ZM285.594 58V49.504H286.586V52.008L286.234 51.896C286.266 51.6293 286.344 51.352 286.466 51.064C286.594 50.7707 286.77 50.496 286.994 50.24C287.218 49.984 287.498 49.7787 287.834 49.624C288.176 49.464 288.581 49.384 289.05 49.384C289.392 49.384 289.666 49.4133 289.874 49.472C290.082 49.5307 290.213 49.576 290.266 49.608L289.994 50.568C289.941 50.5307 289.832 50.4827 289.666 50.424C289.501 50.3653 289.264 50.336 288.954 50.336C288.506 50.336 288.13 50.424 287.826 50.6C287.522 50.7707 287.28 50.9947 287.098 51.272C286.917 51.5493 286.786 51.8453 286.706 52.16C286.626 52.4693 286.586 52.768 286.586 53.056V58H285.594ZM294.639 58.152C293.989 58.152 293.421 58.0533 292.935 57.856C292.45 57.6587 292.074 57.3733 291.807 57C291.546 56.6213 291.415 56.1653 291.415 55.632C291.415 55.0933 291.554 54.6453 291.831 54.288C292.109 53.9253 292.503 53.6427 293.015 53.44C293.533 53.2373 294.143 53.1013 294.847 53.032C295.93 52.92 296.706 52.808 297.175 52.696C297.65 52.5787 297.887 52.392 297.887 52.136C297.887 52.12 297.887 52.104 297.887 52.088C297.887 52.0667 297.887 52.0453 297.887 52.024C297.887 51.4747 297.663 51.048 297.215 50.744C296.767 50.44 296.13 50.288 295.303 50.288C294.439 50.288 293.765 50.4587 293.279 50.8C292.799 51.1413 292.559 51.648 292.559 52.32H291.583C291.583 51.7067 291.738 51.1813 292.047 50.744C292.357 50.3013 292.791 49.9653 293.351 49.736C293.911 49.5013 294.565 49.384 295.311 49.384C295.983 49.384 296.589 49.488 297.127 49.696C297.666 49.904 298.093 50.208 298.407 50.608C298.727 51.0027 298.887 51.4907 298.887 52.072C298.887 52.184 298.887 52.296 298.887 52.408C298.887 52.5147 298.887 52.624 298.887 52.736V56.496C298.887 56.6773 298.895 56.8507 298.911 57.016C298.927 57.1813 298.951 57.3253 298.983 57.448C299.031 57.6027 299.082 57.7253 299.135 57.816C299.189 57.9067 299.231 57.968 299.263 58H298.263C298.242 57.9787 298.207 57.9227 298.159 57.832C298.111 57.736 298.063 57.624 298.015 57.496C297.973 57.3627 297.943 57.2133 297.927 57.048C297.911 56.8827 297.903 56.6827 297.903 56.448L298.063 56.568C297.893 56.8827 297.645 57.16 297.319 57.4C296.994 57.6347 296.605 57.8187 296.151 57.952C295.698 58.0853 295.194 58.152 294.639 58.152ZM294.791 57.264C295.367 57.264 295.887 57.1707 296.351 56.984C296.821 56.792 297.194 56.52 297.471 56.168C297.749 55.8107 297.887 55.3787 297.887 54.872V52.888L298.103 53.256C297.794 53.4107 297.373 53.536 296.839 53.632C296.306 53.7227 295.727 53.7973 295.103 53.856C294.223 53.9413 293.554 54.1093 293.095 54.36C292.642 54.6107 292.415 55.0187 292.415 55.584C292.415 56.128 292.615 56.544 293.015 56.832C293.415 57.12 294.007 57.264 294.791 57.264ZM302.343 58V50.376H300.455V49.504H302.343V48.328C302.343 48.008 302.375 47.7013 302.439 47.408C302.508 47.1147 302.61 46.8453 302.743 46.6C302.882 46.3493 303.055 46.1333 303.263 45.952C303.476 45.7707 303.73 45.6293 304.023 45.528C304.316 45.4267 304.65 45.376 305.023 45.376C305.252 45.376 305.442 45.392 305.591 45.424C305.74 45.4507 305.842 45.4773 305.895 45.504V46.376C305.826 46.3547 305.719 46.3307 305.575 46.304C305.431 46.2773 305.276 46.264 305.111 46.264C304.732 46.264 304.426 46.328 304.191 46.456C303.956 46.584 303.775 46.7547 303.647 46.968C303.524 47.1813 303.442 47.4213 303.399 47.688C303.356 47.9493 303.335 48.216 303.335 48.488V49.504H305.847V50.376H303.335V58H302.343ZM308.567 58V50.376H306.679V49.504H308.567V48.328C308.567 48.008 308.599 47.7013 308.663 47.408C308.732 47.1147 308.834 46.8453 308.967 46.6C309.106 46.3493 309.279 46.1333 309.487 45.952C309.7 45.7707 309.954 45.6293 310.247 45.528C310.54 45.4267 310.874 45.376 311.247 45.376C311.476 45.376 311.666 45.392 311.815 45.424C311.964 45.4507 312.066 45.4773 312.119 45.504V46.376C312.05 46.3547 311.943 46.3307 311.799 46.304C311.655 46.2773 311.5 46.264 311.335 46.264C310.956 46.264 310.65 46.328 310.415 46.456C310.18 46.584 309.999 46.7547 309.871 46.968C309.748 47.1813 309.666 47.4213 309.623 47.688C309.58 47.9493 309.559 48.216 309.559 48.488V49.504H312.071V50.376H309.559V58H308.567ZM313.919 58V49.504H314.895V58H313.919ZM314.415 47.36C314.207 47.36 314.028 47.3013 313.879 47.184C313.73 47.0613 313.655 46.8987 313.655 46.696C313.655 46.4987 313.73 46.3413 313.879 46.224C314.028 46.1013 314.207 46.04 314.415 46.04C314.618 46.04 314.794 46.1013 314.943 46.224C315.092 46.3413 315.167 46.4987 315.167 46.696C315.167 46.8987 315.092 47.0613 314.943 47.184C314.794 47.3013 314.618 47.36 314.415 47.36ZM321.568 58.152C320.789 58.152 320.077 57.9787 319.432 57.632C318.787 57.28 318.269 56.776 317.88 56.12C317.496 55.464 317.304 54.6747 317.304 53.752C317.304 52.8293 317.496 52.0427 317.88 51.392C318.269 50.7413 318.787 50.2453 319.432 49.904C320.077 49.5573 320.789 49.384 321.568 49.384C322.165 49.384 322.699 49.4773 323.168 49.664C323.637 49.8453 324.035 50.088 324.36 50.392C324.685 50.6907 324.933 51.0187 325.104 51.376C325.275 51.7333 325.36 52.0853 325.36 52.432C325.36 52.4373 325.36 52.4453 325.36 52.456C325.36 52.4613 325.36 52.4693 325.36 52.48H324.376C324.376 52.4533 324.373 52.424 324.368 52.392C324.368 52.3547 324.365 52.32 324.36 52.288C324.312 51.904 324.16 51.5627 323.904 51.264C323.648 50.9653 323.32 50.728 322.92 50.552C322.52 50.376 322.067 50.288 321.56 50.288C320.989 50.288 320.456 50.4187 319.96 50.68C319.469 50.936 319.072 51.32 318.768 51.832C318.464 52.344 318.312 52.984 318.312 53.752C318.312 54.5147 318.461 55.1573 318.76 55.68C319.064 56.1973 319.461 56.5893 319.952 56.856C320.448 57.1173 320.984 57.248 321.56 57.248C322.189 57.248 322.709 57.144 323.12 56.936C323.531 56.728 323.84 56.4587 324.048 56.128C324.256 55.7973 324.365 55.4533 324.376 55.096H325.36C325.36 55.4533 325.277 55.8133 325.112 56.176C324.952 56.5387 324.712 56.8693 324.392 57.168C324.077 57.4667 323.683 57.7067 323.208 57.888C322.739 58.064 322.192 58.152 321.568 58.152ZM222.628 82L220.156 73.504H221.052L223.404 81.52H223.22L224.868 73.504H225.9L223.988 82H222.628ZM217.028 82L215.092 73.504H216.124L217.796 81.52H217.612L219.94 73.504H220.836L218.396 82H217.028ZM227.932 82V73.504H228.908V82H227.932ZM228.428 71.36C228.22 71.36 228.041 71.3013 227.892 71.184C227.743 71.0613 227.668 70.8987 227.668 70.696C227.668 70.4987 227.743 70.3413 227.892 70.224C228.041 70.1013 228.22 70.04 228.428 70.04C228.631 70.04 228.807 70.1013 228.956 70.224C229.105 70.3413 229.18 70.4987 229.18 70.696C229.18 70.8987 229.105 71.0613 228.956 71.184C228.807 71.3013 228.631 71.36 228.428 71.36ZM234.68 82.128C234.44 82.128 234.205 82.0987 233.976 82.04C233.752 81.9813 233.549 81.8773 233.368 81.728C233.192 81.5733 233.053 81.3627 232.952 81.096C232.85 80.8293 232.8 80.4907 232.8 80.08C232.8 79.968 232.8 79.8533 232.8 79.736C232.8 79.6133 232.8 79.4853 232.8 79.352V74.376H230.752V73.504H232.224C232.362 73.504 232.472 73.4987 232.552 73.488C232.632 73.4773 232.688 73.4507 232.72 73.408C232.757 73.3653 232.778 73.2987 232.784 73.208C232.794 73.1173 232.8 72.992 232.8 72.832V70.76H233.792V73.504H236.512V74.376H233.792V79.024C233.792 79.152 233.792 79.2747 233.792 79.392C233.792 79.5093 233.792 79.6187 233.792 79.72C233.792 80.2 233.861 80.576 234 80.848C234.144 81.12 234.413 81.256 234.808 81.256C234.957 81.256 235.104 81.2427 235.248 81.216C235.392 81.1893 235.501 81.16 235.576 81.128V81.992C235.485 82.0293 235.36 82.0613 235.2 82.088C235.04 82.1147 234.866 82.128 234.68 82.128ZM244.511 82V78.792C244.511 78.632 244.511 78.4453 244.511 78.232C244.511 78.0187 244.511 77.8053 244.511 77.592C244.511 77.3733 244.511 77.184 244.511 77.024C244.511 76.1547 244.317 75.488 243.927 75.024C243.543 74.5547 242.951 74.32 242.151 74.32C241.613 74.32 241.135 74.432 240.719 74.656C240.303 74.88 239.975 75.1787 239.735 75.552C239.501 75.92 239.383 76.328 239.383 76.776L238.727 76.584C238.727 76.0133 238.879 75.4853 239.183 75C239.493 74.5147 239.917 74.1253 240.455 73.832C240.999 73.5333 241.621 73.384 242.319 73.384C243.333 73.384 244.114 73.6907 244.663 74.304C245.218 74.9173 245.495 75.7653 245.495 76.848C245.495 77.136 245.495 77.4613 245.495 77.824C245.495 78.1813 245.495 78.5467 245.495 78.92V82H244.511ZM238.391 82V69.496H239.383V82H238.391ZM248.213 82V73.504H249.189V82H248.213ZM248.709 71.36C248.501 71.36 248.323 71.3013 248.173 71.184C248.024 71.0613 247.949 70.8987 247.949 70.696C247.949 70.4987 248.024 70.3413 248.173 70.224C248.323 70.1013 248.501 70.04 248.709 70.04C248.912 70.04 249.088 70.1013 249.237 70.224C249.387 70.3413 249.461 70.4987 249.461 70.696C249.461 70.8987 249.387 71.0613 249.237 71.184C249.088 71.3013 248.912 71.36 248.709 71.36ZM258.097 82V77.776C258.097 77.5147 258.097 77.3067 258.097 77.152C258.097 76.9973 258.097 76.8453 258.097 76.696C258.097 76.2213 258.012 75.808 257.841 75.456C257.676 75.0987 257.42 74.8213 257.073 74.624C256.726 74.4213 256.281 74.32 255.737 74.32C255.257 74.32 254.806 74.44 254.385 74.68C253.964 74.9147 253.622 75.2347 253.361 75.64C253.105 76.0453 252.977 76.5013 252.977 77.008L252.377 76.784C252.377 76.1387 252.542 75.56 252.873 75.048C253.209 74.536 253.646 74.1307 254.185 73.832C254.729 73.5333 255.305 73.384 255.913 73.384C256.558 73.384 257.118 73.5067 257.593 73.752C258.068 73.992 258.433 74.3413 258.689 74.8C258.95 75.2533 259.081 75.8053 259.081 76.456C259.081 76.68 259.081 76.92 259.081 77.176C259.081 77.432 259.081 77.664 259.081 77.872V82H258.097ZM251.985 82V73.504H252.977V82H251.985ZM269.951 75.784C270.437 75.8 270.823 75.936 271.111 76.192C271.399 76.4427 271.605 76.7733 271.727 77.184C271.855 77.5893 271.919 78.0347 271.919 78.52C271.919 79.2187 271.805 79.8427 271.575 80.392C271.346 80.936 270.997 81.3653 270.527 81.68C270.063 81.9947 269.477 82.152 268.767 82.152C268.186 82.152 267.687 82.0747 267.271 81.92C266.861 81.76 266.525 81.5253 266.263 81.216C266.002 80.9013 265.807 80.5147 265.679 80.056C265.557 79.5973 265.495 79.0693 265.495 78.472C265.495 78.4667 265.495 78.4613 265.495 78.456C265.495 78.4507 265.495 78.4453 265.495 78.44H266.487C266.487 78.4453 266.487 78.4507 266.487 78.456C266.487 78.4613 266.487 78.4667 266.487 78.472C266.487 79.1813 266.578 79.7413 266.759 80.152C266.941 80.5573 267.202 80.848 267.543 81.024C267.885 81.1947 268.295 81.28 268.775 81.28C269.442 81.28 269.965 81.0427 270.343 80.568C270.727 80.0933 270.919 79.4027 270.919 78.496C270.919 78.2187 270.89 77.9467 270.831 77.68C270.778 77.408 270.677 77.1627 270.527 76.944C270.378 76.7253 270.162 76.552 269.879 76.424C269.602 76.2907 269.239 76.224 268.791 76.224H268.335V75.408H268.791C269.223 75.408 269.578 75.3467 269.855 75.224C270.133 75.096 270.349 74.928 270.503 74.72C270.658 74.5067 270.765 74.272 270.823 74.016C270.887 73.76 270.919 73.504 270.919 73.248C270.919 72.4693 270.73 71.8933 270.351 71.52C269.973 71.1467 269.455 70.96 268.799 70.96C268.09 70.96 267.527 71.16 267.111 71.56C266.695 71.96 266.487 72.64 266.487 73.6H265.495C265.495 73.0613 265.562 72.576 265.695 72.144C265.834 71.7067 266.039 71.3333 266.311 71.024C266.589 70.7147 266.933 70.48 267.343 70.32C267.754 70.1547 268.234 70.072 268.783 70.072C269.487 70.072 270.071 70.2053 270.535 70.472C270.999 70.7333 271.346 71.1013 271.575 71.576C271.805 72.0453 271.919 72.5893 271.919 73.208C271.919 73.64 271.855 74.0507 271.727 74.44C271.605 74.824 271.399 75.1387 271.111 75.384C270.823 75.6293 270.437 75.7627 269.951 75.784ZM283.779 82V78.096C283.779 77.76 283.779 77.4693 283.779 77.224C283.779 76.9733 283.779 76.7653 283.779 76.6C283.779 76.392 283.763 76.16 283.731 75.904C283.699 75.6427 283.624 75.392 283.507 75.152C283.395 74.912 283.216 74.7147 282.971 74.56C282.725 74.4 282.387 74.32 281.955 74.32C281.501 74.32 281.123 74.4107 280.819 74.592C280.515 74.768 280.269 74.9973 280.083 75.28C279.901 75.5627 279.771 75.864 279.691 76.184C279.611 76.504 279.571 76.8053 279.571 77.088L278.979 76.856C278.979 76.2427 279.107 75.6747 279.363 75.152C279.619 74.624 279.981 74.1973 280.451 73.872C280.925 73.5467 281.488 73.384 282.139 73.384C282.763 73.384 283.267 73.5093 283.651 73.76C284.035 74.0053 284.315 74.352 284.491 74.8C284.672 75.2427 284.763 75.7627 284.763 76.36C284.763 76.568 284.763 76.8293 284.763 77.144C284.763 77.4587 284.763 77.8107 284.763 78.2V82H283.779ZM278.579 82V73.504H279.571V82H278.579ZM288.963 82V78.088C288.963 77.7147 288.963 77.4107 288.963 77.176C288.963 76.936 288.963 76.7307 288.963 76.56C288.963 76.3573 288.949 76.1307 288.923 75.88C288.896 75.624 288.824 75.3787 288.707 75.144C288.595 74.9093 288.411 74.7147 288.155 74.56C287.904 74.4 287.552 74.32 287.099 74.32C286.645 74.32 286.267 74.408 285.963 74.584C285.659 74.76 285.419 74.9867 285.243 75.264C285.067 75.536 284.941 75.824 284.867 76.128C284.797 76.4267 284.763 76.6987 284.763 76.944L284.171 76.728C284.171 76.1573 284.293 75.6187 284.539 75.112C284.789 74.6 285.147 74.184 285.611 73.864C286.075 73.544 286.635 73.384 287.291 73.384C287.877 73.384 288.365 73.496 288.755 73.72C289.149 73.944 289.445 74.264 289.643 74.68C289.845 75.096 289.947 75.6027 289.947 76.2C289.947 76.4133 289.947 76.6773 289.947 76.992C289.947 77.3067 289.947 77.6533 289.947 78.032V82H288.963ZM296.466 82.144C295.634 82.144 294.898 81.9547 294.258 81.576C293.618 81.192 293.117 80.6667 292.754 80C292.392 79.3333 292.21 78.5813 292.21 77.744C292.21 76.9013 292.392 76.152 292.754 75.496C293.117 74.84 293.618 74.3253 294.258 73.952C294.898 73.5787 295.634 73.392 296.466 73.392C297.298 73.392 298.034 73.5787 298.674 73.952C299.314 74.3253 299.816 74.84 300.178 75.496C300.541 76.152 300.722 76.9013 300.722 77.744C300.722 78.5813 300.541 79.3333 300.178 80C299.816 80.6667 299.314 81.192 298.674 81.576C298.034 81.9547 297.298 82.144 296.466 82.144ZM296.466 81.24C297.106 81.24 297.669 81.0907 298.154 80.792C298.645 80.4933 299.029 80.08 299.306 79.552C299.584 79.024 299.722 78.4213 299.722 77.744C299.722 77.0613 299.584 76.4613 299.306 75.944C299.029 75.4267 298.645 75.024 298.154 74.736C297.669 74.4427 297.106 74.296 296.466 74.296C295.832 74.296 295.269 74.4427 294.778 74.736C294.288 75.024 293.904 75.4267 293.626 75.944C293.349 76.4613 293.21 77.0613 293.21 77.744C293.21 78.4213 293.349 79.024 293.626 79.552C293.904 80.08 294.288 80.4933 294.778 80.792C295.269 81.0907 295.832 81.24 296.466 81.24ZM309.175 82V77.776C309.175 77.5147 309.175 77.3067 309.175 77.152C309.175 76.9973 309.175 76.8453 309.175 76.696C309.175 76.2213 309.09 75.808 308.919 75.456C308.754 75.0987 308.498 74.8213 308.151 74.624C307.804 74.4213 307.359 74.32 306.815 74.32C306.335 74.32 305.884 74.44 305.463 74.68C305.042 74.9147 304.7 75.2347 304.439 75.64C304.183 76.0453 304.055 76.5013 304.055 77.008L303.455 76.784C303.455 76.1387 303.62 75.56 303.951 75.048C304.287 74.536 304.724 74.1307 305.263 73.832C305.807 73.5333 306.383 73.384 306.991 73.384C307.636 73.384 308.196 73.5067 308.671 73.752C309.146 73.992 309.511 74.3413 309.767 74.8C310.028 75.2533 310.159 75.8053 310.159 76.456C310.159 76.68 310.159 76.92 310.159 77.176C310.159 77.432 310.159 77.664 310.159 77.872V82H309.175ZM303.063 82V73.504H304.055V82H303.063ZM315.57 82.128C315.33 82.128 315.096 82.0987 314.866 82.04C314.642 81.9813 314.44 81.8773 314.258 81.728C314.082 81.5733 313.944 81.3627 313.842 81.096C313.741 80.8293 313.69 80.4907 313.69 80.08C313.69 79.968 313.69 79.8533 313.69 79.736C313.69 79.6133 313.69 79.4853 313.69 79.352V74.376H311.642V73.504H313.114C313.253 73.504 313.362 73.4987 313.442 73.488C313.522 73.4773 313.578 73.4507 313.61 73.408C313.648 73.3653 313.669 73.2987 313.674 73.208C313.685 73.1173 313.69 72.992 313.69 72.832V70.76H314.682V73.504H317.402V74.376H314.682V79.024C314.682 79.152 314.682 79.2747 314.682 79.392C314.682 79.5093 314.682 79.6187 314.682 79.72C314.682 80.2 314.752 80.576 314.89 80.848C315.034 81.12 315.304 81.256 315.698 81.256C315.848 81.256 315.994 81.2427 316.138 81.216C316.282 81.1893 316.392 81.16 316.466 81.128V81.992C316.376 82.0293 316.25 82.0613 316.09 82.088C315.93 82.1147 315.757 82.128 315.57 82.128ZM325.402 82V78.792C325.402 78.632 325.402 78.4453 325.402 78.232C325.402 78.0187 325.402 77.8053 325.402 77.592C325.402 77.3733 325.402 77.184 325.402 77.024C325.402 76.1547 325.207 75.488 324.818 75.024C324.434 74.5547 323.842 74.32 323.042 74.32C322.503 74.32 322.026 74.432 321.61 74.656C321.194 74.88 320.866 75.1787 320.626 75.552C320.391 75.92 320.274 76.328 320.274 76.776L319.618 76.584C319.618 76.0133 319.77 75.4853 320.074 75C320.383 74.5147 320.807 74.1253 321.346 73.832C321.89 73.5333 322.511 73.384 323.21 73.384C324.223 73.384 325.005 73.6907 325.554 74.304C326.109 74.9173 326.386 75.7653 326.386 76.848C326.386 77.136 326.386 77.4613 326.386 77.824C326.386 78.1813 326.386 78.5467 326.386 78.92V82H325.402ZM319.282 82V69.496H320.274V82H319.282ZM332.112 82.152C331.6 82.152 331.133 82.0987 330.712 81.992C330.291 81.8853 329.928 81.7307 329.624 81.528C329.32 81.32 329.083 81.0693 328.912 80.776C328.747 80.4773 328.661 80.136 328.656 79.752C328.651 79.704 328.648 79.656 328.648 79.608C328.648 79.5547 328.648 79.5093 328.648 79.472H329.648C329.648 79.5093 329.648 79.5467 329.648 79.584C329.648 79.616 329.648 79.6587 329.648 79.712C329.664 80.2027 329.888 80.584 330.32 80.856C330.757 81.1227 331.36 81.256 332.128 81.256C332.619 81.256 333.048 81.2027 333.416 81.096C333.789 80.984 334.083 80.8213 334.296 80.608C334.509 80.3893 334.616 80.1253 334.616 79.816C334.616 79.2987 334.392 78.9307 333.944 78.712C333.501 78.488 332.848 78.3013 331.984 78.152C331.536 78.0773 331.117 77.9813 330.728 77.864C330.344 77.7413 330.005 77.5893 329.712 77.408C329.424 77.2213 329.197 76.9893 329.032 76.712C328.867 76.4347 328.784 76.1013 328.784 75.712C328.784 75.216 328.933 74.7947 329.232 74.448C329.531 74.1013 329.931 73.8373 330.432 73.656C330.939 73.4747 331.496 73.384 332.104 73.384C332.707 73.384 333.259 73.4773 333.76 73.664C334.267 73.8453 334.672 74.1173 334.976 74.48C335.28 74.8427 335.432 75.3013 335.432 75.856C335.432 75.8773 335.432 75.904 335.432 75.936C335.432 75.968 335.432 76 335.432 76.032H334.44C334.44 76.0053 334.44 75.9813 334.44 75.96C334.44 75.9333 334.44 75.9093 334.44 75.888C334.44 75.4987 334.331 75.1867 334.112 74.952C333.893 74.7173 333.608 74.5467 333.256 74.44C332.904 74.328 332.528 74.272 332.128 74.272C331.733 74.272 331.355 74.32 330.992 74.416C330.629 74.512 330.333 74.664 330.104 74.872C329.88 75.0747 329.768 75.344 329.768 75.68C329.768 76.016 329.875 76.288 330.088 76.496C330.301 76.6987 330.603 76.864 330.992 76.992C331.381 77.1147 331.835 77.224 332.352 77.32C332.827 77.4053 333.261 77.5093 333.656 77.632C334.051 77.7493 334.392 77.8987 334.68 78.08C334.968 78.2613 335.192 78.4907 335.352 78.768C335.512 79.04 335.592 79.3733 335.592 79.768C335.592 80.1573 335.504 80.5013 335.328 80.8C335.152 81.0933 334.904 81.3413 334.584 81.544C334.269 81.7467 333.901 81.8987 333.48 82C333.059 82.1013 332.603 82.152 332.112 82.152ZM345.795 82.144C344.963 82.144 344.227 81.9547 343.587 81.576C342.947 81.192 342.445 80.6667 342.083 80C341.72 79.3333 341.539 78.5813 341.539 77.744C341.539 76.9013 341.72 76.152 342.083 75.496C342.445 74.84 342.947 74.3253 343.587 73.952C344.227 73.5787 344.963 73.392 345.795 73.392C346.627 73.392 347.363 73.5787 348.003 73.952C348.643 74.3253 349.144 74.84 349.507 75.496C349.869 76.152 350.051 76.9013 350.051 77.744C350.051 78.5813 349.869 79.3333 349.507 80C349.144 80.6667 348.643 81.192 348.003 81.576C347.363 81.9547 346.627 82.144 345.795 82.144ZM345.795 81.24C346.435 81.24 346.997 81.0907 347.483 80.792C347.973 80.4933 348.357 80.08 348.635 79.552C348.912 79.024 349.051 78.4213 349.051 77.744C349.051 77.0613 348.912 76.4613 348.635 75.944C348.357 75.4267 347.973 75.024 347.483 74.736C346.997 74.4427 346.435 74.296 345.795 74.296C345.16 74.296 344.597 74.4427 344.107 74.736C343.616 75.024 343.232 75.4267 342.955 75.944C342.677 76.4613 342.539 77.0613 342.539 77.744C342.539 78.4213 342.677 79.024 342.955 79.552C343.232 80.08 343.616 80.4933 344.107 80.792C344.597 81.0907 345.16 81.24 345.795 81.24ZM353.202 82V74.376H351.314V73.504H353.202V72.328C353.202 72.008 353.234 71.7013 353.298 71.408C353.368 71.1147 353.469 70.8453 353.602 70.6C353.741 70.3493 353.914 70.1333 354.122 69.952C354.336 69.7707 354.589 69.6293 354.882 69.528C355.176 69.4267 355.509 69.376 355.882 69.376C356.112 69.376 356.301 69.392 356.45 69.424C356.6 69.4507 356.701 69.4773 356.754 69.504V70.376C356.685 70.3547 356.578 70.3307 356.434 70.304C356.29 70.2773 356.136 70.264 355.97 70.264C355.592 70.264 355.285 70.328 355.05 70.456C354.816 70.584 354.634 70.7547 354.506 70.968C354.384 71.1813 354.301 71.4213 354.258 71.688C354.216 71.9493 354.194 72.216 354.194 72.488V73.504H356.706V74.376H354.194V82H353.202ZM216.956 93.496V106H215.98V93.496H216.956ZM222.639 106.152C221.989 106.152 221.421 106.053 220.935 105.856C220.45 105.659 220.074 105.373 219.807 105C219.546 104.621 219.415 104.165 219.415 103.632C219.415 103.093 219.554 102.645 219.831 102.288C220.109 101.925 220.503 101.643 221.015 101.44C221.533 101.237 222.143 101.101 222.847 101.032C223.93 100.92 224.706 100.808 225.175 100.696C225.65 100.579 225.887 100.392 225.887 100.136C225.887 100.12 225.887 100.104 225.887 100.088C225.887 100.067 225.887 100.045 225.887 100.024C225.887 99.4747 225.663 99.048 225.215 98.744C224.767 98.44 224.13 98.288 223.303 98.288C222.439 98.288 221.765 98.4587 221.279 98.8C220.799 99.1413 220.559 99.648 220.559 100.32H219.583C219.583 99.7067 219.738 99.1813 220.047 98.744C220.357 98.3013 220.791 97.9653 221.351 97.736C221.911 97.5013 222.565 97.384 223.311 97.384C223.983 97.384 224.589 97.488 225.127 97.696C225.666 97.904 226.093 98.208 226.407 98.608C226.727 99.0027 226.887 99.4907 226.887 100.072C226.887 100.184 226.887 100.296 226.887 100.408C226.887 100.515 226.887 100.624 226.887 100.736V104.496C226.887 104.677 226.895 104.851 226.911 105.016C226.927 105.181 226.951 105.325 226.983 105.448C227.031 105.603 227.082 105.725 227.135 105.816C227.189 105.907 227.231 105.968 227.263 106H226.263C226.242 105.979 226.207 105.923 226.159 105.832C226.111 105.736 226.063 105.624 226.015 105.496C225.973 105.363 225.943 105.213 225.927 105.048C225.911 104.883 225.903 104.683 225.903 104.448L226.063 104.568C225.893 104.883 225.645 105.16 225.319 105.4C224.994 105.635 224.605 105.819 224.151 105.952C223.698 106.085 223.194 106.152 222.639 106.152ZM222.791 105.264C223.367 105.264 223.887 105.171 224.351 104.984C224.821 104.792 225.194 104.52 225.471 104.168C225.749 103.811 225.887 103.379 225.887 102.872V100.888L226.103 101.256C225.794 101.411 225.373 101.536 224.839 101.632C224.306 101.723 223.727 101.797 223.103 101.856C222.223 101.941 221.554 102.109 221.095 102.36C220.642 102.611 220.415 103.019 220.415 103.584C220.415 104.128 220.615 104.544 221.015 104.832C221.415 105.12 222.007 105.264 222.791 105.264ZM232.447 106.144C231.839 106.144 231.335 106.037 230.935 105.824C230.54 105.611 230.231 105.336 230.007 105C229.783 104.659 229.626 104.293 229.535 103.904C229.45 103.515 229.407 103.149 229.407 102.808C229.407 102.605 229.407 102.395 229.407 102.176C229.407 101.957 229.407 101.739 229.407 101.52V97.504H230.407V101.424C230.407 101.627 230.407 101.827 230.407 102.024C230.407 102.221 230.407 102.411 230.407 102.592C230.407 103.045 230.474 103.475 230.607 103.88C230.74 104.28 230.97 104.605 231.295 104.856C231.62 105.107 232.063 105.232 232.623 105.232C233.151 105.232 233.615 105.088 234.015 104.8C234.415 104.512 234.727 104.147 234.951 103.704C235.18 103.256 235.295 102.797 235.295 102.328L235.903 102.576C235.903 103.003 235.823 103.427 235.663 103.848C235.508 104.264 235.282 104.648 234.983 105C234.69 105.347 234.327 105.624 233.895 105.832C233.468 106.04 232.986 106.144 232.447 106.144ZM235.295 106V97.504H236.287V106H235.295ZM245.035 106V101.776C245.035 101.515 245.035 101.307 245.035 101.152C245.035 100.997 245.035 100.845 245.035 100.696C245.035 100.221 244.949 99.808 244.779 99.456C244.613 99.0987 244.357 98.8213 244.011 98.624C243.664 98.4213 243.219 98.32 242.675 98.32C242.195 98.32 241.744 98.44 241.323 98.68C240.901 98.9147 240.56 99.2347 240.299 99.64C240.043 100.045 239.914 100.501 239.914 101.008L239.315 100.784C239.315 100.139 239.48 99.56 239.811 99.048C240.147 98.536 240.584 98.1307 241.123 97.832C241.667 97.5333 242.243 97.384 242.851 97.384C243.496 97.384 244.056 97.5067 244.531 97.752C245.005 97.992 245.371 98.3413 245.627 98.8C245.888 99.2533 246.019 99.8053 246.019 100.456C246.019 100.68 246.019 100.92 246.019 101.176C246.019 101.432 246.019 101.664 246.019 101.872V106H245.035ZM238.923 106V97.504H239.914V106H238.923ZM252.537 106.152C251.758 106.152 251.046 105.979 250.401 105.632C249.756 105.28 249.238 104.776 248.849 104.12C248.465 103.464 248.273 102.675 248.273 101.752C248.273 100.829 248.465 100.043 248.849 99.392C249.238 98.7413 249.756 98.2453 250.401 97.904C251.046 97.5573 251.758 97.384 252.537 97.384C253.134 97.384 253.668 97.4773 254.137 97.664C254.606 97.8453 255.004 98.088 255.329 98.392C255.654 98.6907 255.902 99.0187 256.073 99.376C256.244 99.7333 256.329 100.085 256.329 100.432C256.329 100.437 256.329 100.445 256.329 100.456C256.329 100.461 256.329 100.469 256.329 100.48H255.345C255.345 100.453 255.342 100.424 255.337 100.392C255.337 100.355 255.334 100.32 255.329 100.288C255.281 99.904 255.129 99.5627 254.873 99.264C254.617 98.9653 254.289 98.728 253.889 98.552C253.489 98.376 253.036 98.288 252.529 98.288C251.958 98.288 251.425 98.4187 250.929 98.68C250.438 98.936 250.041 99.32 249.737 99.832C249.433 100.344 249.281 100.984 249.281 101.752C249.281 102.515 249.43 103.157 249.729 103.68C250.033 104.197 250.43 104.589 250.921 104.856C251.417 105.117 251.953 105.248 252.529 105.248C253.158 105.248 253.678 105.144 254.089 104.936C254.5 104.728 254.809 104.459 255.017 104.128C255.225 103.797 255.334 103.453 255.345 103.096H256.329C256.329 103.453 256.246 103.813 256.081 104.176C255.921 104.539 255.681 104.869 255.361 105.168C255.046 105.467 254.652 105.707 254.177 105.888C253.708 106.064 253.161 106.152 252.537 106.152ZM264.793 106V102.792C264.793 102.632 264.793 102.445 264.793 102.232C264.793 102.019 264.793 101.805 264.793 101.592C264.793 101.373 264.793 101.184 264.793 101.024C264.793 100.155 264.598 99.488 264.209 99.024C263.825 98.5547 263.233 98.32 262.433 98.32C261.894 98.32 261.417 98.432 261.001 98.656C260.585 98.88 260.257 99.1787 260.017 99.552C259.782 99.92 259.664 100.328 259.664 100.776L259.009 100.584C259.009 100.013 259.161 99.4853 259.465 99C259.774 98.5147 260.198 98.1253 260.737 97.832C261.281 97.5333 261.902 97.384 262.601 97.384C263.614 97.384 264.395 97.6907 264.945 98.304C265.499 98.9173 265.777 99.7653 265.777 100.848C265.777 101.136 265.777 101.461 265.777 101.824C265.777 102.181 265.777 102.547 265.777 102.92V106H264.793ZM258.673 106V93.496H259.664V106H258.673ZM276.343 106.152C275.692 106.152 275.089 105.995 274.535 105.68C273.98 105.365 273.532 104.939 273.191 104.4C272.855 103.861 272.687 103.256 272.687 102.584C272.687 102.568 272.687 102.555 272.687 102.544C272.687 102.533 272.687 102.523 272.687 102.512L273.423 102.496C273.423 102.507 273.423 102.517 273.423 102.528C273.423 102.539 273.423 102.549 273.423 102.56C273.423 103.04 273.551 103.483 273.807 103.888C274.068 104.293 274.409 104.616 274.831 104.856C275.257 105.096 275.719 105.216 276.215 105.216C277.036 105.216 277.711 104.925 278.239 104.344C278.772 103.757 279.039 102.893 279.039 101.752C279.039 100.605 278.775 99.7413 278.247 99.16C277.719 98.5787 277.041 98.288 276.215 98.288C275.719 98.288 275.257 98.408 274.831 98.648C274.409 98.888 274.068 99.208 273.807 99.608C273.551 100.008 273.423 100.451 273.423 100.936L272.687 100.912C272.687 100.24 272.855 99.6373 273.191 99.104C273.532 98.5707 273.98 98.152 274.535 97.848C275.089 97.5387 275.692 97.384 276.343 97.384C277.031 97.384 277.655 97.5547 278.215 97.896C278.78 98.232 279.228 98.7253 279.559 99.376C279.889 100.027 280.055 100.819 280.055 101.752C280.055 102.696 279.889 103.496 279.559 104.152C279.233 104.808 278.791 105.307 278.231 105.648C277.671 105.984 277.041 106.152 276.343 106.152ZM272.423 106V93.496H273.423V106H272.423ZM286.263 106.144C285.431 106.144 284.695 105.955 284.055 105.576C283.415 105.192 282.914 104.667 282.551 104C282.189 103.333 282.007 102.581 282.007 101.744C282.007 100.901 282.189 100.152 282.551 99.496C282.914 98.84 283.415 98.3253 284.055 97.952C284.695 97.5787 285.431 97.392 286.263 97.392C287.095 97.392 287.831 97.5787 288.471 97.952C289.111 98.3253 289.613 98.84 289.975 99.496C290.338 100.152 290.519 100.901 290.519 101.744C290.519 102.581 290.338 103.333 289.975 104C289.613 104.667 289.111 105.192 288.471 105.576C287.831 105.955 287.095 106.144 286.263 106.144ZM286.263 105.24C286.903 105.24 287.466 105.091 287.951 104.792C288.442 104.493 288.826 104.08 289.103 103.552C289.381 103.024 289.519 102.421 289.519 101.744C289.519 101.061 289.381 100.461 289.103 99.944C288.826 99.4267 288.442 99.024 287.951 98.736C287.466 98.4427 286.903 98.296 286.263 98.296C285.629 98.296 285.066 98.4427 284.575 98.736C284.085 99.024 283.701 99.4267 283.423 99.944C283.146 100.461 283.007 101.061 283.007 101.744C283.007 102.421 283.146 103.024 283.423 103.552C283.701 104.08 284.085 104.493 284.575 104.792C285.066 105.091 285.629 105.24 286.263 105.24ZM296.732 106.144C295.9 106.144 295.164 105.955 294.524 105.576C293.884 105.192 293.383 104.667 293.02 104C292.657 103.333 292.476 102.581 292.476 101.744C292.476 100.901 292.657 100.152 293.02 99.496C293.383 98.84 293.884 98.3253 294.524 97.952C295.164 97.5787 295.9 97.392 296.732 97.392C297.564 97.392 298.3 97.5787 298.94 97.952C299.58 98.3253 300.081 98.84 300.444 99.496C300.807 100.152 300.988 100.901 300.988 101.744C300.988 102.581 300.807 103.333 300.444 104C300.081 104.667 299.58 105.192 298.94 105.576C298.3 105.955 297.564 106.144 296.732 106.144ZM296.732 105.24C297.372 105.24 297.935 105.091 298.42 104.792C298.911 104.493 299.295 104.08 299.572 103.552C299.849 103.024 299.988 102.421 299.988 101.744C299.988 101.061 299.849 100.461 299.572 99.944C299.295 99.4267 298.911 99.024 298.42 98.736C297.935 98.4427 297.372 98.296 296.732 98.296C296.097 98.296 295.535 98.4427 295.044 98.736C294.553 99.024 294.169 99.4267 293.892 99.944C293.615 100.461 293.476 101.061 293.476 101.744C293.476 102.421 293.615 103.024 293.892 103.552C294.169 104.08 294.553 104.493 295.044 104.792C295.535 105.091 296.097 105.24 296.732 105.24ZM306.409 106.152C305.897 106.152 305.43 106.099 305.009 105.992C304.587 105.885 304.225 105.731 303.921 105.528C303.617 105.32 303.379 105.069 303.209 104.776C303.043 104.477 302.958 104.136 302.953 103.752C302.947 103.704 302.945 103.656 302.945 103.608C302.945 103.555 302.945 103.509 302.945 103.472H303.945C303.945 103.509 303.945 103.547 303.945 103.584C303.945 103.616 303.945 103.659 303.945 103.712C303.961 104.203 304.185 104.584 304.617 104.856C305.054 105.123 305.657 105.256 306.425 105.256C306.915 105.256 307.345 105.203 307.713 105.096C308.086 104.984 308.379 104.821 308.593 104.608C308.806 104.389 308.913 104.125 308.913 103.816C308.913 103.299 308.689 102.931 308.241 102.712C307.798 102.488 307.145 102.301 306.281 102.152C305.833 102.077 305.414 101.981 305.025 101.864C304.641 101.741 304.302 101.589 304.009 101.408C303.721 101.221 303.494 100.989 303.329 100.712C303.163 100.435 303.081 100.101 303.081 99.712C303.081 99.216 303.23 98.7947 303.529 98.448C303.827 98.1013 304.227 97.8373 304.729 97.656C305.235 97.4747 305.793 97.384 306.401 97.384C307.003 97.384 307.555 97.4773 308.057 97.664C308.563 97.8453 308.969 98.1173 309.273 98.48C309.577 98.8427 309.729 99.3013 309.729 99.856C309.729 99.8773 309.729 99.904 309.729 99.936C309.729 99.968 309.729 100 309.729 100.032H308.737C308.737 100.005 308.737 99.9813 308.737 99.96C308.737 99.9333 308.737 99.9093 308.737 99.888C308.737 99.4987 308.627 99.1867 308.409 98.952C308.19 98.7173 307.905 98.5467 307.553 98.44C307.201 98.328 306.825 98.272 306.425 98.272C306.03 98.272 305.651 98.32 305.289 98.416C304.926 98.512 304.63 98.664 304.401 98.872C304.177 99.0747 304.065 99.344 304.065 99.68C304.065 100.016 304.171 100.288 304.385 100.496C304.598 100.699 304.899 100.864 305.289 100.992C305.678 101.115 306.131 101.224 306.649 101.32C307.123 101.405 307.558 101.509 307.953 101.632C308.347 101.749 308.689 101.899 308.977 102.08C309.265 102.261 309.489 102.491 309.649 102.768C309.809 103.04 309.889 103.373 309.889 103.768C309.889 104.157 309.801 104.501 309.625 104.8C309.449 105.093 309.201 105.341 308.881 105.544C308.566 105.747 308.198 105.899 307.777 106C307.355 106.101 306.899 106.152 306.409 106.152ZM314.992 106.128C314.752 106.128 314.518 106.099 314.288 106.04C314.064 105.981 313.862 105.877 313.68 105.728C313.504 105.573 313.366 105.363 313.264 105.096C313.163 104.829 313.112 104.491 313.112 104.08C313.112 103.968 313.112 103.853 313.112 103.736C313.112 103.613 313.112 103.485 313.112 103.352V98.376H311.064V97.504H312.536C312.675 97.504 312.784 97.4987 312.864 97.488C312.944 97.4773 313 97.4507 313.032 97.408C313.07 97.3653 313.091 97.2987 313.096 97.208C313.107 97.1173 313.112 96.992 313.112 96.832V94.76H314.104V97.504H316.824V98.376H314.104V103.024C314.104 103.152 314.104 103.275 314.104 103.392C314.104 103.509 314.104 103.619 314.104 103.72C314.104 104.2 314.174 104.576 314.312 104.848C314.456 105.12 314.726 105.256 315.12 105.256C315.27 105.256 315.416 105.243 315.56 105.216C315.704 105.189 315.814 105.16 315.888 105.128V105.992C315.798 106.029 315.672 106.061 315.512 106.088C315.352 106.115 315.179 106.128 314.992 106.128ZM318.776 106V97.504H319.752V106H318.776ZM319.272 95.36C319.064 95.36 318.885 95.3013 318.736 95.184C318.586 95.0613 318.512 94.8987 318.512 94.696C318.512 94.4987 318.586 94.3413 318.736 94.224C318.885 94.1013 319.064 94.04 319.272 94.04C319.474 94.04 319.65 94.1013 319.8 94.224C319.949 94.3413 320.024 94.4987 320.024 94.696C320.024 94.8987 319.949 95.0613 319.8 95.184C319.65 95.3013 319.474 95.36 319.272 95.36ZM328.66 106V101.776C328.66 101.515 328.66 101.307 328.66 101.152C328.66 100.997 328.66 100.845 328.66 100.696C328.66 100.221 328.574 99.808 328.404 99.456C328.238 99.0987 327.982 98.8213 327.636 98.624C327.289 98.4213 326.844 98.32 326.3 98.32C325.82 98.32 325.369 98.44 324.948 98.68C324.526 98.9147 324.185 99.2347 323.924 99.64C323.668 100.045 323.539 100.501 323.539 101.008L322.94 100.784C322.94 100.139 323.105 99.56 323.436 99.048C323.772 98.536 324.209 98.1307 324.748 97.832C325.292 97.5333 325.868 97.384 326.476 97.384C327.121 97.384 327.681 97.5067 328.156 97.752C328.63 97.992 328.996 98.3413 329.252 98.8C329.513 99.2533 329.644 99.8053 329.644 100.456C329.644 100.68 329.644 100.92 329.644 101.176C329.644 101.432 329.644 101.664 329.644 101.872V106H328.66ZM322.548 106V97.504H323.539V106H322.548ZM337.49 105.64C337.927 105.672 338.314 105.752 338.65 105.88C338.986 106.008 339.247 106.192 339.434 106.432C339.626 106.677 339.722 106.992 339.722 107.376C339.722 107.803 339.575 108.184 339.282 108.52C338.989 108.856 338.538 109.12 337.93 109.312C337.322 109.509 336.546 109.608 335.602 109.608C334.29 109.608 333.309 109.411 332.658 109.016C332.007 108.621 331.682 108.101 331.682 107.456C331.682 107.232 331.706 107.037 331.754 106.872C331.807 106.712 331.866 106.584 331.93 106.488L332.874 106.632C332.826 106.701 332.781 106.8 332.738 106.928C332.695 107.061 332.674 107.216 332.674 107.392C332.674 107.867 332.93 108.219 333.442 108.448C333.959 108.677 334.701 108.792 335.666 108.792C336.397 108.792 336.989 108.731 337.442 108.608C337.901 108.491 338.239 108.328 338.458 108.12C338.677 107.912 338.786 107.683 338.786 107.432C338.786 107.048 338.629 106.795 338.314 106.672C338.005 106.555 337.618 106.477 337.154 106.44L333.914 106.208C333.391 106.165 332.97 106.016 332.65 105.76C332.33 105.499 332.17 105.171 332.17 104.776C332.17 104.536 332.229 104.312 332.346 104.104C332.469 103.896 332.61 103.723 332.77 103.584C332.935 103.445 333.082 103.36 333.21 103.328L334.002 103.712C333.858 103.739 333.682 103.835 333.474 104C333.266 104.165 333.162 104.368 333.162 104.608C333.162 104.821 333.25 104.997 333.426 105.136C333.607 105.275 333.935 105.363 334.41 105.4L337.49 105.64ZM338.746 97.504H339.682L339.33 100.872C339.266 101.501 339.087 102.072 338.794 102.584C338.501 103.096 338.093 103.504 337.57 103.808C337.047 104.107 336.407 104.256 335.65 104.256C334.866 104.256 334.197 104.104 333.642 103.8C333.093 103.496 332.671 103.088 332.378 102.576C332.09 102.059 331.946 101.483 331.946 100.848C331.946 100.203 332.101 99.6187 332.41 99.096C332.719 98.5733 333.149 98.1573 333.698 97.848C334.247 97.5387 334.882 97.384 335.602 97.384C336.269 97.384 336.842 97.504 337.322 97.744C337.802 97.984 338.178 98.28 338.45 98.632C338.727 98.984 338.885 99.3307 338.922 99.672H338.562L338.746 97.504ZM335.65 103.368C336.221 103.368 336.709 103.264 337.114 103.056C337.519 102.843 337.829 102.547 338.042 102.168C338.261 101.784 338.37 101.333 338.37 100.816C338.37 100.32 338.261 99.8827 338.042 99.504C337.829 99.12 337.519 98.8187 337.114 98.6C336.709 98.3813 336.223 98.272 335.658 98.272C335.119 98.272 334.642 98.384 334.226 98.608C333.815 98.832 333.495 99.1387 333.266 99.528C333.037 99.912 332.922 100.349 332.922 100.84C332.922 101.341 333.029 101.784 333.242 102.168C333.461 102.547 333.773 102.843 334.178 103.056C334.589 103.264 335.079 103.368 335.65 103.368ZM222.3 121.504L219.364 130H218.1L215.092 121.504H216.116L218.812 129.416H218.652L221.276 121.504H222.3ZM224.338 130V121.504H225.314V130H224.338ZM224.834 119.36C224.626 119.36 224.448 119.301 224.298 119.184C224.149 119.061 224.074 118.899 224.074 118.696C224.074 118.499 224.149 118.341 224.298 118.224C224.448 118.101 224.626 118.04 224.834 118.04C225.037 118.04 225.213 118.101 225.362 118.224C225.512 118.341 225.586 118.499 225.586 118.696C225.586 118.899 225.512 119.061 225.362 119.184C225.213 119.301 225.037 119.36 224.834 119.36ZM231.19 130.152C230.678 130.152 230.211 130.099 229.79 129.992C229.369 129.885 229.006 129.731 228.702 129.528C228.398 129.32 228.161 129.069 227.99 128.776C227.825 128.477 227.739 128.136 227.734 127.752C227.729 127.704 227.726 127.656 227.726 127.608C227.726 127.555 227.726 127.509 227.726 127.472H228.726C228.726 127.509 228.726 127.547 228.726 127.584C228.726 127.616 228.726 127.659 228.726 127.712C228.742 128.203 228.966 128.584 229.398 128.856C229.835 129.123 230.438 129.256 231.206 129.256C231.697 129.256 232.126 129.203 232.494 129.096C232.867 128.984 233.161 128.821 233.374 128.608C233.587 128.389 233.694 128.125 233.694 127.816C233.694 127.299 233.47 126.931 233.022 126.712C232.579 126.488 231.926 126.301 231.062 126.152C230.614 126.077 230.195 125.981 229.806 125.864C229.422 125.741 229.083 125.589 228.79 125.408C228.502 125.221 228.275 124.989 228.11 124.712C227.945 124.435 227.862 124.101 227.862 123.712C227.862 123.216 228.011 122.795 228.31 122.448C228.609 122.101 229.009 121.837 229.51 121.656C230.017 121.475 230.574 121.384 231.182 121.384C231.785 121.384 232.337 121.477 232.838 121.664C233.345 121.845 233.75 122.117 234.054 122.48C234.358 122.843 234.51 123.301 234.51 123.856C234.51 123.877 234.51 123.904 234.51 123.936C234.51 123.968 234.51 124 234.51 124.032H233.518C233.518 124.005 233.518 123.981 233.518 123.96C233.518 123.933 233.518 123.909 233.518 123.888C233.518 123.499 233.409 123.187 233.19 122.952C232.971 122.717 232.686 122.547 232.334 122.44C231.982 122.328 231.606 122.272 231.206 122.272C230.811 122.272 230.433 122.32 230.07 122.416C229.707 122.512 229.411 122.664 229.182 122.872C228.958 123.075 228.846 123.344 228.846 123.68C228.846 124.016 228.953 124.288 229.166 124.496C229.379 124.699 229.681 124.864 230.07 124.992C230.459 125.115 230.913 125.224 231.43 125.32C231.905 125.405 232.339 125.509 232.734 125.632C233.129 125.749 233.47 125.899 233.758 126.08C234.046 126.261 234.27 126.491 234.43 126.768C234.59 127.04 234.67 127.373 234.67 127.768C234.67 128.157 234.582 128.501 234.406 128.8C234.23 129.093 233.982 129.341 233.662 129.544C233.347 129.747 232.979 129.899 232.558 130C232.137 130.101 231.681 130.152 231.19 130.152ZM237.073 130V121.504H238.049V130H237.073ZM237.569 119.36C237.361 119.36 237.182 119.301 237.033 119.184C236.883 119.061 236.809 118.899 236.809 118.696C236.809 118.499 236.883 118.341 237.033 118.224C237.182 118.101 237.361 118.04 237.569 118.04C237.771 118.04 237.947 118.101 238.097 118.224C238.246 118.341 238.321 118.499 238.321 118.696C238.321 118.899 238.246 119.061 238.097 119.184C237.947 119.301 237.771 119.36 237.569 119.36ZM244.764 130.152C244.114 130.152 243.511 129.995 242.956 129.68C242.402 129.365 241.954 128.939 241.612 128.4C241.276 127.861 241.108 127.256 241.108 126.584C241.108 126.568 241.108 126.555 241.108 126.544C241.108 126.533 241.108 126.523 241.108 126.512L241.844 126.496C241.844 126.507 241.844 126.517 241.844 126.528C241.844 126.539 241.844 126.549 241.844 126.56C241.844 127.04 241.972 127.483 242.228 127.888C242.49 128.293 242.831 128.616 243.252 128.856C243.679 129.096 244.14 129.216 244.636 129.216C245.458 129.216 246.132 128.925 246.66 128.344C247.194 127.757 247.46 126.893 247.46 125.752C247.46 124.605 247.196 123.741 246.668 123.16C246.14 122.579 245.463 122.288 244.636 122.288C244.14 122.288 243.679 122.408 243.252 122.648C242.831 122.888 242.49 123.208 242.228 123.608C241.972 124.008 241.844 124.451 241.844 124.936L241.108 124.912C241.108 124.24 241.276 123.637 241.612 123.104C241.954 122.571 242.402 122.152 242.956 121.848C243.511 121.539 244.114 121.384 244.764 121.384C245.452 121.384 246.076 121.555 246.636 121.896C247.202 122.232 247.65 122.725 247.98 123.376C248.311 124.027 248.476 124.819 248.476 125.752C248.476 126.696 248.311 127.496 247.98 128.152C247.655 128.808 247.212 129.307 246.652 129.648C246.092 129.984 245.463 130.152 244.764 130.152ZM240.844 130V117.496H241.844V130H240.844ZM250.885 130V121.504H251.861V130H250.885ZM251.381 119.36C251.173 119.36 250.994 119.301 250.845 119.184C250.696 119.061 250.621 118.899 250.621 118.696C250.621 118.499 250.696 118.341 250.845 118.224C250.994 118.101 251.173 118.04 251.381 118.04C251.584 118.04 251.76 118.101 251.909 118.224C252.058 118.341 252.133 118.499 252.133 118.696C252.133 118.899 252.058 119.061 251.909 119.184C251.76 119.301 251.584 119.36 251.381 119.36ZM255.753 117.496V130H254.777V117.496H255.753ZM258.588 130V121.504H259.564V130H258.588ZM259.084 119.36C258.876 119.36 258.698 119.301 258.548 119.184C258.399 119.061 258.324 118.899 258.324 118.696C258.324 118.499 258.399 118.341 258.548 118.224C258.698 118.101 258.876 118.04 259.084 118.04C259.287 118.04 259.463 118.101 259.612 118.224C259.762 118.341 259.836 118.499 259.836 118.696C259.836 118.899 259.762 119.061 259.612 119.184C259.463 119.301 259.287 119.36 259.084 119.36ZM265.336 130.128C265.096 130.128 264.861 130.099 264.632 130.04C264.408 129.981 264.205 129.877 264.024 129.728C263.848 129.573 263.709 129.363 263.608 129.096C263.507 128.829 263.456 128.491 263.456 128.08C263.456 127.968 263.456 127.853 263.456 127.736C263.456 127.613 263.456 127.485 263.456 127.352V122.376H261.408V121.504H262.88C263.019 121.504 263.128 121.499 263.208 121.488C263.288 121.477 263.344 121.451 263.376 121.408C263.413 121.365 263.435 121.299 263.44 121.208C263.451 121.117 263.456 120.992 263.456 120.832V118.76H264.448V121.504H267.168V122.376H264.448V127.024C264.448 127.152 264.448 127.275 264.448 127.392C264.448 127.509 264.448 127.619 264.448 127.72C264.448 128.2 264.517 128.576 264.656 128.848C264.8 129.12 265.069 129.256 265.464 129.256C265.613 129.256 265.76 129.243 265.904 129.216C266.048 129.189 266.157 129.16 266.232 129.128V129.992C266.141 130.029 266.016 130.061 265.856 130.088C265.696 130.115 265.523 130.128 265.336 130.128ZM269.112 133.552C268.914 133.552 268.733 133.539 268.568 133.512C268.408 133.491 268.306 133.469 268.264 133.448V132.576C268.333 132.608 268.445 132.635 268.6 132.656C268.76 132.683 268.912 132.696 269.056 132.696C269.424 132.696 269.728 132.611 269.968 132.44C270.213 132.275 270.416 132.053 270.576 131.776C270.736 131.499 270.872 131.2 270.984 130.88L271.28 130.024L268.296 121.504H269.336L271.896 129.112H271.752L274.28 121.504H275.296L272.064 130.832C271.904 131.296 271.712 131.736 271.488 132.152C271.264 132.568 270.965 132.904 270.592 133.16C270.218 133.421 269.725 133.552 269.112 133.552Z" fill="#101113"/>
<defs>
<filter id="filter0_dddd_2327_6166" x="0.5" y="3" width="220" height="270" filterUnits="userSpaceOnUse" color-interpolation-filters="sRGB">
<feFlood flood-opacity="0" result="BackgroundImageFix"/>
<feColorMatrix in="SourceAlpha" type="matrix" values="0 0 0 0 0 0 0 0 0 0 0 0 0 0 0 0 0 0 127 0" result="hardAlpha"/>
<feOffset dy="5"/>
<feGaussianBlur stdDeviation="5"/>
<feColorMatrix type="matrix" values="0 0 0 0 0 0 0 0 0 0 0 0 0 0 0 0 0 0 0.05 0"/>
<feBlend mode="normal" in2="BackgroundImageFix" result="effect1_dropShadow_2327_6166"/>
<feColorMatrix in="SourceAlpha" type="matrix" values="0 0 0 0 0 0 0 0 0 0 0 0 0 0 0 0 0 0 127 0" result="hardAlpha"/>
<feOffset dy="19"/>
<feGaussianBlur stdDeviation="9.5"/>
<feColorMatrix type="matrix" values="0 0 0 0 0 0 0 0 0 0 0 0 0 0 0 0 0 0 0.04 0"/>
<feBlend mode="normal" in2="effect1_dropShadow_2327_6166" result="effect2_dropShadow_2327_6166"/>
<feColorMatrix in="SourceAlpha" type="matrix" values="0 0 0 0 0 0 0 0 0 0 0 0 0 0 0 0 0 0 127 0" result="hardAlpha"/>
<feOffset dy="42"/>
<feGaussianBlur stdDeviation="12.5"/>
<feColorMatrix type="matrix" values="0 0 0 0 0 0 0 0 0 0 0 0 0 0 0 0 0 0 0.03 0"/>
<feBlend mode="normal" in2="effect2_dropShadow_2327_6166" result="effect3_dropShadow_2327_6166"/>
<feColorMatrix in="SourceAlpha" type="matrix" values="0 0 0 0 0 0 0 0 0 0 0 0 0 0 0 0 0 0 127 0" result="hardAlpha"/>
<feOffset dy="75"/>
<feGaussianBlur stdDeviation="15"/>
<feColorMatrix type="matrix" values="0 0 0 0 0 0 0 0 0 0 0 0 0 0 0 0 0 0 0.01 0"/>
<feBlend mode="normal" in2="effect3_dropShadow_2327_6166" result="effect4_dropShadow_2327_6166"/>
<feBlend mode="normal" in="SourceGraphic" in2="effect4_dropShadow_2327_6166" result="shape"/>
</filter>
<linearGradient id="paint0_linear_2327_6166" x1="110.5" y1="36.4848" x2="110.5" y2="242.545" gradientUnits="userSpaceOnUse">
<stop stop-color="white"/>
<stop offset="1" stop-color="#0091FB"/>
</linearGradient>
</defs>
</svg>
