<svg width="36" height="35" viewBox="0 0 36 35" fill="none" xmlns="http://www.w3.org/2000/svg">
<path d="M20.25 21.75C19.6504 22.2168 18.8627 22.5 18 22.5C17.1373 22.5 16.3496 22.2168 15.75 21.75" stroke="#0B9FF0" stroke-width="1.125" stroke-linecap="round"/>
<path d="M10.7635 18.9101C10.4988 17.1871 10.3664 16.3257 10.6921 15.562C11.0179 14.7983 11.7405 14.2758 13.1859 13.2308L14.2657 12.45C16.0637 11.15 16.9627 10.5 18 10.5C19.0373 10.5 19.9363 11.15 21.7343 12.45L22.8141 13.2308C24.2595 14.2758 24.9821 14.7983 25.3079 15.562C25.6336 16.3257 25.5012 17.1871 25.2365 18.9101L25.0107 20.3793C24.6353 22.8217 24.4477 24.0429 23.5718 24.7714C22.6958 25.5 21.4152 25.5 18.8541 25.5H17.1459C14.5848 25.5 13.3042 25.5 12.4282 24.7714C11.5523 24.0429 11.3647 22.8217 10.9893 20.3793L10.7635 18.9101Z" stroke="#0B9FF0" stroke-width="1.125" stroke-linejoin="round"/>
</svg>
