<svg width="14" height="18" viewBox="0 0 14 18" fill="none" xmlns="http://www.w3.org/2000/svg">
<g clip-path="url(#clip0_2078_3765)">
<path d="M6.07178 17.5676C5.51259 17.5676 4.47236 17.4112 4.03773 16.3217C3.51907 15.0265 1.91675 14.0124 1.51689 13.8125C1.12283 13.6154 0.63025 12.9809 0.760638 12.4361C0.838871 12.1116 1.14311 11.7234 2.16593 11.7234C3.22642 11.7234 3.88996 11.9725 4.28402 12.213V5.63278C4.28402 5.17496 4.55928 4.30859 5.6082 4.30859C6.93235 4.30859 6.93235 5.38069 6.93235 5.89642V9.99931C6.93235 10.1442 6.81355 10.263 6.66867 10.263C6.52382 10.263 6.40498 10.1442 6.40498 9.99931V5.89642C6.40498 5.25607 6.34997 4.83595 5.61106 4.83595C4.84033 4.83595 4.81714 5.54872 4.81714 5.62987V12.3608C4.81714 12.5289 4.72444 12.6824 4.57667 12.7578C4.426 12.836 4.24635 12.8244 4.10727 12.7259C3.80013 12.5085 3.21483 12.2507 2.16883 12.2507C1.65018 12.2507 1.32565 12.3637 1.2793 12.5578C1.21845 12.8157 1.53428 13.2271 1.75738 13.3372C2.29632 13.6067 3.96239 14.6962 4.5332 16.1247C4.95912 17.1909 6.21667 17.0432 6.35574 17.0229C6.37602 17.02 6.3963 17.02 6.41657 17.02H10.6383C10.6933 17.02 12.0059 16.9939 12.2319 15.6523C12.4898 14.1022 12.4927 10.1761 12.4927 10.1355C12.4898 10.0254 12.4521 9.47485 11.8321 9.47485C11.2844 9.47485 11.1106 9.62265 11.0178 9.84287C10.9425 10.0225 10.9049 10.2833 10.9049 10.6657V12.2536C10.9049 12.3985 10.7861 12.5173 10.6412 12.5173C10.4963 12.5173 10.3775 12.3985 10.3775 12.2536V10.6657C10.3775 10.2108 10.4268 9.88342 10.5311 9.63711C10.7947 9.01704 11.4003 8.94461 11.8349 8.94461C12.71 8.94461 13.0258 9.65743 13.0258 10.1355C13.0258 10.2978 13.0229 14.1486 12.7564 15.7393C12.5187 17.1707 11.2699 17.5502 10.6412 17.5502H6.41948C6.37024 17.5532 6.24272 17.5676 6.07178 17.5676Z" fill="url(#paint0_linear_2078_3765)"/>
<path d="M10.6381 11.3251C10.4932 11.3251 10.3744 11.2063 10.3744 11.0614V9.60393C10.3744 8.74046 10.0239 8.67672 9.44727 8.67672C8.80401 8.67672 8.7866 9.27073 8.7866 9.33734V10.9252C8.7866 11.0701 8.66781 11.1889 8.52296 11.1889C8.37807 11.1889 8.25928 11.0701 8.25928 10.9252V9.33734C8.25928 8.85925 8.57798 8.14648 9.45014 8.14648C10.1716 8.14648 10.9076 8.32033 10.9076 9.60393V11.0614C10.9018 11.2063 10.783 11.3251 10.6381 11.3251Z" fill="#0B9FF0"/>
<path d="M6.66603 11.1907C6.52118 11.1907 6.40235 11.0719 6.40235 10.927V8.80897C6.40235 8.44386 6.67763 7.74846 7.72654 7.74846C8.56393 7.74846 8.78701 8.61484 8.78701 9.07266V10.617C8.78701 10.7619 8.66822 10.8807 8.52333 10.8807C8.37848 10.8807 8.25969 10.7619 8.25969 10.617V9.07266C8.25969 9.04079 8.24809 8.27874 7.72941 8.27874C6.94422 8.27874 6.93549 8.78579 6.93549 8.80897V10.927C6.92972 11.0719 6.81383 11.1907 6.66603 11.1907ZM3.75404 7.16608C3.6845 7.16608 3.61496 7.13999 3.5657 7.08493C3.04415 6.54892 2.75439 5.84193 2.75439 5.10015C2.75439 3.5268 4.0351 2.24609 5.60843 2.24609C7.18181 2.24609 8.4625 3.5268 8.4625 5.10015C8.4625 5.84193 8.17563 6.54892 7.65121 7.08493C7.54979 7.18926 7.38171 7.19217 7.27742 7.09075C7.17312 6.98932 7.17022 6.82129 7.27164 6.71695C7.69754 6.27942 7.93226 5.70572 7.93226 5.10015C7.93226 3.81945 6.88916 2.77634 5.60843 2.77634C4.32775 2.77634 3.28464 3.81945 3.28464 5.10015C3.28464 5.70281 3.51934 6.27655 3.94527 6.71695C4.04669 6.82129 4.04379 6.98932 3.93948 7.09075C3.88733 7.13999 3.82068 7.16608 3.75404 7.16608Z" fill="#0B9FF0"/>
<path d="M3.75331 9.17241C3.71564 9.17241 3.67508 9.16373 3.63741 9.14632C2.07565 8.38431 1.10498 6.83412 1.10498 5.10139C1.10498 2.61823 3.12455 0.601562 5.60481 0.601562C8.08799 0.601562 10.1047 2.62113 10.1047 5.10139C10.1047 5.94459 9.86996 6.76747 9.42374 7.47737C9.3455 7.60194 9.18324 7.63963 9.05867 7.56139C8.93406 7.48315 8.89641 7.32089 8.97461 7.19632C9.36578 6.56757 9.57441 5.84316 9.57441 5.09852C9.57441 2.90799 7.79244 1.12601 5.60194 1.12601C3.4114 1.12601 1.62943 2.90799 1.62943 5.09852C1.62943 6.6284 2.4842 7.99601 3.86341 8.66823C3.9938 8.73201 4.04886 8.89136 3.98511 9.02175C3.94455 9.11736 3.85182 9.17241 3.75331 9.17241Z" fill="url(#paint1_linear_2078_3765)"/>
</g>
<defs>
<linearGradient id="paint0_linear_2078_3765" x1="3.16502" y1="5.05139" x2="8.79139" y2="15.6563" gradientUnits="userSpaceOnUse">
<stop offset="0.00899963" stop-color="#89C3FE"/>
<stop offset="0.815916" stop-color="#0B9FF0"/>
<stop offset="0.964" stop-color="#0679B8"/>
</linearGradient>
<linearGradient id="paint1_linear_2078_3765" x1="2.8818" y1="1.08172" x2="6.25534" y2="8.28696" gradientUnits="userSpaceOnUse">
<stop offset="0.00899963" stop-color="#89C3FE"/>
<stop offset="0.454" stop-color="#0B9FF0"/>
<stop offset="0.964" stop-color="#0679B8"/>
</linearGradient>
<clipPath id="clip0_2078_3765">
<rect width="12.5217" height="16.9649" fill="white" transform="translate(0.739258 0.601562)"/>
</clipPath>
</defs>
</svg>
