<svg width="462" height="274" viewBox="0 0 462 274" fill="none" xmlns="http://www.w3.org/2000/svg">
<g filter="url(#filter0_dddd_2327_5820)">
<rect x="52.5" y="8.97656" width="160" height="160" rx="80" fill="white"/>
<rect x="53" y="9.47656" width="159" height="159" rx="79.5" stroke="url(#paint0_linear_2327_5820)"/>
<path d="M81.54 103.577V90.7766H68.74V86.9366H81.54V74.1366H85.38V86.9366H98.18V90.7766H85.38V103.577H81.54ZM108.006 109.977V74.1366L101.798 78.1686L100.646 76.6966L110.566 67.7366H113.766V109.977H108.006ZM137.938 111.257C134.226 111.257 131.239 110.339 128.978 108.505C126.717 106.627 125.074 104.003 124.05 100.633C123.069 97.2619 122.578 93.3366 122.578 88.8566C122.578 84.3339 123.069 80.4086 124.05 77.0806C125.074 73.7099 126.717 71.1072 128.978 69.2726C131.239 67.3952 134.226 66.4566 137.938 66.4566C141.693 66.4566 144.679 67.3952 146.898 69.2726C149.159 71.1072 150.781 73.7099 151.762 77.0806C152.786 80.4086 153.298 84.3339 153.298 88.8566C153.298 93.3366 152.786 97.2619 151.762 100.633C150.781 104.003 149.159 106.627 146.898 108.505C144.679 110.339 141.693 111.257 137.938 111.257ZM137.938 108.697C141.437 108.697 143.805 107.075 145.042 103.833C146.279 100.547 146.898 95.5552 146.898 88.8566C146.898 82.1152 146.279 77.1232 145.042 73.8806C143.805 70.6379 141.437 69.0166 137.938 69.0166C134.439 69.0166 132.071 70.6379 130.834 73.8806C129.597 77.1232 128.978 82.1152 128.978 88.8566C128.978 95.5552 129.597 100.547 130.834 103.833C132.071 107.075 134.439 108.697 137.938 108.697ZM160.081 109.977L181.921 78.2966H185.521L163.681 109.977H160.081ZM180.481 110.217C178.305 110.217 176.593 109.657 175.345 108.537C174.129 107.385 173.521 105.785 173.521 103.737C173.521 101.689 174.129 100.105 175.345 98.9846C176.593 97.8326 178.305 97.2566 180.481 97.2566C182.657 97.2566 184.353 97.8326 185.569 98.9846C186.817 100.105 187.441 101.689 187.441 103.737C187.441 105.785 186.817 107.385 185.569 108.537C184.353 109.657 182.657 110.217 180.481 110.217ZM180.481 108.537C183.201 108.537 184.561 106.937 184.561 103.737C184.561 100.537 183.201 98.9366 180.481 98.9366C177.761 98.9366 176.401 100.537 176.401 103.737C176.401 106.937 177.761 108.537 180.481 108.537ZM165.121 91.0166C162.945 91.0166 161.233 90.4566 159.985 89.3366C158.769 88.1846 158.161 86.5846 158.161 84.5366C158.161 82.4886 158.769 80.9046 159.985 79.7846C161.233 78.6326 162.945 78.0566 165.121 78.0566C167.297 78.0566 168.993 78.6326 170.209 79.7846C171.457 80.9046 172.081 82.4886 172.081 84.5366C172.081 86.5846 171.457 88.1846 170.209 89.3366C168.993 90.4566 167.297 91.0166 165.121 91.0166ZM165.121 89.3366C167.841 89.3366 169.201 87.7366 169.201 84.5366C169.201 81.3366 167.841 79.7366 165.121 79.7366C162.401 79.7366 161.041 81.3366 161.041 84.5366C161.041 87.7366 162.401 89.3366 165.121 89.3366Z" fill="#0091FB"/>
</g>
<path d="M238.796 58.9766V51.3526H236.908V50.4806H238.796V49.3046C238.796 48.9846 238.828 48.6779 238.892 48.3846C238.961 48.0912 239.063 47.8219 239.196 47.5766C239.335 47.3259 239.508 47.1099 239.716 46.9286C239.929 46.7472 240.183 46.6059 240.476 46.5046C240.769 46.4032 241.103 46.3526 241.476 46.3526C241.705 46.3526 241.895 46.3686 242.044 46.4006C242.193 46.4272 242.295 46.4539 242.348 46.4806V47.3526C242.279 47.3312 242.172 47.3072 242.028 47.2806C241.884 47.2539 241.729 47.2406 241.564 47.2406C241.185 47.2406 240.879 47.3046 240.644 47.4326C240.409 47.5606 240.228 47.7312 240.1 47.9446C239.977 48.1579 239.895 48.3979 239.852 48.6646C239.809 48.9259 239.788 49.1926 239.788 49.4646V50.4806H242.3V51.3526H239.788V58.9766H238.796ZM247.529 59.1206C246.697 59.1206 245.961 58.9312 245.321 58.5526C244.681 58.1686 244.18 57.6432 243.817 56.9766C243.454 56.3099 243.273 55.5579 243.273 54.7206C243.273 53.8779 243.454 53.1286 243.817 52.4726C244.18 51.8166 244.681 51.3019 245.321 50.9286C245.961 50.5552 246.697 50.3686 247.529 50.3686C248.361 50.3686 249.097 50.5552 249.737 50.9286C250.377 51.3019 250.878 51.8166 251.241 52.4726C251.604 53.1286 251.785 53.8779 251.785 54.7206C251.785 55.5579 251.604 56.3099 251.241 56.9766C250.878 57.6432 250.377 58.1686 249.737 58.5526C249.097 58.9312 248.361 59.1206 247.529 59.1206ZM247.529 58.2166C248.169 58.2166 248.732 58.0672 249.217 57.7686C249.708 57.4699 250.092 57.0566 250.369 56.5286C250.646 56.0006 250.785 55.3979 250.785 54.7206C250.785 54.0379 250.646 53.4379 250.369 52.9206C250.092 52.4032 249.708 52.0006 249.217 51.7126C248.732 51.4192 248.169 51.2726 247.529 51.2726C246.894 51.2726 246.332 51.4192 245.841 51.7126C245.35 52.0006 244.966 52.4032 244.689 52.9206C244.412 53.4379 244.273 54.0379 244.273 54.7206C244.273 55.3979 244.412 56.0006 244.689 56.5286C244.966 57.0566 245.35 57.4699 245.841 57.7686C246.332 58.0672 246.894 58.2166 247.529 58.2166ZM254.126 58.9766V50.4806H255.118V52.9846L254.766 52.8726C254.798 52.6059 254.875 52.3286 254.998 52.0406C255.126 51.7472 255.302 51.4726 255.526 51.2166C255.75 50.9606 256.03 50.7552 256.366 50.6006C256.707 50.4406 257.112 50.3606 257.582 50.3606C257.923 50.3606 258.198 50.3899 258.406 50.4486C258.614 50.5072 258.744 50.5526 258.798 50.5846L258.526 51.5446C258.472 51.5072 258.363 51.4592 258.198 51.4006C258.032 51.3419 257.795 51.3126 257.486 51.3126C257.038 51.3126 256.662 51.4006 256.358 51.5766C256.054 51.7472 255.811 51.9712 255.63 52.2486C255.448 52.5259 255.318 52.8219 255.238 53.1366C255.158 53.4459 255.118 53.7446 255.118 54.0326V58.9766H254.126ZM265.638 58.9766V55.0726C265.638 54.7366 265.638 54.4459 265.638 54.2006C265.638 53.9499 265.638 53.7419 265.638 53.5766C265.638 53.3686 265.622 53.1366 265.59 52.8806C265.558 52.6192 265.483 52.3686 265.366 52.1286C265.254 51.8886 265.075 51.6912 264.83 51.5366C264.585 51.3766 264.246 51.2966 263.814 51.2966C263.361 51.2966 262.982 51.3872 262.678 51.5686C262.374 51.7446 262.129 51.9739 261.942 52.2566C261.761 52.5392 261.63 52.8406 261.55 53.1606C261.47 53.4806 261.43 53.7819 261.43 54.0646L260.838 53.8326C260.838 53.2192 260.966 52.6512 261.222 52.1286C261.478 51.6006 261.841 51.1739 262.31 50.8486C262.785 50.5232 263.347 50.3606 263.998 50.3606C264.622 50.3606 265.126 50.4859 265.51 50.7366C265.894 50.9819 266.174 51.3286 266.35 51.7766C266.531 52.2192 266.622 52.7392 266.622 53.3366C266.622 53.5446 266.622 53.8059 266.622 54.1206C266.622 54.4352 266.622 54.7872 266.622 55.1766V58.9766H265.638ZM260.438 58.9766V50.4806H261.43V58.9766H260.438ZM270.822 58.9766V55.0646C270.822 54.6912 270.822 54.3872 270.822 54.1526C270.822 53.9126 270.822 53.7072 270.822 53.5366C270.822 53.3339 270.809 53.1072 270.782 52.8566C270.755 52.6006 270.683 52.3552 270.566 52.1206C270.454 51.8859 270.27 51.6912 270.014 51.5366C269.763 51.3766 269.411 51.2966 268.958 51.2966C268.505 51.2966 268.126 51.3846 267.822 51.5606C267.518 51.7366 267.278 51.9632 267.102 52.2406C266.926 52.5126 266.801 52.8006 266.726 53.1046C266.657 53.4032 266.622 53.6752 266.622 53.9206L266.03 53.7046C266.03 53.1339 266.153 52.5952 266.398 52.0886C266.649 51.5766 267.006 51.1606 267.47 50.8406C267.934 50.5206 268.494 50.3606 269.15 50.3606C269.737 50.3606 270.225 50.4726 270.614 50.6966C271.009 50.9206 271.305 51.2406 271.502 51.6566C271.705 52.0726 271.806 52.5792 271.806 53.1766C271.806 53.3899 271.806 53.6539 271.806 53.9686C271.806 54.2832 271.806 54.6299 271.806 55.0086V58.9766H270.822ZM281.534 59.1286C281.022 59.1286 280.555 59.0752 280.134 58.9686C279.712 58.8619 279.35 58.7072 279.046 58.5046C278.742 58.2966 278.504 58.0459 278.334 57.7526C278.168 57.4539 278.083 57.1126 278.078 56.7286C278.072 56.6806 278.07 56.6326 278.07 56.5846C278.07 56.5312 278.07 56.4859 278.07 56.4486H279.07C279.07 56.4859 279.07 56.5232 279.07 56.5606C279.07 56.5926 279.07 56.6352 279.07 56.6886C279.086 57.1792 279.31 57.5606 279.742 57.8326C280.179 58.0992 280.782 58.2326 281.55 58.2326C282.04 58.2326 282.47 58.1792 282.838 58.0726C283.211 57.9606 283.504 57.7979 283.718 57.5846C283.931 57.3659 284.038 57.1019 284.038 56.7926C284.038 56.2752 283.814 55.9072 283.366 55.6886C282.923 55.4646 282.27 55.2779 281.406 55.1286C280.958 55.0539 280.539 54.9579 280.15 54.8406C279.766 54.7179 279.427 54.5659 279.134 54.3846C278.846 54.1979 278.619 53.9659 278.454 53.6886C278.288 53.4112 278.206 53.0779 278.206 52.6886C278.206 52.1926 278.355 51.7712 278.654 51.4246C278.952 51.0779 279.352 50.8139 279.854 50.6326C280.36 50.4512 280.918 50.3606 281.526 50.3606C282.128 50.3606 282.68 50.4539 283.182 50.6406C283.688 50.8219 284.094 51.0939 284.398 51.4566C284.702 51.8192 284.854 52.2779 284.854 52.8326C284.854 52.8539 284.854 52.8806 284.854 52.9126C284.854 52.9446 284.854 52.9766 284.854 53.0086H283.862C283.862 52.9819 283.862 52.9579 283.862 52.9366C283.862 52.9099 283.862 52.8859 283.862 52.8646C283.862 52.4752 283.752 52.1632 283.534 51.9286C283.315 51.6939 283.03 51.5232 282.678 51.4166C282.326 51.3046 281.95 51.2486 281.55 51.2486C281.155 51.2486 280.776 51.2966 280.414 51.3926C280.051 51.4886 279.755 51.6406 279.526 51.8486C279.302 52.0512 279.19 52.3206 279.19 52.6566C279.19 52.9926 279.296 53.2646 279.51 53.4726C279.723 53.6752 280.024 53.8406 280.414 53.9686C280.803 54.0912 281.256 54.2006 281.774 54.2966C282.248 54.3819 282.683 54.4859 283.078 54.6086C283.472 54.7259 283.814 54.8752 284.102 55.0566C284.39 55.2379 284.614 55.4672 284.774 55.7446C284.934 56.0166 285.014 56.3499 285.014 56.7446C285.014 57.1339 284.926 57.4779 284.75 57.7766C284.574 58.0699 284.326 58.3179 284.006 58.5206C283.691 58.7232 283.323 58.8752 282.902 58.9766C282.48 59.0779 282.024 59.1286 281.534 59.1286ZM290.384 59.1206C289.776 59.1206 289.272 59.0139 288.872 58.8006C288.478 58.5872 288.168 58.3126 287.944 57.9766C287.72 57.6352 287.563 57.2699 287.472 56.8806C287.387 56.4912 287.344 56.1259 287.344 55.7846C287.344 55.5819 287.344 55.3712 287.344 55.1526C287.344 54.9339 287.344 54.7152 287.344 54.4966V50.4806H288.344V54.4006C288.344 54.6032 288.344 54.8032 288.344 55.0006C288.344 55.1979 288.344 55.3872 288.344 55.5686C288.344 56.0219 288.411 56.4512 288.544 56.8566C288.678 57.2566 288.907 57.5819 289.232 57.8326C289.558 58.0832 290 58.2086 290.56 58.2086C291.088 58.2086 291.552 58.0646 291.952 57.7766C292.352 57.4886 292.664 57.1232 292.888 56.6806C293.118 56.2326 293.232 55.7739 293.232 55.3046L293.84 55.5526C293.84 55.9792 293.76 56.4032 293.6 56.8246C293.446 57.2406 293.219 57.6246 292.92 57.9766C292.627 58.3232 292.264 58.6006 291.832 58.8086C291.406 59.0166 290.923 59.1206 290.384 59.1206ZM293.232 58.9766V50.4806H294.224V58.9766H293.232ZM300.78 59.1286C300.129 59.1286 299.527 58.9712 298.972 58.6566C298.417 58.3419 297.969 57.9152 297.628 57.3766C297.292 56.8379 297.124 56.2326 297.124 55.5606C297.124 55.5446 297.124 55.5312 297.124 55.5206C297.124 55.5099 297.124 55.4992 297.124 55.4886L297.86 55.4726C297.86 55.4832 297.86 55.4939 297.86 55.5046C297.86 55.5152 297.86 55.5259 297.86 55.5366C297.86 56.0166 297.988 56.4592 298.244 56.8646C298.505 57.2699 298.847 57.5926 299.268 57.8326C299.695 58.0726 300.156 58.1926 300.652 58.1926C301.473 58.1926 302.148 57.9019 302.676 57.3206C303.209 56.7339 303.476 55.8699 303.476 54.7286C303.476 53.5819 303.212 52.7179 302.684 52.1366C302.156 51.5552 301.479 51.2646 300.652 51.2646C300.156 51.2646 299.695 51.3846 299.268 51.6246C298.847 51.8646 298.505 52.1846 298.244 52.5846C297.988 52.9846 297.86 53.4272 297.86 53.9126L297.124 53.8886C297.124 53.2166 297.292 52.6139 297.628 52.0806C297.969 51.5472 298.417 51.1286 298.972 50.8246C299.527 50.5152 300.129 50.3606 300.78 50.3606C301.468 50.3606 302.092 50.5312 302.652 50.8726C303.217 51.2086 303.665 51.7019 303.996 52.3526C304.327 53.0032 304.492 53.7952 304.492 54.7286C304.492 55.6726 304.327 56.4726 303.996 57.1286C303.671 57.7846 303.228 58.2832 302.668 58.6246C302.108 58.9606 301.479 59.1286 300.78 59.1286ZM296.86 58.9766V46.4726H297.86V58.9766H296.86ZM312.029 58.9766V55.0726C312.029 54.7366 312.029 54.4459 312.029 54.2006C312.029 53.9499 312.029 53.7419 312.029 53.5766C312.029 53.3686 312.013 53.1366 311.981 52.8806C311.949 52.6192 311.874 52.3686 311.757 52.1286C311.645 51.8886 311.466 51.6912 311.221 51.5366C310.975 51.3766 310.637 51.2966 310.205 51.2966C309.751 51.2966 309.373 51.3872 309.069 51.5686C308.765 51.7446 308.519 51.9739 308.333 52.2566C308.151 52.5392 308.021 52.8406 307.941 53.1606C307.861 53.4806 307.821 53.7819 307.821 54.0646L307.229 53.8326C307.229 53.2192 307.357 52.6512 307.613 52.1286C307.869 51.6006 308.231 51.1739 308.701 50.8486C309.175 50.5232 309.738 50.3606 310.389 50.3606C311.013 50.3606 311.517 50.4859 311.901 50.7366C312.285 50.9819 312.565 51.3286 312.741 51.7766C312.922 52.2192 313.013 52.7392 313.013 53.3366C313.013 53.5446 313.013 53.8059 313.013 54.1206C313.013 54.4352 313.013 54.7872 313.013 55.1766V58.9766H312.029ZM306.829 58.9766V50.4806H307.821V58.9766H306.829ZM317.213 58.9766V55.0646C317.213 54.6912 317.213 54.3872 317.213 54.1526C317.213 53.9126 317.213 53.7072 317.213 53.5366C317.213 53.3339 317.199 53.1072 317.173 52.8566C317.146 52.6006 317.074 52.3552 316.957 52.1206C316.845 51.8859 316.661 51.6912 316.405 51.5366C316.154 51.3766 315.802 51.2966 315.349 51.2966C314.895 51.2966 314.517 51.3846 314.213 51.5606C313.909 51.7366 313.669 51.9632 313.493 52.2406C313.317 52.5126 313.191 52.8006 313.117 53.1046C313.047 53.4032 313.013 53.6752 313.013 53.9206L312.421 53.7046C312.421 53.1339 312.543 52.5952 312.789 52.0886C313.039 51.5766 313.397 51.1606 313.861 50.8406C314.325 50.5206 314.885 50.3606 315.541 50.3606C316.127 50.3606 316.615 50.4726 317.005 50.6966C317.399 50.9206 317.695 51.2406 317.893 51.6566C318.095 52.0726 318.197 52.5792 318.197 53.1766C318.197 53.3899 318.197 53.6539 318.197 53.9686C318.197 54.2832 318.197 54.6299 318.197 55.0086V58.9766H317.213ZM320.916 58.9766V50.4806H321.892V58.9766H320.916ZM321.412 48.3366C321.204 48.3366 321.026 48.2779 320.876 48.1606C320.727 48.0379 320.652 47.8752 320.652 47.6726C320.652 47.4752 320.727 47.3179 320.876 47.2006C321.026 47.0779 321.204 47.0166 321.412 47.0166C321.615 47.0166 321.791 47.0779 321.94 47.2006C322.09 47.3179 322.164 47.4752 322.164 47.6726C322.164 47.8752 322.09 48.0379 321.94 48.1606C321.791 48.2779 321.615 48.3366 321.412 48.3366ZM327.768 59.1286C327.256 59.1286 326.789 59.0752 326.368 58.9686C325.947 58.8619 325.584 58.7072 325.28 58.5046C324.976 58.2966 324.739 58.0459 324.568 57.7526C324.403 57.4539 324.317 57.1126 324.312 56.7286C324.307 56.6806 324.304 56.6326 324.304 56.5846C324.304 56.5312 324.304 56.4859 324.304 56.4486H325.304C325.304 56.4859 325.304 56.5232 325.304 56.5606C325.304 56.5926 325.304 56.6352 325.304 56.6886C325.32 57.1792 325.544 57.5606 325.976 57.8326C326.413 58.0992 327.016 58.2326 327.784 58.2326C328.275 58.2326 328.704 58.1792 329.072 58.0726C329.445 57.9606 329.739 57.7979 329.952 57.5846C330.165 57.3659 330.272 57.1019 330.272 56.7926C330.272 56.2752 330.048 55.9072 329.6 55.6886C329.157 55.4646 328.504 55.2779 327.64 55.1286C327.192 55.0539 326.773 54.9579 326.384 54.8406C326 54.7179 325.661 54.5659 325.368 54.3846C325.08 54.1979 324.853 53.9659 324.688 53.6886C324.523 53.4112 324.44 53.0779 324.44 52.6886C324.44 52.1926 324.589 51.7712 324.888 51.4246C325.187 51.0779 325.587 50.8139 326.088 50.6326C326.595 50.4512 327.152 50.3606 327.76 50.3606C328.363 50.3606 328.915 50.4539 329.416 50.6406C329.923 50.8219 330.328 51.0939 330.632 51.4566C330.936 51.8192 331.088 52.2779 331.088 52.8326C331.088 52.8539 331.088 52.8806 331.088 52.9126C331.088 52.9446 331.088 52.9766 331.088 53.0086H330.096C330.096 52.9819 330.096 52.9579 330.096 52.9366C330.096 52.9099 330.096 52.8859 330.096 52.8646C330.096 52.4752 329.987 52.1632 329.768 51.9286C329.549 51.6939 329.264 51.5232 328.912 51.4166C328.56 51.3046 328.184 51.2486 327.784 51.2486C327.389 51.2486 327.011 51.2966 326.648 51.3926C326.285 51.4886 325.989 51.6406 325.76 51.8486C325.536 52.0512 325.424 52.3206 325.424 52.6566C325.424 52.9926 325.531 53.2646 325.744 53.4726C325.957 53.6752 326.259 53.8406 326.648 53.9686C327.037 54.0912 327.491 54.2006 328.008 54.2966C328.483 54.3819 328.917 54.4859 329.312 54.6086C329.707 54.7259 330.048 54.8752 330.336 55.0566C330.624 55.2379 330.848 55.4672 331.008 55.7446C331.168 56.0166 331.248 56.3499 331.248 56.7446C331.248 57.1339 331.16 57.4779 330.984 57.7766C330.808 58.0699 330.56 58.3179 330.24 58.5206C329.925 58.7232 329.557 58.8752 329.136 58.9766C328.715 59.0779 328.259 59.1286 327.768 59.1286ZM336.659 59.1286C336.147 59.1286 335.68 59.0752 335.259 58.9686C334.837 58.8619 334.475 58.7072 334.171 58.5046C333.867 58.2966 333.629 58.0459 333.459 57.7526C333.293 57.4539 333.208 57.1126 333.203 56.7286C333.197 56.6806 333.195 56.6326 333.195 56.5846C333.195 56.5312 333.195 56.4859 333.195 56.4486H334.195C334.195 56.4859 334.195 56.5232 334.195 56.5606C334.195 56.5926 334.195 56.6352 334.195 56.6886C334.211 57.1792 334.435 57.5606 334.867 57.8326C335.304 58.0992 335.907 58.2326 336.675 58.2326C337.165 58.2326 337.595 58.1792 337.963 58.0726C338.336 57.9606 338.629 57.7979 338.843 57.5846C339.056 57.3659 339.163 57.1019 339.163 56.7926C339.163 56.2752 338.939 55.9072 338.491 55.6886C338.048 55.4646 337.395 55.2779 336.531 55.1286C336.083 55.0539 335.664 54.9579 335.275 54.8406C334.891 54.7179 334.552 54.5659 334.259 54.3846C333.971 54.1979 333.744 53.9659 333.579 53.6886C333.413 53.4112 333.331 53.0779 333.331 52.6886C333.331 52.1926 333.48 51.7712 333.779 51.4246C334.077 51.0779 334.477 50.8139 334.979 50.6326C335.485 50.4512 336.043 50.3606 336.651 50.3606C337.253 50.3606 337.805 50.4539 338.307 50.6406C338.813 50.8219 339.219 51.0939 339.523 51.4566C339.827 51.8192 339.979 52.2779 339.979 52.8326C339.979 52.8539 339.979 52.8806 339.979 52.9126C339.979 52.9446 339.979 52.9766 339.979 53.0086H338.987C338.987 52.9819 338.987 52.9579 338.987 52.9366C338.987 52.9099 338.987 52.8859 338.987 52.8646C338.987 52.4752 338.877 52.1632 338.659 51.9286C338.44 51.6939 338.155 51.5232 337.803 51.4166C337.451 51.3046 337.075 51.2486 336.675 51.2486C336.28 51.2486 335.901 51.2966 335.539 51.3926C335.176 51.4886 334.88 51.6406 334.651 51.8486C334.427 52.0512 334.315 52.3206 334.315 52.6566C334.315 52.9926 334.421 53.2646 334.635 53.4726C334.848 53.6752 335.149 53.8406 335.539 53.9686C335.928 54.0912 336.381 54.2006 336.899 54.2966C337.373 54.3819 337.808 54.4859 338.203 54.6086C338.597 54.7259 338.939 54.8752 339.227 55.0566C339.515 55.2379 339.739 55.4672 339.899 55.7446C340.059 56.0166 340.139 56.3499 340.139 56.7446C340.139 57.1339 340.051 57.4779 339.875 57.7766C339.699 58.0699 339.451 58.3179 339.131 58.5206C338.816 58.7232 338.448 58.8752 338.027 58.9766C337.605 59.0779 337.149 59.1286 336.659 59.1286ZM342.541 58.9766V50.4806H343.517V58.9766H342.541ZM343.037 48.3366C342.829 48.3366 342.651 48.2779 342.501 48.1606C342.352 48.0379 342.277 47.8752 342.277 47.6726C342.277 47.4752 342.352 47.3179 342.501 47.2006C342.651 47.0779 342.829 47.0166 343.037 47.0166C343.24 47.0166 343.416 47.0779 343.565 47.2006C343.715 47.3179 343.789 47.4752 343.789 47.6726C343.789 47.8752 343.715 48.0379 343.565 48.1606C343.416 48.2779 343.24 48.3366 343.037 48.3366ZM350.185 59.1206C349.353 59.1206 348.617 58.9312 347.977 58.5526C347.337 58.1686 346.836 57.6432 346.473 56.9766C346.11 56.3099 345.929 55.5579 345.929 54.7206C345.929 53.8779 346.11 53.1286 346.473 52.4726C346.836 51.8166 347.337 51.3019 347.977 50.9286C348.617 50.5552 349.353 50.3686 350.185 50.3686C351.017 50.3686 351.753 50.5552 352.393 50.9286C353.033 51.3019 353.534 51.8166 353.897 52.4726C354.26 53.1286 354.441 53.8779 354.441 54.7206C354.441 55.5579 354.26 56.3099 353.897 56.9766C353.534 57.6432 353.033 58.1686 352.393 58.5526C351.753 58.9312 351.017 59.1206 350.185 59.1206ZM350.185 58.2166C350.825 58.2166 351.388 58.0672 351.873 57.7686C352.364 57.4699 352.748 57.0566 353.025 56.5286C353.302 56.0006 353.441 55.3979 353.441 54.7206C353.441 54.0379 353.302 53.4379 353.025 52.9206C352.748 52.4032 352.364 52.0006 351.873 51.7126C351.388 51.4192 350.825 51.2726 350.185 51.2726C349.55 51.2726 348.988 51.4192 348.497 51.7126C348.006 52.0006 347.622 52.4032 347.345 52.9206C347.068 53.4379 346.929 54.0379 346.929 54.7206C346.929 55.3979 347.068 56.0006 347.345 56.5286C347.622 57.0566 348.006 57.4699 348.497 57.7686C348.988 58.0672 349.55 58.2166 350.185 58.2166ZM362.894 58.9766V54.7526C362.894 54.4912 362.894 54.2832 362.894 54.1286C362.894 53.9739 362.894 53.8219 362.894 53.6726C362.894 53.1979 362.809 52.7846 362.638 52.4326C362.473 52.0752 362.217 51.7979 361.87 51.6006C361.523 51.3979 361.078 51.2966 360.534 51.2966C360.054 51.2966 359.603 51.4166 359.182 51.6566C358.761 51.8912 358.419 52.2112 358.158 52.6166C357.902 53.0219 357.774 53.4779 357.774 53.9846L357.174 53.7606C357.174 53.1152 357.339 52.5366 357.67 52.0246C358.006 51.5126 358.443 51.1072 358.982 50.8086C359.526 50.5099 360.102 50.3606 360.71 50.3606C361.355 50.3606 361.915 50.4832 362.39 50.7286C362.865 50.9686 363.23 51.3179 363.486 51.7766C363.747 52.2299 363.878 52.7819 363.878 53.4326C363.878 53.6566 363.878 53.8966 363.878 54.1526C363.878 54.4086 363.878 54.6406 363.878 54.8486V58.9766H362.894ZM356.782 58.9766V50.4806H357.774V58.9766H356.782ZM369.596 59.1286C369.084 59.1286 368.618 59.0752 368.196 58.9686C367.775 58.8619 367.412 58.7072 367.108 58.5046C366.804 58.2966 366.567 58.0459 366.396 57.7526C366.231 57.4539 366.146 57.1126 366.14 56.7286C366.135 56.6806 366.132 56.6326 366.132 56.5846C366.132 56.5312 366.132 56.4859 366.132 56.4486H367.132C367.132 56.4859 367.132 56.5232 367.132 56.5606C367.132 56.5926 367.132 56.6352 367.132 56.6886C367.148 57.1792 367.372 57.5606 367.804 57.8326C368.242 58.0992 368.844 58.2326 369.612 58.2326C370.103 58.2326 370.532 58.1792 370.9 58.0726C371.274 57.9606 371.567 57.7979 371.78 57.5846C371.994 57.3659 372.1 57.1019 372.1 56.7926C372.1 56.2752 371.876 55.9072 371.428 55.6886C370.986 55.4646 370.332 55.2779 369.468 55.1286C369.02 55.0539 368.602 54.9579 368.212 54.8406C367.828 54.7179 367.49 54.5659 367.196 54.3846C366.908 54.1979 366.682 53.9659 366.516 53.6886C366.351 53.4112 366.268 53.0779 366.268 52.6886C366.268 52.1926 366.418 51.7712 366.716 51.4246C367.015 51.0779 367.415 50.8139 367.916 50.6326C368.423 50.4512 368.98 50.3606 369.588 50.3606C370.191 50.3606 370.743 50.4539 371.244 50.6406C371.751 50.8219 372.156 51.0939 372.46 51.4566C372.764 51.8192 372.916 52.2779 372.916 52.8326C372.916 52.8539 372.916 52.8806 372.916 52.9126C372.916 52.9446 372.916 52.9766 372.916 53.0086H371.924C371.924 52.9819 371.924 52.9579 371.924 52.9366C371.924 52.9099 371.924 52.8859 371.924 52.8646C371.924 52.4752 371.815 52.1632 371.596 51.9286C371.378 51.6939 371.092 51.5232 370.74 51.4166C370.388 51.3046 370.012 51.2486 369.612 51.2486C369.218 51.2486 368.839 51.2966 368.476 51.3926C368.114 51.4886 367.818 51.6406 367.588 51.8486C367.364 52.0512 367.252 52.3206 367.252 52.6566C367.252 52.9926 367.359 53.2646 367.572 53.4726C367.786 53.6752 368.087 53.8406 368.476 53.9686C368.866 54.0912 369.319 54.2006 369.836 54.2966C370.311 54.3819 370.746 54.4859 371.14 54.6086C371.535 54.7259 371.876 54.8752 372.164 55.0566C372.452 55.2379 372.676 55.4672 372.836 55.7446C372.996 56.0166 373.076 56.3499 373.076 56.7446C373.076 57.1339 372.988 57.4779 372.812 57.7766C372.636 58.0699 372.388 58.3179 372.068 58.5206C371.754 58.7232 371.386 58.8752 370.964 58.9766C370.543 59.0779 370.087 59.1286 369.596 59.1286ZM240.836 83.1046C240.596 83.1046 240.361 83.0752 240.132 83.0166C239.908 82.9579 239.705 82.8539 239.524 82.7046C239.348 82.5499 239.209 82.3392 239.108 82.0726C239.007 81.8059 238.956 81.4672 238.956 81.0566C238.956 80.9446 238.956 80.8299 238.956 80.7126C238.956 80.5899 238.956 80.4619 238.956 80.3286V75.3526H236.908V74.4806H238.38C238.519 74.4806 238.628 74.4752 238.708 74.4646C238.788 74.4539 238.844 74.4272 238.876 74.3846C238.913 74.3419 238.935 74.2752 238.94 74.1846C238.951 74.0939 238.956 73.9686 238.956 73.8086V71.7366H239.948V74.4806H242.668V75.3526H239.948V80.0006C239.948 80.1286 239.948 80.2512 239.948 80.3686C239.948 80.4859 239.948 80.5952 239.948 80.6966C239.948 81.1766 240.017 81.5526 240.156 81.8246C240.3 82.0966 240.569 82.2326 240.964 82.2326C241.113 82.2326 241.26 82.2192 241.404 82.1926C241.548 82.1659 241.657 82.1366 241.732 82.1046V82.9686C241.641 83.0059 241.516 83.0379 241.356 83.0646C241.196 83.0912 241.023 83.1046 240.836 83.1046ZM250.668 82.9766V79.7686C250.668 79.6086 250.668 79.4219 250.668 79.2086C250.668 78.9952 250.668 78.7819 250.668 78.5686C250.668 78.3499 250.668 78.1606 250.668 78.0006C250.668 77.1312 250.473 76.4646 250.084 76.0006C249.7 75.5312 249.108 75.2966 248.308 75.2966C247.769 75.2966 247.292 75.4086 246.876 75.6326C246.46 75.8566 246.132 76.1552 245.892 76.5286C245.657 76.8966 245.539 77.3046 245.539 77.7526L244.884 77.5606C244.884 76.9899 245.036 76.4619 245.34 75.9766C245.649 75.4912 246.073 75.1019 246.612 74.8086C247.156 74.5099 247.777 74.3606 248.476 74.3606C249.489 74.3606 250.27 74.6672 250.82 75.2806C251.374 75.8939 251.652 76.7419 251.652 77.8246C251.652 78.1126 251.652 78.4379 251.652 78.8006C251.652 79.1579 251.652 79.5232 251.652 79.8966V82.9766H250.668ZM244.548 82.9766V70.4726H245.539V82.9766H244.548ZM254.298 82.9766V74.4806H255.289V76.9846L254.938 76.8726C254.97 76.6059 255.047 76.3286 255.17 76.0406C255.298 75.7472 255.474 75.4726 255.698 75.2166C255.922 74.9606 256.202 74.7552 256.538 74.6006C256.879 74.4406 257.284 74.3606 257.754 74.3606C258.095 74.3606 258.37 74.3899 258.578 74.4486C258.786 74.5072 258.916 74.5526 258.97 74.5846L258.698 75.5446C258.644 75.5072 258.535 75.4592 258.37 75.4006C258.204 75.3419 257.967 75.3126 257.658 75.3126C257.21 75.3126 256.834 75.4006 256.53 75.5766C256.226 75.7472 255.983 75.9712 255.802 76.2486C255.62 76.5259 255.49 76.8219 255.41 77.1366C255.33 77.4459 255.289 77.7446 255.289 78.0326V82.9766H254.298ZM264.295 83.1206C263.463 83.1206 262.727 82.9312 262.087 82.5526C261.447 82.1686 260.945 81.6432 260.583 80.9766C260.22 80.3099 260.039 79.5579 260.039 78.7206C260.039 77.8779 260.22 77.1286 260.583 76.4726C260.945 75.8166 261.447 75.3019 262.087 74.9286C262.727 74.5552 263.463 74.3686 264.295 74.3686C265.127 74.3686 265.863 74.5552 266.503 74.9286C267.143 75.3019 267.644 75.8166 268.007 76.4726C268.369 77.1286 268.551 77.8779 268.551 78.7206C268.551 79.5579 268.369 80.3099 268.007 80.9766C267.644 81.6432 267.143 82.1686 266.503 82.5526C265.863 82.9312 265.127 83.1206 264.295 83.1206ZM264.295 82.2166C264.935 82.2166 265.497 82.0672 265.983 81.7686C266.473 81.4699 266.857 81.0566 267.135 80.5286C267.412 80.0006 267.551 79.3979 267.551 78.7206C267.551 78.0379 267.412 77.4379 267.135 76.9206C266.857 76.4032 266.473 76.0006 265.983 75.7126C265.497 75.4192 264.935 75.2726 264.295 75.2726C263.66 75.2726 263.097 75.4192 262.607 75.7126C262.116 76.0006 261.732 76.4032 261.455 76.9206C261.177 77.4379 261.039 78.0379 261.039 78.7206C261.039 79.3979 261.177 80.0006 261.455 80.5286C261.732 81.0566 262.116 81.4699 262.607 81.7686C263.097 82.0672 263.66 82.2166 264.295 82.2166ZM273.931 83.1206C273.323 83.1206 272.819 83.0139 272.419 82.8006C272.025 82.5872 271.715 82.3126 271.491 81.9766C271.267 81.6352 271.11 81.2699 271.019 80.8806C270.934 80.4912 270.891 80.1259 270.891 79.7846C270.891 79.5819 270.891 79.3712 270.891 79.1526C270.891 78.9339 270.891 78.7152 270.891 78.4966V74.4806H271.891V78.4006C271.891 78.6032 271.891 78.8032 271.891 79.0006C271.891 79.1979 271.891 79.3872 271.891 79.5686C271.891 80.0219 271.958 80.4512 272.091 80.8566C272.225 81.2566 272.454 81.5819 272.779 81.8326C273.105 82.0832 273.547 82.2086 274.107 82.2086C274.635 82.2086 275.099 82.0646 275.499 81.7766C275.899 81.4886 276.211 81.1232 276.435 80.6806C276.665 80.2326 276.779 79.7739 276.779 79.3046L277.387 79.5526C277.387 79.9792 277.307 80.4032 277.147 80.8246C276.993 81.2406 276.766 81.6246 276.467 81.9766C276.174 82.3232 275.811 82.6006 275.379 82.8086C274.953 83.0166 274.47 83.1206 273.931 83.1206ZM276.779 82.9766V74.4806H277.771V82.9766H276.779ZM285.615 82.6166C286.052 82.6486 286.439 82.7286 286.775 82.8566C287.111 82.9846 287.372 83.1686 287.559 83.4086C287.751 83.6539 287.847 83.9686 287.847 84.3526C287.847 84.7792 287.7 85.1606 287.407 85.4966C287.114 85.8326 286.663 86.0966 286.055 86.2886C285.447 86.4859 284.671 86.5846 283.727 86.5846C282.415 86.5846 281.434 86.3872 280.783 85.9926C280.132 85.5979 279.807 85.0779 279.807 84.4326C279.807 84.2086 279.831 84.0139 279.879 83.8486C279.932 83.6886 279.991 83.5606 280.055 83.4646L280.999 83.6086C280.951 83.6779 280.906 83.7766 280.863 83.9046C280.82 84.0379 280.799 84.1926 280.799 84.3686C280.799 84.8432 281.055 85.1952 281.567 85.4246C282.084 85.6539 282.826 85.7686 283.791 85.7686C284.522 85.7686 285.114 85.7072 285.567 85.5846C286.026 85.4672 286.364 85.3046 286.583 85.0966C286.802 84.8886 286.911 84.6592 286.911 84.4086C286.911 84.0246 286.754 83.7712 286.439 83.6486C286.13 83.5312 285.743 83.4539 285.279 83.4166L282.039 83.1846C281.516 83.1419 281.095 82.9926 280.775 82.7366C280.455 82.4752 280.295 82.1472 280.295 81.7526C280.295 81.5126 280.354 81.2886 280.471 81.0806C280.594 80.8726 280.735 80.6992 280.895 80.5606C281.06 80.4219 281.207 80.3366 281.335 80.3046L282.127 80.6886C281.983 80.7152 281.807 80.8112 281.599 80.9766C281.391 81.1419 281.287 81.3446 281.287 81.5846C281.287 81.7979 281.375 81.9739 281.551 82.1126C281.732 82.2512 282.06 82.3392 282.535 82.3766L285.615 82.6166ZM286.871 74.4806H287.807L287.455 77.8486C287.391 78.4779 287.212 79.0486 286.919 79.5606C286.626 80.0726 286.218 80.4806 285.695 80.7846C285.172 81.0832 284.532 81.2326 283.775 81.2326C282.991 81.2326 282.322 81.0806 281.767 80.7766C281.218 80.4726 280.796 80.0646 280.503 79.5526C280.215 79.0352 280.071 78.4592 280.071 77.8246C280.071 77.1792 280.226 76.5952 280.535 76.0726C280.844 75.5499 281.274 75.1339 281.823 74.8246C282.372 74.5152 283.007 74.3606 283.727 74.3606C284.394 74.3606 284.967 74.4806 285.447 74.7206C285.927 74.9606 286.303 75.2566 286.575 75.6086C286.852 75.9606 287.01 76.3072 287.047 76.6486H286.687L286.871 74.4806ZM283.775 80.3446C284.346 80.3446 284.834 80.2406 285.239 80.0326C285.644 79.8192 285.954 79.5232 286.167 79.1446C286.386 78.7606 286.495 78.3099 286.495 77.7926C286.495 77.2966 286.386 76.8592 286.167 76.4806C285.954 76.0966 285.644 75.7952 285.239 75.5766C284.834 75.3579 284.348 75.2486 283.783 75.2486C283.244 75.2486 282.767 75.3606 282.351 75.5846C281.94 75.8086 281.62 76.1152 281.391 76.5046C281.162 76.8886 281.047 77.3259 281.047 77.8166C281.047 78.3179 281.154 78.7606 281.367 79.1446C281.586 79.5232 281.898 79.8192 282.303 80.0326C282.714 80.2406 283.204 80.3446 283.775 80.3446ZM296.168 82.9766V79.7686C296.168 79.6086 296.168 79.4219 296.168 79.2086C296.168 78.9952 296.168 78.7819 296.168 78.5686C296.168 78.3499 296.168 78.1606 296.168 78.0006C296.168 77.1312 295.973 76.4646 295.584 76.0006C295.2 75.5312 294.608 75.2966 293.808 75.2966C293.269 75.2966 292.792 75.4086 292.376 75.6326C291.96 75.8566 291.632 76.1552 291.392 76.5286C291.157 76.8966 291.039 77.3046 291.039 77.7526L290.384 77.5606C290.384 76.9899 290.536 76.4619 290.84 75.9766C291.149 75.4912 291.573 75.1019 292.112 74.8086C292.656 74.5099 293.277 74.3606 293.976 74.3606C294.989 74.3606 295.77 74.6672 296.32 75.2806C296.874 75.8939 297.152 76.7419 297.152 77.8246C297.152 78.1126 297.152 78.4379 297.152 78.8006C297.152 79.1579 297.152 79.5232 297.152 79.8966V82.9766H296.168ZM290.048 82.9766V70.4726H291.039V82.9766H290.048ZM307.67 83.1206C306.838 83.1206 306.102 82.9312 305.462 82.5526C304.822 82.1686 304.32 81.6432 303.958 80.9766C303.595 80.3099 303.414 79.5579 303.414 78.7206C303.414 77.8779 303.595 77.1286 303.958 76.4726C304.32 75.8166 304.822 75.3019 305.462 74.9286C306.102 74.5552 306.838 74.3686 307.67 74.3686C308.502 74.3686 309.238 74.5552 309.878 74.9286C310.518 75.3019 311.019 75.8166 311.382 76.4726C311.744 77.1286 311.926 77.8779 311.926 78.7206C311.926 79.5579 311.744 80.3099 311.382 80.9766C311.019 81.6432 310.518 82.1686 309.878 82.5526C309.238 82.9312 308.502 83.1206 307.67 83.1206ZM307.67 82.2166C308.31 82.2166 308.872 82.0672 309.358 81.7686C309.848 81.4699 310.232 81.0566 310.51 80.5286C310.787 80.0006 310.926 79.3979 310.926 78.7206C310.926 78.0379 310.787 77.4379 310.51 76.9206C310.232 76.4032 309.848 76.0006 309.358 75.7126C308.872 75.4192 308.31 75.2726 307.67 75.2726C307.035 75.2726 306.472 75.4192 305.982 75.7126C305.491 76.0006 305.107 76.4032 304.83 76.9206C304.552 77.4379 304.414 78.0379 304.414 78.7206C304.414 79.3979 304.552 80.0006 304.83 80.5286C305.107 81.0566 305.491 81.4699 305.982 81.7686C306.472 82.0672 307.035 82.2166 307.67 82.2166ZM314.266 86.4726V74.4806H315.258V86.4726H314.266ZM318.186 83.1286C317.536 83.1286 316.933 82.9712 316.378 82.6566C315.824 82.3419 315.376 81.9152 315.034 81.3766C314.698 80.8379 314.53 80.2326 314.53 79.5606C314.53 79.5446 314.53 79.5312 314.53 79.5206C314.53 79.5099 314.53 79.4992 314.53 79.4886L315.258 79.4726C315.258 79.4832 315.258 79.4939 315.258 79.5046C315.258 79.5152 315.258 79.5259 315.258 79.5366C315.258 80.0166 315.389 80.4592 315.65 80.8646C315.912 81.2699 316.253 81.5926 316.674 81.8326C317.101 82.0726 317.562 82.1926 318.058 82.1926C318.88 82.1926 319.554 81.9019 320.082 81.3206C320.616 80.7339 320.882 79.8699 320.882 78.7286C320.882 77.5819 320.616 76.7179 320.082 76.1366C319.554 75.5552 318.88 75.2646 318.058 75.2646C317.562 75.2646 317.101 75.3846 316.674 75.6246C316.253 75.8646 315.912 76.1846 315.65 76.5846C315.389 76.9846 315.258 77.4272 315.258 77.9126L314.53 77.8886C314.53 77.2166 314.698 76.6139 315.034 76.0806C315.376 75.5472 315.824 75.1286 316.378 74.8246C316.933 74.5152 317.536 74.3606 318.186 74.3606C318.874 74.3606 319.498 74.5312 320.058 74.8726C320.618 75.2086 321.064 75.7019 321.394 76.3526C321.73 77.0032 321.898 77.7952 321.898 78.7286C321.898 79.6726 321.733 80.4726 321.402 81.1286C321.077 81.7846 320.632 82.2832 320.066 82.6246C319.506 82.9606 318.88 83.1286 318.186 83.1286ZM327.008 83.1046C326.768 83.1046 326.533 83.0752 326.304 83.0166C326.08 82.9579 325.877 82.8539 325.696 82.7046C325.52 82.5499 325.381 82.3392 325.28 82.0726C325.179 81.8059 325.128 81.4672 325.128 81.0566C325.128 80.9446 325.128 80.8299 325.128 80.7126C325.128 80.5899 325.128 80.4619 325.128 80.3286V75.3526H323.08V74.4806H324.552C324.691 74.4806 324.8 74.4752 324.88 74.4646C324.96 74.4539 325.016 74.4272 325.048 74.3846C325.085 74.3419 325.107 74.2752 325.112 74.1846C325.123 74.0939 325.128 73.9686 325.128 73.8086V71.7366H326.12V74.4806H328.84V75.3526H326.12V80.0006C326.12 80.1286 326.12 80.2512 326.12 80.3686C326.12 80.4859 326.12 80.5952 326.12 80.6966C326.12 81.1766 326.189 81.5526 326.328 81.8246C326.472 82.0966 326.741 82.2326 327.136 82.2326C327.285 82.2326 327.432 82.2192 327.576 82.1926C327.72 82.1659 327.829 82.1366 327.904 82.1046V82.9686C327.813 83.0059 327.688 83.0379 327.528 83.0646C327.368 83.0912 327.195 83.1046 327.008 83.1046ZM330.791 82.9766V74.4806H331.767V82.9766H330.791ZM331.287 72.3366C331.079 72.3366 330.901 72.2779 330.751 72.1606C330.602 72.0379 330.527 71.8752 330.527 71.6726C330.527 71.4752 330.602 71.3179 330.751 71.2006C330.901 71.0779 331.079 71.0166 331.287 71.0166C331.49 71.0166 331.666 71.0779 331.815 71.2006C331.965 71.3179 332.039 71.4752 332.039 71.6726C332.039 71.8752 331.965 72.0379 331.815 72.1606C331.666 72.2779 331.49 72.3366 331.287 72.3366ZM339.763 82.9766V79.0726C339.763 78.7366 339.763 78.4459 339.763 78.2006C339.763 77.9499 339.763 77.7419 339.763 77.5766C339.763 77.3686 339.747 77.1366 339.715 76.8806C339.683 76.6192 339.608 76.3686 339.491 76.1286C339.379 75.8886 339.2 75.6912 338.955 75.5366C338.71 75.3766 338.371 75.2966 337.939 75.2966C337.486 75.2966 337.107 75.3872 336.803 75.5686C336.499 75.7446 336.254 75.9739 336.067 76.2566C335.886 76.5392 335.755 76.8406 335.675 77.1606C335.595 77.4806 335.555 77.7819 335.555 78.0646L334.963 77.8326C334.963 77.2192 335.091 76.6512 335.347 76.1286C335.603 75.6006 335.966 75.1739 336.435 74.8486C336.91 74.5232 337.472 74.3606 338.123 74.3606C338.747 74.3606 339.251 74.4859 339.635 74.7366C340.019 74.9819 340.299 75.3286 340.475 75.7766C340.656 76.2192 340.747 76.7392 340.747 77.3366C340.747 77.5446 340.747 77.8059 340.747 78.1206C340.747 78.4352 340.747 78.7872 340.747 79.1766V82.9766H339.763ZM334.563 82.9766V74.4806H335.555V82.9766H334.563ZM344.947 82.9766V79.0646C344.947 78.6912 344.947 78.3872 344.947 78.1526C344.947 77.9126 344.947 77.7072 344.947 77.5366C344.947 77.3339 344.934 77.1072 344.907 76.8566C344.88 76.6006 344.808 76.3552 344.691 76.1206C344.579 75.8859 344.395 75.6912 344.139 75.5366C343.888 75.3766 343.536 75.2966 343.083 75.2966C342.63 75.2966 342.251 75.3846 341.947 75.5606C341.643 75.7366 341.403 75.9632 341.227 76.2406C341.051 76.5126 340.926 76.8006 340.851 77.1046C340.782 77.4032 340.747 77.6752 340.747 77.9206L340.155 77.7046C340.155 77.1339 340.278 76.5952 340.523 76.0886C340.774 75.5766 341.131 75.1606 341.595 74.8406C342.059 74.5206 342.619 74.3606 343.275 74.3606C343.862 74.3606 344.35 74.4726 344.739 74.6966C345.134 74.9206 345.43 75.2406 345.627 75.6566C345.83 76.0726 345.931 76.5792 345.931 77.1766C345.931 77.3899 345.931 77.6539 345.931 77.9686C345.931 78.2832 345.931 78.6299 345.931 79.0086V82.9766H344.947ZM348.651 82.9766V74.4806H349.627V82.9766H348.651ZM349.147 72.3366C348.939 72.3366 348.76 72.2779 348.611 72.1606C348.461 72.0379 348.387 71.8752 348.387 71.6726C348.387 71.4752 348.461 71.3179 348.611 71.2006C348.76 71.0779 348.939 71.0166 349.147 71.0166C349.349 71.0166 349.525 71.0779 349.675 71.2006C349.824 71.3179 349.899 71.4752 349.899 71.6726C349.899 71.8752 349.824 72.0379 349.675 72.1606C349.525 72.2779 349.349 72.3366 349.147 72.3366ZM352.863 82.0726H358.143V82.9766H351.767V82.1046L356.967 75.3606L356.975 75.3846H352.023V74.4806H358.055V75.3526L352.871 82.0886L352.863 82.0726ZM360.005 79.1446V78.2566H366.885L366.693 78.5286C366.693 78.4966 366.693 78.4699 366.693 78.4486C366.693 78.4219 366.693 78.3952 366.693 78.3686C366.693 77.8192 366.576 77.3072 366.341 76.8326C366.106 76.3579 365.765 75.9766 365.317 75.6886C364.874 75.4006 364.333 75.2566 363.693 75.2566C363.042 75.2566 362.469 75.4059 361.973 75.7046C361.477 75.9979 361.09 76.4059 360.813 76.9286C360.536 77.4459 360.397 78.0486 360.397 78.7366C360.397 79.4299 360.533 80.0406 360.805 80.5686C361.082 81.0912 361.469 81.4992 361.965 81.7926C362.461 82.0806 363.04 82.2246 363.701 82.2246C364.186 82.2246 364.608 82.1659 364.965 82.0486C365.328 81.9259 365.626 81.7659 365.861 81.5686C366.101 81.3712 366.282 81.1632 366.405 80.9446C366.533 80.7206 366.608 80.5099 366.629 80.3126H367.613C367.592 80.6272 367.49 80.9499 367.309 81.2806C367.133 81.6059 366.88 81.9099 366.549 82.1926C366.224 82.4752 365.818 82.7046 365.333 82.8806C364.853 83.0512 364.298 83.1366 363.669 83.1366C362.848 83.1366 362.117 82.9499 361.477 82.5766C360.842 82.2032 360.341 81.6886 359.973 81.0326C359.61 80.3712 359.429 79.6112 359.429 78.7526C359.429 77.8886 359.613 77.1286 359.981 76.4726C360.349 75.8112 360.853 75.2939 361.493 74.9206C362.133 74.5472 362.861 74.3606 363.677 74.3606C364.509 74.3606 365.229 74.5499 365.837 74.9286C366.445 75.3072 366.914 75.8219 367.245 76.4726C367.576 77.1179 367.741 77.8432 367.741 78.6486C367.741 78.7179 367.738 78.8059 367.733 78.9126C367.733 79.0192 367.73 79.0966 367.725 79.1446H360.005ZM373.407 83.1286C372.713 83.1286 372.084 82.9606 371.519 82.6246C370.959 82.2832 370.513 81.7846 370.183 81.1286C369.857 80.4726 369.695 79.6726 369.695 78.7286C369.695 77.7952 369.86 77.0032 370.191 76.3526C370.527 75.7019 370.975 75.2086 371.535 74.8726C372.095 74.5312 372.719 74.3606 373.407 74.3606C374.057 74.3606 374.66 74.5152 375.215 74.8246C375.775 75.1286 376.223 75.5472 376.559 76.0806C376.895 76.6139 377.063 77.2166 377.063 77.8886C377.063 77.9099 377.063 77.9312 377.063 77.9526C377.063 77.9686 377.063 77.9846 377.063 78.0006L376.335 78.0166C376.335 78.0006 376.335 77.9846 376.335 77.9686C376.335 77.9472 376.335 77.9286 376.335 77.9126C376.335 77.4272 376.204 76.9846 375.943 76.5846C375.681 76.1846 375.337 75.8646 374.911 75.6246C374.489 75.3846 374.031 75.2646 373.535 75.2646C372.713 75.2646 372.036 75.5552 371.503 76.1366C370.975 76.7179 370.711 77.5819 370.711 78.7286C370.711 79.8699 370.975 80.7339 371.503 81.3206C372.036 81.9019 372.713 82.1926 373.535 82.1926C374.041 82.1926 374.505 82.0726 374.927 81.8326C375.353 81.5872 375.695 81.2592 375.951 80.8486C376.207 80.4379 376.335 79.9792 376.335 79.4726L377.063 79.4886C377.063 80.1766 376.897 80.7952 376.567 81.3446C376.236 81.8939 375.793 82.3286 375.239 82.6486C374.689 82.9686 374.079 83.1286 373.407 83.1286ZM376.335 82.9766V70.4726H377.327V82.9766H376.335ZM237.86 110.473V98.4806H238.852V110.473H237.86ZM241.78 107.129C241.129 107.129 240.527 106.971 239.972 106.657C239.417 106.342 238.969 105.915 238.628 105.377C238.292 104.838 238.124 104.233 238.124 103.561C238.124 103.545 238.124 103.531 238.124 103.521C238.124 103.51 238.124 103.499 238.124 103.489L238.852 103.473C238.852 103.483 238.852 103.494 238.852 103.505C238.852 103.515 238.852 103.526 238.852 103.537C238.852 104.017 238.983 104.459 239.244 104.865C239.505 105.27 239.847 105.593 240.268 105.833C240.695 106.073 241.156 106.193 241.652 106.193C242.473 106.193 243.148 105.902 243.676 105.321C244.209 104.734 244.476 103.87 244.476 102.729C244.476 101.582 244.209 100.718 243.676 100.137C243.148 99.5552 242.473 99.2646 241.652 99.2646C241.156 99.2646 240.695 99.3846 240.268 99.6246C239.847 99.8646 239.505 100.185 239.244 100.585C238.983 100.985 238.852 101.427 238.852 101.913L238.124 101.889C238.124 101.217 238.292 100.614 238.628 100.081C238.969 99.5472 239.417 99.1286 239.972 98.8246C240.527 98.5152 241.129 98.3606 241.78 98.3606C242.468 98.3606 243.092 98.5312 243.652 98.8726C244.212 99.2086 244.657 99.7019 244.988 100.353C245.324 101.003 245.492 101.795 245.492 102.729C245.492 103.673 245.327 104.473 244.996 105.129C244.671 105.785 244.225 106.283 243.66 106.625C243.1 106.961 242.473 107.129 241.78 107.129ZM248.925 94.4726V106.977H247.949V94.4726H248.925ZM254.608 107.129C253.957 107.129 253.389 107.03 252.904 106.833C252.419 106.635 252.043 106.35 251.776 105.977C251.515 105.598 251.384 105.142 251.384 104.609C251.384 104.07 251.523 103.622 251.8 103.265C252.077 102.902 252.472 102.619 252.984 102.417C253.501 102.214 254.112 102.078 254.816 102.009C255.899 101.897 256.675 101.785 257.144 101.673C257.619 101.555 257.856 101.369 257.856 101.113C257.856 101.097 257.856 101.081 257.856 101.065C257.856 101.043 257.856 101.022 257.856 101.001C257.856 100.451 257.632 100.025 257.184 99.7206C256.736 99.4166 256.099 99.2646 255.272 99.2646C254.408 99.2646 253.733 99.4352 253.248 99.7766C252.768 100.118 252.528 100.625 252.528 101.297H251.552C251.552 100.683 251.707 100.158 252.016 99.7206C252.325 99.2779 252.76 98.9419 253.32 98.7126C253.88 98.4779 254.533 98.3606 255.28 98.3606C255.952 98.3606 256.557 98.4646 257.096 98.6726C257.635 98.8806 258.061 99.1846 258.376 99.5846C258.696 99.9792 258.856 100.467 258.856 101.049C258.856 101.161 258.856 101.273 258.856 101.385C258.856 101.491 258.856 101.601 258.856 101.713V105.473C258.856 105.654 258.864 105.827 258.88 105.993C258.896 106.158 258.92 106.302 258.952 106.425C259 106.579 259.051 106.702 259.104 106.793C259.157 106.883 259.2 106.945 259.232 106.977H258.232C258.211 106.955 258.176 106.899 258.128 106.809C258.08 106.713 258.032 106.601 257.984 106.473C257.941 106.339 257.912 106.19 257.896 106.025C257.88 105.859 257.872 105.659 257.872 105.425L258.032 105.545C257.861 105.859 257.613 106.137 257.288 106.377C256.963 106.611 256.573 106.795 256.12 106.929C255.667 107.062 255.163 107.129 254.608 107.129ZM254.76 106.241C255.336 106.241 255.856 106.147 256.32 105.961C256.789 105.769 257.163 105.497 257.44 105.145C257.717 104.787 257.856 104.355 257.856 103.849V101.865L258.072 102.233C257.763 102.387 257.341 102.513 256.808 102.609C256.275 102.699 255.696 102.774 255.072 102.833C254.192 102.918 253.523 103.086 253.064 103.337C252.611 103.587 252.384 103.995 252.384 104.561C252.384 105.105 252.584 105.521 252.984 105.809C253.384 106.097 253.976 106.241 254.76 106.241ZM265.256 107.129C264.477 107.129 263.765 106.955 263.12 106.609C262.474 106.257 261.957 105.753 261.568 105.097C261.184 104.441 260.992 103.651 260.992 102.729C260.992 101.806 261.184 101.019 261.568 100.369C261.957 99.7179 262.474 99.2219 263.12 98.8806C263.765 98.5339 264.477 98.3606 265.256 98.3606C265.853 98.3606 266.386 98.4539 266.856 98.6406C267.325 98.8219 267.722 99.0646 268.048 99.3686C268.373 99.6672 268.621 99.9952 268.792 100.353C268.962 100.71 269.048 101.062 269.048 101.409C269.048 101.414 269.048 101.422 269.048 101.433C269.048 101.438 269.048 101.446 269.048 101.457H268.064C268.064 101.43 268.061 101.401 268.056 101.369C268.056 101.331 268.053 101.297 268.048 101.265C268 100.881 267.848 100.539 267.592 100.241C267.336 99.9419 267.008 99.7046 266.608 99.5286C266.208 99.3526 265.754 99.2646 265.248 99.2646C264.677 99.2646 264.144 99.3952 263.648 99.6566C263.157 99.9126 262.76 100.297 262.456 100.809C262.152 101.321 262 101.961 262 102.729C262 103.491 262.149 104.134 262.448 104.657C262.752 105.174 263.149 105.566 263.64 105.833C264.136 106.094 264.672 106.225 265.248 106.225C265.877 106.225 266.397 106.121 266.808 105.913C267.218 105.705 267.528 105.435 267.736 105.105C267.944 104.774 268.053 104.43 268.064 104.073H269.048C269.048 104.43 268.965 104.79 268.8 105.153C268.64 105.515 268.4 105.846 268.08 106.145C267.765 106.443 267.37 106.683 266.896 106.865C266.426 107.041 265.88 107.129 265.256 107.129ZM271.583 103.145V102.257H278.463L278.271 102.529C278.271 102.497 278.271 102.47 278.271 102.449C278.271 102.422 278.271 102.395 278.271 102.369C278.271 101.819 278.154 101.307 277.919 100.833C277.685 100.358 277.343 99.9766 276.895 99.6886C276.453 99.4006 275.911 99.2566 275.271 99.2566C274.621 99.2566 274.047 99.4059 273.551 99.7046C273.055 99.9979 272.669 100.406 272.391 100.929C272.114 101.446 271.975 102.049 271.975 102.737C271.975 103.43 272.111 104.041 272.383 104.569C272.661 105.091 273.047 105.499 273.543 105.793C274.039 106.081 274.618 106.225 275.279 106.225C275.765 106.225 276.186 106.166 276.543 106.049C276.906 105.926 277.205 105.766 277.439 105.569C277.679 105.371 277.861 105.163 277.983 104.945C278.111 104.721 278.186 104.51 278.207 104.313H279.191C279.17 104.627 279.069 104.95 278.887 105.281C278.711 105.606 278.458 105.91 278.127 106.193C277.802 106.475 277.397 106.705 276.911 106.881C276.431 107.051 275.877 107.137 275.247 107.137C274.426 107.137 273.695 106.95 273.055 106.577C272.421 106.203 271.919 105.689 271.551 105.033C271.189 104.371 271.007 103.611 271.007 102.753C271.007 101.889 271.191 101.129 271.559 100.473C271.927 99.8112 272.431 99.2939 273.071 98.9206C273.711 98.5472 274.439 98.3606 275.255 98.3606C276.087 98.3606 276.807 98.5499 277.415 98.9286C278.023 99.3072 278.493 99.8219 278.823 100.473C279.154 101.118 279.319 101.843 279.319 102.649C279.319 102.718 279.317 102.806 279.311 102.913C279.311 103.019 279.309 103.097 279.303 103.145H271.583ZM286.857 106.977V103.073C286.857 102.737 286.857 102.446 286.857 102.201C286.857 101.95 286.857 101.742 286.857 101.577C286.857 101.369 286.841 101.137 286.809 100.881C286.777 100.619 286.702 100.369 286.585 100.129C286.473 99.8886 286.294 99.6912 286.049 99.5366C285.804 99.3766 285.465 99.2966 285.033 99.2966C284.58 99.2966 284.201 99.3872 283.897 99.5686C283.593 99.7446 283.348 99.9739 283.161 100.257C282.98 100.539 282.849 100.841 282.769 101.161C282.689 101.481 282.649 101.782 282.649 102.065L282.057 101.833C282.057 101.219 282.185 100.651 282.441 100.129C282.697 99.6006 283.06 99.1739 283.529 98.8486C284.004 98.5232 284.566 98.3606 285.217 98.3606C285.841 98.3606 286.345 98.4859 286.729 98.7366C287.113 98.9819 287.393 99.3286 287.569 99.7766C287.75 100.219 287.841 100.739 287.841 101.337C287.841 101.545 287.841 101.806 287.841 102.121C287.841 102.435 287.841 102.787 287.841 103.177V106.977H286.857ZM281.657 106.977V98.4806H282.649V106.977H281.657ZM292.041 106.977V103.065C292.041 102.691 292.041 102.387 292.041 102.153C292.041 101.913 292.041 101.707 292.041 101.537C292.041 101.334 292.028 101.107 292.001 100.857C291.974 100.601 291.902 100.355 291.785 100.121C291.673 99.8859 291.489 99.6912 291.233 99.5366C290.982 99.3766 290.63 99.2966 290.177 99.2966C289.724 99.2966 289.345 99.3846 289.041 99.5606C288.737 99.7366 288.497 99.9632 288.321 100.241C288.145 100.513 288.02 100.801 287.945 101.105C287.876 101.403 287.841 101.675 287.841 101.921L287.249 101.705C287.249 101.134 287.372 100.595 287.617 100.089C287.868 99.5766 288.225 99.1606 288.689 98.8406C289.153 98.5206 289.713 98.3606 290.369 98.3606C290.956 98.3606 291.444 98.4726 291.833 98.6966C292.228 98.9206 292.524 99.2406 292.721 99.6566C292.924 100.073 293.025 100.579 293.025 101.177C293.025 101.39 293.025 101.654 293.025 101.969C293.025 102.283 293.025 102.63 293.025 103.009V106.977H292.041ZM295.865 103.145V102.257H302.745L302.553 102.529C302.553 102.497 302.553 102.47 302.553 102.449C302.553 102.422 302.553 102.395 302.553 102.369C302.553 101.819 302.435 101.307 302.201 100.833C301.966 100.358 301.625 99.9766 301.177 99.6886C300.734 99.4006 300.193 99.2566 299.553 99.2566C298.902 99.2566 298.329 99.4059 297.833 99.7046C297.337 99.9979 296.95 100.406 296.673 100.929C296.395 101.446 296.257 102.049 296.257 102.737C296.257 103.43 296.393 104.041 296.664 104.569C296.942 105.091 297.329 105.499 297.825 105.793C298.321 106.081 298.899 106.225 299.561 106.225C300.046 106.225 300.467 106.166 300.825 106.049C301.187 105.926 301.486 105.766 301.721 105.569C301.961 105.371 302.142 105.163 302.265 104.945C302.393 104.721 302.467 104.51 302.489 104.313H303.473C303.451 104.627 303.35 104.95 303.168 105.281C302.992 105.606 302.739 105.91 302.409 106.193C302.083 106.475 301.678 106.705 301.193 106.881C300.713 107.051 300.158 107.137 299.529 107.137C298.707 107.137 297.977 106.95 297.337 106.577C296.702 106.203 296.201 105.689 295.833 105.033C295.47 104.371 295.289 103.611 295.289 102.753C295.289 101.889 295.473 101.129 295.841 100.473C296.209 99.8112 296.713 99.2939 297.353 98.9206C297.993 98.5472 298.721 98.3606 299.537 98.3606C300.369 98.3606 301.089 98.5499 301.697 98.9286C302.305 99.3072 302.774 99.8219 303.105 100.473C303.435 101.118 303.601 101.843 303.601 102.649C303.601 102.718 303.598 102.806 303.593 102.913C303.593 103.019 303.59 103.097 303.585 103.145H295.865ZM312.05 106.977V102.753C312.05 102.491 312.05 102.283 312.05 102.129C312.05 101.974 312.05 101.822 312.05 101.673C312.05 101.198 311.965 100.785 311.794 100.433C311.629 100.075 311.373 99.7979 311.026 99.6006C310.679 99.3979 310.234 99.2966 309.69 99.2966C309.21 99.2966 308.759 99.4166 308.338 99.6566C307.917 99.8912 307.575 100.211 307.314 100.617C307.058 101.022 306.93 101.478 306.93 101.985L306.33 101.761C306.33 101.115 306.495 100.537 306.826 100.025C307.162 99.5126 307.599 99.1072 308.138 98.8086C308.682 98.5099 309.258 98.3606 309.866 98.3606C310.511 98.3606 311.071 98.4832 311.546 98.7286C312.021 98.9686 312.386 99.3179 312.642 99.7766C312.903 100.23 313.034 100.782 313.034 101.433C313.034 101.657 313.034 101.897 313.034 102.153C313.034 102.409 313.034 102.641 313.034 102.849V106.977H312.05ZM305.938 106.977V98.4806H306.93V106.977H305.938ZM318.445 107.105C318.205 107.105 317.971 107.075 317.741 107.017C317.517 106.958 317.315 106.854 317.133 106.705C316.957 106.55 316.819 106.339 316.717 106.073C316.616 105.806 316.565 105.467 316.565 105.057C316.565 104.945 316.565 104.83 316.565 104.713C316.565 104.59 316.565 104.462 316.565 104.329V99.3526H314.517V98.4806H315.989C316.128 98.4806 316.237 98.4752 316.317 98.4646C316.397 98.4539 316.453 98.4272 316.485 98.3846C316.523 98.3419 316.544 98.2752 316.549 98.1846C316.56 98.0939 316.565 97.9686 316.565 97.8086V95.7366H317.557V98.4806H320.277V99.3526H317.557V104.001C317.557 104.129 317.557 104.251 317.557 104.369C317.557 104.486 317.557 104.595 317.557 104.697C317.557 105.177 317.627 105.553 317.765 105.825C317.909 106.097 318.179 106.233 318.573 106.233C318.723 106.233 318.869 106.219 319.013 106.193C319.157 106.166 319.267 106.137 319.341 106.105V106.969C319.251 107.006 319.125 107.038 318.965 107.065C318.805 107.091 318.632 107.105 318.445 107.105ZM329.077 107.129C328.426 107.129 327.858 107.03 327.373 106.833C326.888 106.635 326.512 106.35 326.245 105.977C325.984 105.598 325.853 105.142 325.853 104.609C325.853 104.07 325.992 103.622 326.269 103.265C326.546 102.902 326.941 102.619 327.453 102.417C327.97 102.214 328.581 102.078 329.285 102.009C330.368 101.897 331.144 101.785 331.613 101.673C332.088 101.555 332.325 101.369 332.325 101.113C332.325 101.097 332.325 101.081 332.325 101.065C332.325 101.043 332.325 101.022 332.325 101.001C332.325 100.451 332.101 100.025 331.653 99.7206C331.205 99.4166 330.568 99.2646 329.741 99.2646C328.877 99.2646 328.202 99.4352 327.717 99.7766C327.237 100.118 326.997 100.625 326.997 101.297H326.021C326.021 100.683 326.176 100.158 326.485 99.7206C326.794 99.2779 327.229 98.9419 327.789 98.7126C328.349 98.4779 329.002 98.3606 329.749 98.3606C330.421 98.3606 331.026 98.4646 331.565 98.6726C332.104 98.8806 332.53 99.1846 332.845 99.5846C333.165 99.9792 333.325 100.467 333.325 101.049C333.325 101.161 333.325 101.273 333.325 101.385C333.325 101.491 333.325 101.601 333.325 101.713V105.473C333.325 105.654 333.333 105.827 333.349 105.993C333.365 106.158 333.389 106.302 333.421 106.425C333.469 106.579 333.52 106.702 333.573 106.793C333.626 106.883 333.669 106.945 333.701 106.977H332.701C332.68 106.955 332.645 106.899 332.597 106.809C332.549 106.713 332.501 106.601 332.453 106.473C332.41 106.339 332.381 106.19 332.365 106.025C332.349 105.859 332.341 105.659 332.341 105.425L332.501 105.545C332.33 105.859 332.082 106.137 331.757 106.377C331.432 106.611 331.042 106.795 330.589 106.929C330.136 107.062 329.632 107.129 329.077 107.129ZM329.229 106.241C329.805 106.241 330.325 106.147 330.789 105.961C331.258 105.769 331.632 105.497 331.909 105.145C332.186 104.787 332.325 104.355 332.325 103.849V101.865L332.541 102.233C332.232 102.387 331.81 102.513 331.277 102.609C330.744 102.699 330.165 102.774 329.541 102.833C328.661 102.918 327.992 103.086 327.533 103.337C327.08 103.587 326.853 103.995 326.853 104.561C326.853 105.105 327.053 105.521 327.453 105.809C327.853 106.097 328.445 106.241 329.229 106.241ZM341.956 106.977V102.753C341.956 102.491 341.956 102.283 341.956 102.129C341.956 101.974 341.956 101.822 341.956 101.673C341.956 101.198 341.871 100.785 341.7 100.433C341.535 100.075 341.279 99.7979 340.932 99.6006C340.586 99.3979 340.14 99.2966 339.596 99.2966C339.116 99.2966 338.666 99.4166 338.244 99.6566C337.823 99.8912 337.482 100.211 337.22 100.617C336.964 101.022 336.836 101.478 336.836 101.985L336.236 101.761C336.236 101.115 336.402 100.537 336.732 100.025C337.068 99.5126 337.506 99.1072 338.044 98.8086C338.588 98.5099 339.164 98.3606 339.772 98.3606C340.418 98.3606 340.978 98.4832 341.452 98.7286C341.927 98.9686 342.292 99.3179 342.548 99.7766C342.81 100.23 342.94 100.782 342.94 101.433C342.94 101.657 342.94 101.897 342.94 102.153C342.94 102.409 342.94 102.641 342.94 102.849V106.977H341.956ZM335.844 106.977V98.4806H336.836V106.977H335.844ZM348.907 107.129C348.213 107.129 347.584 106.961 347.019 106.625C346.459 106.283 346.013 105.785 345.683 105.129C345.357 104.473 345.195 103.673 345.195 102.729C345.195 101.795 345.36 101.003 345.691 100.353C346.027 99.7019 346.475 99.2086 347.035 98.8726C347.595 98.5312 348.219 98.3606 348.907 98.3606C349.557 98.3606 350.16 98.5152 350.715 98.8246C351.275 99.1286 351.723 99.5472 352.059 100.081C352.395 100.614 352.563 101.217 352.563 101.889C352.563 101.91 352.563 101.931 352.563 101.953C352.563 101.969 352.563 101.985 352.563 102.001L351.835 102.017C351.835 102.001 351.835 101.985 351.835 101.969C351.835 101.947 351.835 101.929 351.835 101.913C351.835 101.427 351.704 100.985 351.443 100.585C351.181 100.185 350.837 99.8646 350.411 99.6246C349.989 99.3846 349.531 99.2646 349.035 99.2646C348.213 99.2646 347.536 99.5552 347.003 100.137C346.475 100.718 346.211 101.582 346.211 102.729C346.211 103.87 346.475 104.734 347.003 105.321C347.536 105.902 348.213 106.193 349.035 106.193C349.541 106.193 350.005 106.073 350.427 105.833C350.853 105.587 351.195 105.259 351.451 104.849C351.707 104.438 351.835 103.979 351.835 103.473L352.563 103.489C352.563 104.177 352.397 104.795 352.067 105.345C351.736 105.894 351.293 106.329 350.739 106.649C350.189 106.969 349.579 107.129 348.907 107.129ZM351.835 106.977V94.4726H352.827V106.977H351.835ZM240.94 131.129C240.428 131.129 239.961 131.075 239.54 130.969C239.119 130.862 238.756 130.707 238.452 130.505C238.148 130.297 237.911 130.046 237.74 129.753C237.575 129.454 237.489 129.113 237.484 128.729C237.479 128.681 237.476 128.633 237.476 128.585C237.476 128.531 237.476 128.486 237.476 128.449H238.476C238.476 128.486 238.476 128.523 238.476 128.561C238.476 128.593 238.476 128.635 238.476 128.689C238.492 129.179 238.716 129.561 239.148 129.833C239.585 130.099 240.188 130.233 240.956 130.233C241.447 130.233 241.876 130.179 242.244 130.073C242.617 129.961 242.911 129.798 243.124 129.585C243.337 129.366 243.444 129.102 243.444 128.793C243.444 128.275 243.22 127.907 242.772 127.689C242.329 127.465 241.676 127.278 240.812 127.129C240.364 127.054 239.945 126.958 239.556 126.841C239.172 126.718 238.833 126.566 238.54 126.385C238.252 126.198 238.025 125.966 237.86 125.689C237.695 125.411 237.612 125.078 237.612 124.689C237.612 124.193 237.761 123.771 238.06 123.425C238.359 123.078 238.759 122.814 239.26 122.633C239.767 122.451 240.324 122.361 240.932 122.361C241.535 122.361 242.087 122.454 242.588 122.641C243.095 122.822 243.5 123.094 243.804 123.457C244.108 123.819 244.26 124.278 244.26 124.833C244.26 124.854 244.26 124.881 244.26 124.913C244.26 124.945 244.26 124.977 244.26 125.009H243.268C243.268 124.982 243.268 124.958 243.268 124.937C243.268 124.91 243.268 124.886 243.268 124.865C243.268 124.475 243.159 124.163 242.94 123.929C242.721 123.694 242.436 123.523 242.084 123.417C241.732 123.305 241.356 123.249 240.956 123.249C240.561 123.249 240.183 123.297 239.82 123.393C239.457 123.489 239.161 123.641 238.932 123.849C238.708 124.051 238.596 124.321 238.596 124.657C238.596 124.993 238.703 125.265 238.916 125.473C239.129 125.675 239.431 125.841 239.82 125.969C240.209 126.091 240.663 126.201 241.18 126.297C241.655 126.382 242.089 126.486 242.484 126.609C242.879 126.726 243.22 126.875 243.508 127.057C243.796 127.238 244.02 127.467 244.18 127.745C244.34 128.017 244.42 128.35 244.42 128.745C244.42 129.134 244.332 129.478 244.156 129.777C243.98 130.07 243.732 130.318 243.412 130.521C243.097 130.723 242.729 130.875 242.308 130.977C241.887 131.078 241.431 131.129 240.94 131.129ZM246.823 130.977V122.481H247.799V130.977H246.823ZM247.319 120.337C247.111 120.337 246.932 120.278 246.783 120.161C246.633 120.038 246.559 119.875 246.559 119.673C246.559 119.475 246.633 119.318 246.783 119.201C246.932 119.078 247.111 119.017 247.319 119.017C247.521 119.017 247.697 119.078 247.847 119.201C247.996 119.318 248.071 119.475 248.071 119.673C248.071 119.875 247.996 120.038 247.847 120.161C247.697 120.278 247.521 120.337 247.319 120.337ZM255.794 130.977V127.073C255.794 126.737 255.794 126.446 255.794 126.201C255.794 125.95 255.794 125.742 255.794 125.577C255.794 125.369 255.778 125.137 255.746 124.881C255.714 124.619 255.64 124.369 255.522 124.129C255.41 123.889 255.232 123.691 254.986 123.537C254.741 123.377 254.402 123.297 253.97 123.297C253.517 123.297 253.138 123.387 252.834 123.569C252.53 123.745 252.285 123.974 252.098 124.257C251.917 124.539 251.786 124.841 251.706 125.161C251.626 125.481 251.586 125.782 251.586 126.065L250.994 125.833C250.994 125.219 251.122 124.651 251.378 124.129C251.634 123.601 251.997 123.174 252.466 122.849C252.941 122.523 253.504 122.361 254.154 122.361C254.778 122.361 255.282 122.486 255.666 122.737C256.05 122.982 256.33 123.329 256.506 123.777C256.688 124.219 256.778 124.739 256.778 125.337C256.778 125.545 256.778 125.806 256.778 126.121C256.778 126.435 256.778 126.787 256.778 127.177V130.977H255.794ZM250.594 130.977V122.481H251.586V130.977H250.594ZM260.978 130.977V127.065C260.978 126.691 260.978 126.387 260.978 126.153C260.978 125.913 260.978 125.707 260.978 125.537C260.978 125.334 260.965 125.107 260.938 124.857C260.912 124.601 260.84 124.355 260.722 124.121C260.61 123.886 260.426 123.691 260.17 123.537C259.92 123.377 259.568 123.297 259.114 123.297C258.661 123.297 258.282 123.385 257.978 123.561C257.674 123.737 257.434 123.963 257.258 124.241C257.082 124.513 256.957 124.801 256.882 125.105C256.813 125.403 256.778 125.675 256.778 125.921L256.186 125.705C256.186 125.134 256.309 124.595 256.554 124.089C256.805 123.577 257.162 123.161 257.626 122.841C258.09 122.521 258.65 122.361 259.306 122.361C259.893 122.361 260.381 122.473 260.77 122.697C261.165 122.921 261.461 123.241 261.658 123.657C261.861 124.073 261.962 124.579 261.962 125.177C261.962 125.39 261.962 125.654 261.962 125.969C261.962 126.283 261.962 126.63 261.962 127.009V130.977H260.978ZM264.61 134.473V122.481H265.602V134.473H264.61ZM268.53 131.129C267.879 131.129 267.277 130.971 266.722 130.657C266.167 130.342 265.719 129.915 265.378 129.377C265.042 128.838 264.874 128.233 264.874 127.561C264.874 127.545 264.874 127.531 264.874 127.521C264.874 127.51 264.874 127.499 264.874 127.489L265.602 127.473C265.602 127.483 265.602 127.494 265.602 127.505C265.602 127.515 265.602 127.526 265.602 127.537C265.602 128.017 265.733 128.459 265.994 128.865C266.255 129.27 266.597 129.593 267.018 129.833C267.445 130.073 267.906 130.193 268.402 130.193C269.223 130.193 269.898 129.902 270.426 129.321C270.959 128.734 271.226 127.87 271.226 126.729C271.226 125.582 270.959 124.718 270.426 124.137C269.898 123.555 269.223 123.265 268.402 123.265C267.906 123.265 267.445 123.385 267.018 123.625C266.597 123.865 266.255 124.185 265.994 124.585C265.733 124.985 265.602 125.427 265.602 125.913L264.874 125.889C264.874 125.217 265.042 124.614 265.378 124.081C265.719 123.547 266.167 123.129 266.722 122.825C267.277 122.515 267.879 122.361 268.53 122.361C269.218 122.361 269.842 122.531 270.402 122.873C270.962 123.209 271.407 123.702 271.738 124.353C272.074 125.003 272.242 125.795 272.242 126.729C272.242 127.673 272.077 128.473 271.746 129.129C271.421 129.785 270.975 130.283 270.41 130.625C269.85 130.961 269.223 131.129 268.53 131.129ZM275.675 118.473V130.977H274.699V118.473H275.675ZM278.51 130.977V122.481H279.486V130.977H278.51ZM279.006 120.337C278.798 120.337 278.619 120.278 278.47 120.161C278.321 120.038 278.246 119.875 278.246 119.673C278.246 119.475 278.321 119.318 278.47 119.201C278.619 119.078 278.798 119.017 279.006 119.017C279.209 119.017 279.385 119.078 279.534 119.201C279.683 119.318 279.758 119.475 279.758 119.673C279.758 119.875 279.683 120.038 279.534 120.161C279.385 120.278 279.209 120.337 279.006 120.337ZM283.218 130.977V123.353H281.33V122.481H283.218V121.305C283.218 120.985 283.25 120.678 283.314 120.385C283.383 120.091 283.485 119.822 283.618 119.577C283.757 119.326 283.93 119.11 284.138 118.929C284.351 118.747 284.605 118.606 284.898 118.505C285.191 118.403 285.525 118.353 285.898 118.353C286.127 118.353 286.317 118.369 286.466 118.401C286.615 118.427 286.717 118.454 286.77 118.481V119.353C286.701 119.331 286.594 119.307 286.45 119.281C286.306 119.254 286.151 119.241 285.986 119.241C285.607 119.241 285.301 119.305 285.066 119.433C284.831 119.561 284.65 119.731 284.522 119.945C284.399 120.158 284.317 120.398 284.274 120.665C284.231 120.926 284.21 121.193 284.21 121.465V122.481H286.722V123.353H284.21V130.977H283.218ZM288.578 130.977V122.481H289.554V130.977H288.578ZM289.074 120.337C288.866 120.337 288.687 120.278 288.538 120.161C288.389 120.038 288.314 119.875 288.314 119.673C288.314 119.475 288.389 119.318 288.538 119.201C288.687 119.078 288.866 119.017 289.074 119.017C289.277 119.017 289.453 119.078 289.602 119.201C289.751 119.318 289.826 119.475 289.826 119.673C289.826 119.875 289.751 120.038 289.602 120.161C289.453 120.278 289.277 120.337 289.074 120.337ZM292.552 127.145V126.257H299.432L299.24 126.529C299.24 126.497 299.24 126.47 299.24 126.449C299.24 126.422 299.24 126.395 299.24 126.369C299.24 125.819 299.123 125.307 298.888 124.833C298.653 124.358 298.312 123.977 297.864 123.689C297.421 123.401 296.88 123.257 296.24 123.257C295.589 123.257 295.016 123.406 294.52 123.705C294.024 123.998 293.637 124.406 293.36 124.929C293.083 125.446 292.944 126.049 292.944 126.737C292.944 127.43 293.08 128.041 293.352 128.569C293.629 129.091 294.016 129.499 294.512 129.793C295.008 130.081 295.587 130.225 296.248 130.225C296.733 130.225 297.155 130.166 297.512 130.049C297.875 129.926 298.173 129.766 298.408 129.569C298.648 129.371 298.829 129.163 298.952 128.945C299.08 128.721 299.155 128.51 299.176 128.313H300.16C300.139 128.627 300.037 128.95 299.856 129.281C299.68 129.606 299.427 129.91 299.096 130.193C298.771 130.475 298.365 130.705 297.88 130.881C297.4 131.051 296.845 131.137 296.216 131.137C295.395 131.137 294.664 130.95 294.024 130.577C293.389 130.203 292.888 129.689 292.52 129.033C292.157 128.371 291.976 127.611 291.976 126.753C291.976 125.889 292.16 125.129 292.528 124.473C292.896 123.811 293.4 123.294 294.04 122.921C294.68 122.547 295.408 122.361 296.224 122.361C297.056 122.361 297.776 122.55 298.384 122.929C298.992 123.307 299.461 123.822 299.792 124.473C300.123 125.118 300.288 125.843 300.288 126.649C300.288 126.718 300.285 126.806 300.28 126.913C300.28 127.019 300.277 127.097 300.272 127.145H292.552ZM305.954 131.129C305.26 131.129 304.631 130.961 304.066 130.625C303.506 130.283 303.06 129.785 302.73 129.129C302.404 128.473 302.242 127.673 302.242 126.729C302.242 125.795 302.407 125.003 302.738 124.353C303.074 123.702 303.522 123.209 304.082 122.873C304.642 122.531 305.266 122.361 305.954 122.361C306.604 122.361 307.207 122.515 307.762 122.825C308.322 123.129 308.77 123.547 309.106 124.081C309.442 124.614 309.61 125.217 309.61 125.889C309.61 125.91 309.61 125.931 309.61 125.953C309.61 125.969 309.61 125.985 309.61 126.001L308.882 126.017C308.882 126.001 308.882 125.985 308.882 125.969C308.882 125.947 308.882 125.929 308.882 125.913C308.882 125.427 308.751 124.985 308.49 124.585C308.228 124.185 307.884 123.865 307.458 123.625C307.036 123.385 306.578 123.265 306.082 123.265C305.26 123.265 304.583 123.555 304.05 124.137C303.522 124.718 303.258 125.582 303.258 126.729C303.258 127.87 303.522 128.734 304.05 129.321C304.583 129.902 305.26 130.193 306.082 130.193C306.588 130.193 307.052 130.073 307.474 129.833C307.9 129.587 308.242 129.259 308.498 128.849C308.754 128.438 308.882 127.979 308.882 127.473L309.61 127.489C309.61 128.177 309.444 128.795 309.114 129.345C308.783 129.894 308.34 130.329 307.786 130.649C307.236 130.969 306.626 131.129 305.954 131.129ZM308.882 130.977V118.473H309.874V130.977H308.882ZM317.452 130.977V123.353H315.564V122.481H317.452V121.305C317.452 120.985 317.484 120.678 317.548 120.385C317.618 120.091 317.719 119.822 317.852 119.577C317.991 119.326 318.164 119.11 318.372 118.929C318.586 118.747 318.839 118.606 319.132 118.505C319.426 118.403 319.759 118.353 320.132 118.353C320.362 118.353 320.551 118.369 320.7 118.401C320.85 118.427 320.951 118.454 321.004 118.481V119.353C320.935 119.331 320.828 119.307 320.684 119.281C320.54 119.254 320.386 119.241 320.22 119.241C319.842 119.241 319.535 119.305 319.3 119.433C319.066 119.561 318.884 119.731 318.756 119.945C318.634 120.158 318.551 120.398 318.508 120.665C318.466 120.926 318.444 121.193 318.444 121.465V122.481H320.956V123.353H318.444V130.977H317.452ZM323.836 118.473V130.977H322.86V118.473H323.836ZM330.466 131.121C329.634 131.121 328.898 130.931 328.258 130.553C327.618 130.169 327.117 129.643 326.754 128.977C326.392 128.31 326.21 127.558 326.21 126.721C326.21 125.878 326.392 125.129 326.754 124.473C327.117 123.817 327.618 123.302 328.258 122.929C328.898 122.555 329.634 122.369 330.466 122.369C331.298 122.369 332.034 122.555 332.674 122.929C333.314 123.302 333.816 123.817 334.178 124.473C334.541 125.129 334.722 125.878 334.722 126.721C334.722 127.558 334.541 128.31 334.178 128.977C333.816 129.643 333.314 130.169 332.674 130.553C332.034 130.931 331.298 131.121 330.466 131.121ZM330.466 130.217C331.106 130.217 331.669 130.067 332.154 129.769C332.645 129.47 333.029 129.057 333.306 128.529C333.584 128.001 333.722 127.398 333.722 126.721C333.722 126.038 333.584 125.438 333.306 124.921C333.029 124.403 332.645 124.001 332.154 123.713C331.669 123.419 331.106 123.273 330.466 123.273C329.832 123.273 329.269 123.419 328.778 123.713C328.288 124.001 327.904 124.403 327.626 124.921C327.349 125.438 327.21 126.038 327.21 126.721C327.21 127.398 327.349 128.001 327.626 128.529C327.904 129.057 328.288 129.47 328.778 129.769C329.269 130.067 329.832 130.217 330.466 130.217ZM343.566 130.977L341.094 122.481H341.99L344.342 130.497H344.158L345.806 122.481H346.838L344.926 130.977H343.566ZM337.966 130.977L336.03 122.481H337.062L338.734 130.497H338.55L340.878 122.481H341.774L339.334 130.977H337.966ZM351.674 131.129C351.162 131.129 350.696 131.075 350.274 130.969C349.853 130.862 349.49 130.707 349.186 130.505C348.882 130.297 348.645 130.046 348.474 129.753C348.309 129.454 348.224 129.113 348.218 128.729C348.213 128.681 348.21 128.633 348.21 128.585C348.21 128.531 348.21 128.486 348.21 128.449H349.21C349.21 128.486 349.21 128.523 349.21 128.561C349.21 128.593 349.21 128.635 349.21 128.689C349.226 129.179 349.45 129.561 349.882 129.833C350.32 130.099 350.922 130.233 351.69 130.233C352.181 130.233 352.61 130.179 352.978 130.073C353.352 129.961 353.645 129.798 353.858 129.585C354.072 129.366 354.178 129.102 354.178 128.793C354.178 128.275 353.954 127.907 353.506 127.689C353.064 127.465 352.41 127.278 351.546 127.129C351.098 127.054 350.68 126.958 350.29 126.841C349.906 126.718 349.568 126.566 349.274 126.385C348.986 126.198 348.76 125.966 348.594 125.689C348.429 125.411 348.346 125.078 348.346 124.689C348.346 124.193 348.496 123.771 348.794 123.425C349.093 123.078 349.493 122.814 349.994 122.633C350.501 122.451 351.058 122.361 351.666 122.361C352.269 122.361 352.821 122.454 353.322 122.641C353.829 122.822 354.234 123.094 354.538 123.457C354.842 123.819 354.994 124.278 354.994 124.833C354.994 124.854 354.994 124.881 354.994 124.913C354.994 124.945 354.994 124.977 354.994 125.009H354.002C354.002 124.982 354.002 124.958 354.002 124.937C354.002 124.91 354.002 124.886 354.002 124.865C354.002 124.475 353.893 124.163 353.674 123.929C353.456 123.694 353.17 123.523 352.818 123.417C352.466 123.305 352.09 123.249 351.69 123.249C351.296 123.249 350.917 123.297 350.554 123.393C350.192 123.489 349.896 123.641 349.666 123.849C349.442 124.051 349.33 124.321 349.33 124.657C349.33 124.993 349.437 125.265 349.65 125.473C349.864 125.675 350.165 125.841 350.554 125.969C350.944 126.091 351.397 126.201 351.914 126.297C352.389 126.382 352.824 126.486 353.218 126.609C353.613 126.726 353.954 126.875 354.242 127.057C354.53 127.238 354.754 127.467 354.914 127.745C355.074 128.017 355.154 128.35 355.154 128.745C355.154 129.134 355.066 129.478 354.89 129.777C354.714 130.07 354.466 130.318 354.146 130.521C353.832 130.723 353.464 130.875 353.042 130.977C352.621 131.078 352.165 131.129 351.674 131.129Z" fill="#101113"/>
<defs>
<filter id="filter0_dddd_2327_5820" x="22.5" y="3.97656" width="220" height="270" filterUnits="userSpaceOnUse" color-interpolation-filters="sRGB">
<feFlood flood-opacity="0" result="BackgroundImageFix"/>
<feColorMatrix in="SourceAlpha" type="matrix" values="0 0 0 0 0 0 0 0 0 0 0 0 0 0 0 0 0 0 127 0" result="hardAlpha"/>
<feOffset dy="5"/>
<feGaussianBlur stdDeviation="5"/>
<feColorMatrix type="matrix" values="0 0 0 0 0 0 0 0 0 0 0 0 0 0 0 0 0 0 0.05 0"/>
<feBlend mode="normal" in2="BackgroundImageFix" result="effect1_dropShadow_2327_5820"/>
<feColorMatrix in="SourceAlpha" type="matrix" values="0 0 0 0 0 0 0 0 0 0 0 0 0 0 0 0 0 0 127 0" result="hardAlpha"/>
<feOffset dy="19"/>
<feGaussianBlur stdDeviation="9.5"/>
<feColorMatrix type="matrix" values="0 0 0 0 0 0 0 0 0 0 0 0 0 0 0 0 0 0 0.04 0"/>
<feBlend mode="normal" in2="effect1_dropShadow_2327_5820" result="effect2_dropShadow_2327_5820"/>
<feColorMatrix in="SourceAlpha" type="matrix" values="0 0 0 0 0 0 0 0 0 0 0 0 0 0 0 0 0 0 127 0" result="hardAlpha"/>
<feOffset dy="42"/>
<feGaussianBlur stdDeviation="12.5"/>
<feColorMatrix type="matrix" values="0 0 0 0 0 0 0 0 0 0 0 0 0 0 0 0 0 0 0.03 0"/>
<feBlend mode="normal" in2="effect2_dropShadow_2327_5820" result="effect3_dropShadow_2327_5820"/>
<feColorMatrix in="SourceAlpha" type="matrix" values="0 0 0 0 0 0 0 0 0 0 0 0 0 0 0 0 0 0 127 0" result="hardAlpha"/>
<feOffset dy="75"/>
<feGaussianBlur stdDeviation="15"/>
<feColorMatrix type="matrix" values="0 0 0 0 0 0 0 0 0 0 0 0 0 0 0 0 0 0 0.01 0"/>
<feBlend mode="normal" in2="effect3_dropShadow_2327_5820" result="effect4_dropShadow_2327_5820"/>
<feBlend mode="normal" in="SourceGraphic" in2="effect4_dropShadow_2327_5820" result="shape"/>
</filter>
<linearGradient id="paint0_linear_2327_5820" x1="132.5" y1="37.4614" x2="132.5" y2="243.522" gradientUnits="userSpaceOnUse">
<stop stop-color="white"/>
<stop offset="1" stop-color="#0091FB"/>
</linearGradient>
</defs>
</svg>
