<svg width="462" height="274" viewBox="0 0 462 274" fill="none" xmlns="http://www.w3.org/2000/svg">
<g filter="url(#filter0_dddd_2327_5865)">
<rect x="56" y="8.97656" width="160" height="160" rx="80" fill="white"/>
<rect x="56.5" y="9.47656" width="159" height="159" rx="79.5" stroke="url(#paint0_linear_2327_5865)"/>
<path d="M85.04 103.577V90.7766H72.24V86.9366H85.04V74.1366H88.88V86.9366H101.68V90.7766H88.88V103.577H85.04ZM111.506 109.977V74.1366L105.298 78.1686L104.146 76.6966L114.066 67.7366H117.266V109.977H111.506ZM139.198 111.257C135.998 111.257 133.331 110.659 131.198 109.465C129.107 108.27 127.187 106.627 125.438 104.537L126.654 103.449C128.275 105.241 130.025 106.563 131.902 107.417C133.779 108.27 135.891 108.697 138.238 108.697C139.945 108.697 141.523 108.334 142.974 107.609C144.425 106.841 145.598 105.689 146.494 104.153C147.39 102.617 147.838 100.611 147.838 98.1366C147.838 94.7659 146.921 92.2699 145.086 90.6486C143.294 89.0272 140.798 88.2166 137.598 88.2166C136.531 88.2166 135.422 88.2592 134.27 88.3446C133.118 88.4299 131.561 88.6006 129.598 88.8566L127.038 86.2966L127.678 67.7366H151.678V70.2966H132.926L132.35 85.9766L134.398 85.8486C134.995 85.8059 135.678 85.7632 136.446 85.7206C137.257 85.6779 138.067 85.6566 138.878 85.6566C140.499 85.6566 142.185 85.8272 143.934 86.1686C145.726 86.5099 147.39 87.1499 148.926 88.0886C150.505 88.9846 151.785 90.2432 152.766 91.8646C153.747 93.4859 154.238 95.5766 154.238 98.1366C154.238 100.867 153.705 103.107 152.638 104.857C151.614 106.563 150.313 107.886 148.734 108.825C147.155 109.721 145.513 110.339 143.806 110.681C142.099 111.065 140.563 111.257 139.198 111.257ZM160.144 109.977L181.984 78.2966H185.584L163.743 109.977H160.144ZM180.544 110.217C178.368 110.217 176.656 109.657 175.408 108.537C174.192 107.385 173.584 105.785 173.584 103.737C173.584 101.689 174.192 100.105 175.408 98.9846C176.656 97.8326 178.368 97.2566 180.544 97.2566C182.72 97.2566 184.416 97.8326 185.632 98.9846C186.88 100.105 187.504 101.689 187.504 103.737C187.504 105.785 186.88 107.385 185.632 108.537C184.416 109.657 182.72 110.217 180.544 110.217ZM180.544 108.537C183.264 108.537 184.624 106.937 184.624 103.737C184.624 100.537 183.264 98.9366 180.544 98.9366C177.824 98.9366 176.464 100.537 176.464 103.737C176.464 106.937 177.824 108.537 180.544 108.537ZM165.184 91.0166C163.008 91.0166 161.296 90.4566 160.048 89.3366C158.832 88.1846 158.224 86.5846 158.224 84.5366C158.224 82.4886 158.832 80.9046 160.048 79.7846C161.296 78.6326 163.008 78.0566 165.184 78.0566C167.36 78.0566 169.056 78.6326 170.272 79.7846C171.52 80.9046 172.144 82.4886 172.144 84.5366C172.144 86.5846 171.52 88.1846 170.272 89.3366C169.056 90.4566 167.36 91.0166 165.184 91.0166ZM165.184 89.3366C167.904 89.3366 169.264 87.7366 169.264 84.5366C169.264 81.3366 167.904 79.7366 165.184 79.7366C162.464 79.7366 161.104 81.3366 161.104 84.5366C161.104 87.7366 162.464 89.3366 165.184 89.3366Z" fill="#0091FB"/>
</g>
<path d="M245.24 83.1286C244.461 83.1286 243.749 82.9552 243.104 82.6086C242.459 82.2566 241.941 81.7526 241.552 81.0966C241.168 80.4406 240.976 79.6512 240.976 78.7286C240.976 77.8059 241.168 77.0192 241.552 76.3686C241.941 75.7179 242.459 75.2219 243.104 74.8806C243.749 74.5339 244.461 74.3606 245.24 74.3606C245.837 74.3606 246.371 74.4539 246.84 74.6406C247.309 74.8219 247.707 75.0646 248.032 75.3686C248.357 75.6672 248.605 75.9952 248.776 76.3526C248.947 76.7099 249.032 77.0619 249.032 77.4086C249.032 77.4139 249.032 77.4219 249.032 77.4326C249.032 77.4379 249.032 77.4459 249.032 77.4566H248.048C248.048 77.4299 248.045 77.4006 248.04 77.3686C248.04 77.3312 248.037 77.2966 248.032 77.2646C247.984 76.8806 247.832 76.5392 247.576 76.2406C247.32 75.9419 246.992 75.7046 246.592 75.5286C246.192 75.3526 245.739 75.2646 245.232 75.2646C244.661 75.2646 244.128 75.3952 243.632 75.6566C243.141 75.9126 242.744 76.2966 242.44 76.8086C242.136 77.3206 241.984 77.9606 241.984 78.7286C241.984 79.4912 242.133 80.1339 242.432 80.6566C242.736 81.1739 243.133 81.5659 243.624 81.8326C244.12 82.0939 244.656 82.2246 245.232 82.2246C245.861 82.2246 246.381 82.1206 246.792 81.9126C247.203 81.7046 247.512 81.4352 247.72 81.1046C247.928 80.7739 248.037 80.4299 248.048 80.0726H249.032C249.032 80.4299 248.949 80.7899 248.784 81.1526C248.624 81.5152 248.384 81.8459 248.064 82.1446C247.749 82.4432 247.355 82.6832 246.88 82.8646C246.411 83.0406 245.864 83.1286 245.24 83.1286ZM252.472 70.4726V82.9766H251.496V70.4726H252.472ZM255.307 82.9766V74.4806H256.283V82.9766H255.307ZM255.803 72.3366C255.595 72.3366 255.416 72.2779 255.267 72.1606C255.118 72.0379 255.043 71.8752 255.043 71.6726C255.043 71.4752 255.118 71.3179 255.267 71.2006C255.416 71.0779 255.595 71.0166 255.803 71.0166C256.006 71.0166 256.182 71.0779 256.331 71.2006C256.48 71.3179 256.555 71.4752 256.555 71.6726C256.555 71.8752 256.48 72.0379 256.331 72.1606C256.182 72.2779 256.006 72.3366 255.803 72.3366ZM262.959 83.1286C262.18 83.1286 261.468 82.9552 260.823 82.6086C260.177 82.2566 259.66 81.7526 259.271 81.0966C258.887 80.4406 258.695 79.6512 258.695 78.7286C258.695 77.8059 258.887 77.0192 259.271 76.3686C259.66 75.7179 260.177 75.2219 260.823 74.8806C261.468 74.5339 262.18 74.3606 262.959 74.3606C263.556 74.3606 264.089 74.4539 264.559 74.6406C265.028 74.8219 265.425 75.0646 265.751 75.3686C266.076 75.6672 266.324 75.9952 266.495 76.3526C266.665 76.7099 266.751 77.0619 266.751 77.4086C266.751 77.4139 266.751 77.4219 266.751 77.4326C266.751 77.4379 266.751 77.4459 266.751 77.4566H265.767C265.767 77.4299 265.764 77.4006 265.759 77.3686C265.759 77.3312 265.756 77.2966 265.751 77.2646C265.703 76.8806 265.551 76.5392 265.295 76.2406C265.039 75.9419 264.711 75.7046 264.311 75.5286C263.911 75.3526 263.457 75.2646 262.951 75.2646C262.38 75.2646 261.847 75.3952 261.351 75.6566C260.86 75.9126 260.463 76.2966 260.159 76.8086C259.855 77.3206 259.703 77.9606 259.703 78.7286C259.703 79.4912 259.852 80.1339 260.151 80.6566C260.455 81.1739 260.852 81.5659 261.343 81.8326C261.839 82.0939 262.375 82.2246 262.951 82.2246C263.58 82.2246 264.1 82.1206 264.511 81.9126C264.921 81.7046 265.231 81.4352 265.439 81.1046C265.647 80.7739 265.756 80.4299 265.767 80.0726H266.751C266.751 80.4299 266.668 80.7899 266.503 81.1526C266.343 81.5152 266.103 81.8459 265.783 82.1446C265.468 82.4432 265.073 82.6832 264.599 82.8646C264.129 83.0406 263.583 83.1286 262.959 83.1286ZM269.094 82.9766V70.4726H270.038V78.3046L269.758 78.1846L274.166 74.4806H275.454L271.326 78.0246L271.566 77.4966L275.526 82.9766H274.446L270.902 78.0326L271.158 78.1766L269.878 79.2566L270.038 78.7606V82.9766H269.094ZM275.713 78.7686V78.1286H281.201V78.7686H275.713ZM285.602 83.1046C285.362 83.1046 285.127 83.0752 284.898 83.0166C284.674 82.9579 284.471 82.8539 284.29 82.7046C284.114 82.5499 283.975 82.3392 283.874 82.0726C283.772 81.8059 283.722 81.4672 283.722 81.0566C283.722 80.9446 283.722 80.8299 283.722 80.7126C283.722 80.5899 283.722 80.4619 283.722 80.3286V75.3526H281.674V74.4806H283.146C283.284 74.4806 283.394 74.4752 283.474 74.4646C283.554 74.4539 283.61 74.4272 283.642 74.3846C283.679 74.3419 283.7 74.2752 283.706 74.1846C283.716 74.0939 283.722 73.9686 283.722 73.8086V71.7366H284.714V74.4806H287.434V75.3526H284.714V80.0006C284.714 80.1286 284.714 80.2512 284.714 80.3686C284.714 80.4859 284.714 80.5952 284.714 80.6966C284.714 81.1766 284.783 81.5526 284.922 81.8246C285.066 82.0966 285.335 82.2326 285.73 82.2326C285.879 82.2326 286.026 82.2192 286.17 82.1926C286.314 82.1659 286.423 82.1366 286.498 82.1046V82.9686C286.407 83.0059 286.282 83.0379 286.122 83.0646C285.962 83.0912 285.788 83.1046 285.602 83.1046ZM295.433 82.9766V79.7686C295.433 79.6086 295.433 79.4219 295.433 79.2086C295.433 78.9952 295.433 78.7819 295.433 78.5686C295.433 78.3499 295.433 78.1606 295.433 78.0006C295.433 77.1312 295.238 76.4646 294.849 76.0006C294.465 75.5312 293.873 75.2966 293.073 75.2966C292.534 75.2966 292.057 75.4086 291.641 75.6326C291.225 75.8566 290.897 76.1552 290.657 76.5286C290.422 76.8966 290.305 77.3046 290.305 77.7526L289.649 77.5606C289.649 76.9899 289.801 76.4619 290.105 75.9766C290.414 75.4912 290.838 75.1019 291.377 74.8086C291.921 74.5099 292.542 74.3606 293.241 74.3606C294.254 74.3606 295.036 74.6672 295.585 75.2806C296.14 75.8939 296.417 76.7419 296.417 77.8246C296.417 78.1126 296.417 78.4379 296.417 78.8006C296.417 79.1579 296.417 79.5232 296.417 79.8966V82.9766H295.433ZM289.313 82.9766V70.4726H290.305V82.9766H289.313ZM299.063 82.9766V74.4806H300.055V76.9846L299.703 76.8726C299.735 76.6059 299.812 76.3286 299.935 76.0406C300.063 75.7472 300.239 75.4726 300.463 75.2166C300.687 74.9606 300.967 74.7552 301.303 74.6006C301.644 74.4406 302.05 74.3606 302.519 74.3606C302.86 74.3606 303.135 74.3899 303.343 74.4486C303.551 74.5072 303.682 74.5526 303.735 74.5846L303.463 75.5446C303.41 75.5072 303.3 75.4592 303.135 75.4006C302.97 75.3419 302.732 75.3126 302.423 75.3126C301.975 75.3126 301.599 75.4006 301.295 75.5766C300.991 75.7472 300.748 75.9712 300.567 76.2486C300.386 76.5259 300.255 76.8219 300.175 77.1366C300.095 77.4459 300.055 77.7446 300.055 78.0326V82.9766H299.063ZM309.06 83.1206C308.228 83.1206 307.492 82.9312 306.852 82.5526C306.212 82.1686 305.711 81.6432 305.348 80.9766C304.985 80.3099 304.804 79.5579 304.804 78.7206C304.804 77.8779 304.985 77.1286 305.348 76.4726C305.711 75.8166 306.212 75.3019 306.852 74.9286C307.492 74.5552 308.228 74.3686 309.06 74.3686C309.892 74.3686 310.628 74.5552 311.268 74.9286C311.908 75.3019 312.409 75.8166 312.772 76.4726C313.135 77.1286 313.316 77.8779 313.316 78.7206C313.316 79.5579 313.135 80.3099 312.772 80.9766C312.409 81.6432 311.908 82.1686 311.268 82.5526C310.628 82.9312 309.892 83.1206 309.06 83.1206ZM309.06 82.2166C309.7 82.2166 310.263 82.0672 310.748 81.7686C311.239 81.4699 311.623 81.0566 311.9 80.5286C312.177 80.0006 312.316 79.3979 312.316 78.7206C312.316 78.0379 312.177 77.4379 311.9 76.9206C311.623 76.4032 311.239 76.0006 310.748 75.7126C310.263 75.4192 309.7 75.2726 309.06 75.2726C308.425 75.2726 307.863 75.4192 307.372 75.7126C306.881 76.0006 306.497 76.4032 306.22 76.9206C305.943 77.4379 305.804 78.0379 305.804 78.7206C305.804 79.3979 305.943 80.0006 306.22 80.5286C306.497 81.0566 306.881 81.4699 307.372 81.7686C307.863 82.0672 308.425 82.2166 309.06 82.2166ZM318.697 83.1206C318.089 83.1206 317.585 83.0139 317.185 82.8006C316.79 82.5872 316.481 82.3126 316.257 81.9766C316.033 81.6352 315.876 81.2699 315.785 80.8806C315.7 80.4912 315.657 80.1259 315.657 79.7846C315.657 79.5819 315.657 79.3712 315.657 79.1526C315.657 78.9339 315.657 78.7152 315.657 78.4966V74.4806H316.657V78.4006C316.657 78.6032 316.657 78.8032 316.657 79.0006C316.657 79.1979 316.657 79.3872 316.657 79.5686C316.657 80.0219 316.724 80.4512 316.857 80.8566C316.99 81.2566 317.22 81.5819 317.545 81.8326C317.87 82.0832 318.313 82.2086 318.873 82.2086C319.401 82.2086 319.865 82.0646 320.265 81.7766C320.665 81.4886 320.977 81.1232 321.201 80.6806C321.43 80.2326 321.545 79.7739 321.545 79.3046L322.153 79.5526C322.153 79.9792 322.073 80.4032 321.913 80.8246C321.758 81.2406 321.532 81.6246 321.233 81.9766C320.94 82.3232 320.577 82.6006 320.145 82.8086C319.718 83.0166 319.236 83.1206 318.697 83.1206ZM321.545 82.9766V74.4806H322.537V82.9766H321.545ZM330.381 82.6166C330.818 82.6486 331.205 82.7286 331.541 82.8566C331.877 82.9846 332.138 83.1686 332.325 83.4086C332.517 83.6539 332.613 83.9686 332.613 84.3526C332.613 84.7792 332.466 85.1606 332.173 85.4966C331.879 85.8326 331.429 86.0966 330.821 86.2886C330.213 86.4859 329.437 86.5846 328.493 86.5846C327.181 86.5846 326.199 86.3872 325.549 85.9926C324.898 85.5979 324.573 85.0779 324.573 84.4326C324.573 84.2086 324.597 84.0139 324.645 83.8486C324.698 83.6886 324.757 83.5606 324.821 83.4646L325.765 83.6086C325.717 83.6779 325.671 83.7766 325.629 83.9046C325.586 84.0379 325.565 84.1926 325.565 84.3686C325.565 84.8432 325.821 85.1952 326.333 85.4246C326.85 85.6539 327.591 85.7686 328.557 85.7686C329.287 85.7686 329.879 85.7072 330.333 85.5846C330.791 85.4672 331.13 85.3046 331.349 85.0966C331.567 84.8886 331.677 84.6592 331.677 84.4086C331.677 84.0246 331.519 83.7712 331.205 83.6486C330.895 83.5312 330.509 83.4539 330.045 83.4166L326.805 83.1846C326.282 83.1419 325.861 82.9926 325.541 82.7366C325.221 82.4752 325.061 82.1472 325.061 81.7526C325.061 81.5126 325.119 81.2886 325.237 81.0806C325.359 80.8726 325.501 80.6992 325.661 80.5606C325.826 80.4219 325.973 80.3366 326.101 80.3046L326.893 80.6886C326.749 80.7152 326.573 80.8112 326.365 80.9766C326.157 81.1419 326.053 81.3446 326.053 81.5846C326.053 81.7979 326.141 81.9739 326.317 82.1126C326.498 82.2512 326.826 82.3392 327.301 82.3766L330.381 82.6166ZM331.637 74.4806H332.573L332.22 77.8486C332.157 78.4779 331.978 79.0486 331.685 79.5606C331.391 80.0726 330.983 80.4806 330.461 80.7846C329.938 81.0832 329.298 81.2326 328.541 81.2326C327.757 81.2326 327.087 81.0806 326.533 80.7766C325.983 80.4726 325.562 80.0646 325.269 79.5526C324.981 79.0352 324.837 78.4592 324.837 77.8246C324.837 77.1792 324.991 76.5952 325.301 76.0726C325.61 75.5499 326.039 75.1339 326.589 74.8246C327.138 74.5152 327.773 74.3606 328.493 74.3606C329.159 74.3606 329.733 74.4806 330.213 74.7206C330.693 74.9606 331.069 75.2566 331.341 75.6086C331.618 75.9606 331.775 76.3072 331.812 76.6486H331.453L331.637 74.4806ZM328.541 80.3446C329.111 80.3446 329.599 80.2406 330.005 80.0326C330.41 79.8192 330.719 79.5232 330.933 79.1446C331.151 78.7606 331.261 78.3099 331.261 77.7926C331.261 77.2966 331.151 76.8592 330.933 76.4806C330.719 76.0966 330.41 75.7952 330.005 75.5766C329.599 75.3579 329.114 75.2486 328.549 75.2486C328.01 75.2486 327.533 75.3606 327.117 75.5846C326.706 75.8086 326.386 76.1152 326.157 76.5046C325.927 76.8886 325.812 77.3259 325.812 77.8166C325.812 78.3179 325.919 78.7606 326.133 79.1446C326.351 79.5232 326.663 79.8192 327.069 80.0326C327.479 80.2406 327.97 80.3446 328.541 80.3446ZM340.933 82.9766V79.7686C340.933 79.6086 340.933 79.4219 340.933 79.2086C340.933 78.9952 340.933 78.7819 340.933 78.5686C340.933 78.3499 340.933 78.1606 340.933 78.0006C340.933 77.1312 340.738 76.4646 340.349 76.0006C339.965 75.5312 339.373 75.2966 338.573 75.2966C338.034 75.2966 337.557 75.4086 337.141 75.6326C336.725 75.8566 336.397 76.1552 336.157 76.5286C335.922 76.8966 335.805 77.3046 335.805 77.7526L335.149 77.5606C335.149 76.9899 335.301 76.4619 335.605 75.9766C335.914 75.4912 336.338 75.1019 336.877 74.8086C337.421 74.5099 338.042 74.3606 338.741 74.3606C339.754 74.3606 340.536 74.6672 341.085 75.2806C341.64 75.8939 341.917 76.7419 341.917 77.8246C341.917 78.1126 341.917 78.4379 341.917 78.8006C341.917 79.1579 341.917 79.5232 341.917 79.8966V82.9766H340.933ZM334.813 82.9766V70.4726H335.805V82.9766H334.813ZM348.563 82.9766V74.4806H349.555V76.9846L349.203 76.8726C349.235 76.6059 349.312 76.3286 349.435 76.0406C349.563 75.7472 349.739 75.4726 349.963 75.2166C350.187 74.9606 350.467 74.7552 350.803 74.6006C351.144 74.4406 351.55 74.3606 352.019 74.3606C352.36 74.3606 352.635 74.3899 352.843 74.4486C353.051 74.5072 353.182 74.5526 353.235 74.5846L352.963 75.5446C352.91 75.5072 352.8 75.4592 352.635 75.4006C352.47 75.3419 352.232 75.3126 351.923 75.3126C351.475 75.3126 351.099 75.4006 350.795 75.5766C350.491 75.7472 350.248 75.9712 350.067 76.2486C349.886 76.5259 349.755 76.8219 349.675 77.1366C349.595 77.4459 349.555 77.7446 349.555 78.0326V82.9766H348.563ZM357.608 83.1286C356.957 83.1286 356.389 83.0299 355.904 82.8326C355.419 82.6352 355.043 82.3499 354.776 81.9766C354.515 81.5979 354.384 81.1419 354.384 80.6086C354.384 80.0699 354.523 79.6219 354.8 79.2646C355.077 78.9019 355.472 78.6192 355.984 78.4166C356.501 78.2139 357.112 78.0779 357.816 78.0086C358.899 77.8966 359.675 77.7846 360.144 77.6726C360.619 77.5552 360.856 77.3686 360.856 77.1126C360.856 77.0966 360.856 77.0806 360.856 77.0646C360.856 77.0432 360.856 77.0219 360.856 77.0006C360.856 76.4512 360.632 76.0246 360.184 75.7206C359.736 75.4166 359.099 75.2646 358.272 75.2646C357.408 75.2646 356.733 75.4352 356.248 75.7766C355.768 76.1179 355.528 76.6246 355.528 77.2966H354.552C354.552 76.6832 354.707 76.1579 355.016 75.7206C355.325 75.2779 355.76 74.9419 356.32 74.7126C356.88 74.4779 357.533 74.3606 358.28 74.3606C358.952 74.3606 359.557 74.4646 360.096 74.6726C360.635 74.8806 361.061 75.1846 361.376 75.5846C361.696 75.9792 361.856 76.4672 361.856 77.0486C361.856 77.1606 361.856 77.2726 361.856 77.3846C361.856 77.4912 361.856 77.6006 361.856 77.7126V81.4726C361.856 81.6539 361.864 81.8272 361.88 81.9926C361.896 82.1579 361.92 82.3019 361.952 82.4246C362 82.5792 362.051 82.7019 362.104 82.7926C362.157 82.8832 362.2 82.9446 362.232 82.9766H361.232C361.211 82.9552 361.176 82.8992 361.128 82.8086C361.08 82.7126 361.032 82.6006 360.984 82.4726C360.941 82.3392 360.912 82.1899 360.896 82.0246C360.88 81.8592 360.872 81.6592 360.872 81.4246L361.032 81.5446C360.861 81.8592 360.613 82.1366 360.288 82.3766C359.963 82.6112 359.573 82.7952 359.12 82.9286C358.667 83.0619 358.163 83.1286 357.608 83.1286ZM357.76 82.2406C358.336 82.2406 358.856 82.1472 359.32 81.9606C359.789 81.7686 360.163 81.4966 360.44 81.1446C360.717 80.7872 360.856 80.3552 360.856 79.8486V77.8646L361.072 78.2326C360.763 78.3872 360.341 78.5126 359.808 78.6086C359.275 78.6992 358.696 78.7739 358.072 78.8326C357.192 78.9179 356.523 79.0859 356.064 79.3366C355.611 79.5872 355.384 79.9952 355.384 80.5606C355.384 81.1046 355.584 81.5206 355.984 81.8086C356.384 82.0966 356.976 82.2406 357.76 82.2406ZM367.149 83.1046C366.909 83.1046 366.674 83.0752 366.445 83.0166C366.221 82.9579 366.018 82.8539 365.837 82.7046C365.661 82.5499 365.522 82.3392 365.421 82.0726C365.319 81.8059 365.269 81.4672 365.269 81.0566C365.269 80.9446 365.269 80.8299 365.269 80.7126C365.269 80.5899 365.269 80.4619 365.269 80.3286V75.3526H363.221V74.4806H364.693C364.831 74.4806 364.941 74.4752 365.021 74.4646C365.101 74.4539 365.157 74.4272 365.189 74.3846C365.226 74.3419 365.247 74.2752 365.253 74.1846C365.263 74.0939 365.269 73.9686 365.269 73.8086V71.7366H366.261V74.4806H368.981V75.3526H366.261V80.0006C366.261 80.1286 366.261 80.2512 366.261 80.3686C366.261 80.4859 366.261 80.5952 366.261 80.6966C366.261 81.1766 366.33 81.5526 366.469 81.8246C366.613 82.0966 366.882 82.2326 367.277 82.2326C367.426 82.2326 367.573 82.2192 367.717 82.1926C367.861 82.1659 367.97 82.1366 368.045 82.1046V82.9686C367.954 83.0059 367.829 83.0379 367.669 83.0646C367.509 83.0912 367.335 83.1046 367.149 83.1046ZM370.771 79.1446V78.2566H377.651L377.459 78.5286C377.459 78.4966 377.459 78.4699 377.459 78.4486C377.459 78.4219 377.459 78.3952 377.459 78.3686C377.459 77.8192 377.341 77.3072 377.107 76.8326C376.872 76.3579 376.531 75.9766 376.083 75.6886C375.64 75.4006 375.099 75.2566 374.459 75.2566C373.808 75.2566 373.235 75.4059 372.739 75.7046C372.243 75.9979 371.856 76.4059 371.579 76.9286C371.301 77.4459 371.163 78.0486 371.163 78.7366C371.163 79.4299 371.299 80.0406 371.571 80.5686C371.848 81.0912 372.235 81.4992 372.731 81.7926C373.227 82.0806 373.805 82.2246 374.467 82.2246C374.952 82.2246 375.373 82.1659 375.731 82.0486C376.093 81.9259 376.392 81.7659 376.627 81.5686C376.867 81.3712 377.048 81.1632 377.171 80.9446C377.299 80.7206 377.373 80.5099 377.395 80.3126H378.379C378.357 80.6272 378.256 80.9499 378.075 81.2806C377.899 81.6059 377.645 81.9099 377.315 82.1926C376.989 82.4752 376.584 82.7046 376.099 82.8806C375.619 83.0512 375.064 83.1366 374.435 83.1366C373.613 83.1366 372.883 82.9499 372.243 82.5766C371.608 82.2032 371.107 81.6886 370.739 81.0326C370.376 80.3712 370.195 79.6112 370.195 78.7526C370.195 77.8886 370.379 77.1286 370.747 76.4726C371.115 75.8112 371.619 75.2939 372.259 74.9206C372.899 74.5472 373.627 74.3606 374.443 74.3606C375.275 74.3606 375.995 74.5499 376.603 74.9286C377.211 75.3072 377.68 75.8219 378.011 76.4726C378.341 77.1179 378.507 77.8432 378.507 78.6486C378.507 78.7179 378.504 78.8059 378.499 78.9126C378.499 79.0192 378.496 79.0966 378.491 79.1446H370.771ZM245.232 107.121C244.4 107.121 243.664 106.931 243.024 106.553C242.384 106.169 241.883 105.643 241.52 104.977C241.157 104.31 240.976 103.558 240.976 102.721C240.976 101.878 241.157 101.129 241.52 100.473C241.883 99.8166 242.384 99.3019 243.024 98.9286C243.664 98.5552 244.4 98.3686 245.232 98.3686C246.064 98.3686 246.8 98.5552 247.44 98.9286C248.08 99.3019 248.581 99.8166 248.944 100.473C249.307 101.129 249.488 101.878 249.488 102.721C249.488 103.558 249.307 104.31 248.944 104.977C248.581 105.643 248.08 106.169 247.44 106.553C246.8 106.931 246.064 107.121 245.232 107.121ZM245.232 106.217C245.872 106.217 246.435 106.067 246.92 105.769C247.411 105.47 247.795 105.057 248.072 104.529C248.349 104.001 248.488 103.398 248.488 102.721C248.488 102.038 248.349 101.438 248.072 100.921C247.795 100.403 247.411 100.001 246.92 99.7126C246.435 99.4192 245.872 99.2726 245.232 99.2726C244.597 99.2726 244.035 99.4192 243.544 99.7126C243.053 100.001 242.669 100.403 242.392 100.921C242.115 101.438 241.976 102.038 241.976 102.721C241.976 103.398 242.115 104.001 242.392 104.529C242.669 105.057 243.053 105.47 243.544 105.769C244.035 106.067 244.597 106.217 245.232 106.217ZM257.941 106.977V102.753C257.941 102.491 257.941 102.283 257.941 102.129C257.941 101.974 257.941 101.822 257.941 101.673C257.941 101.198 257.855 100.785 257.685 100.433C257.519 100.075 257.263 99.7979 256.917 99.6006C256.57 99.3979 256.125 99.2966 255.581 99.2966C255.101 99.2966 254.65 99.4166 254.229 99.6566C253.807 99.8912 253.466 100.211 253.205 100.617C252.949 101.022 252.821 101.478 252.821 101.985L252.221 101.761C252.221 101.115 252.386 100.537 252.717 100.025C253.053 99.5126 253.49 99.1072 254.029 98.8086C254.573 98.5099 255.149 98.3606 255.757 98.3606C256.402 98.3606 256.962 98.4832 257.437 98.7286C257.911 98.9686 258.277 99.3179 258.533 99.7766C258.794 100.23 258.925 100.782 258.925 101.433C258.925 101.657 258.925 101.897 258.925 102.153C258.925 102.409 258.925 102.641 258.925 102.849V106.977H257.941ZM251.829 106.977V98.4806H252.821V106.977H251.829ZM269.443 107.129C268.664 107.129 267.952 106.955 267.307 106.609C266.662 106.257 266.144 105.753 265.755 105.097C265.371 104.441 265.179 103.651 265.179 102.729C265.179 101.806 265.371 101.019 265.755 100.369C266.144 99.7179 266.662 99.2219 267.307 98.8806C267.952 98.5339 268.664 98.3606 269.443 98.3606C270.04 98.3606 270.574 98.4539 271.043 98.6406C271.512 98.8219 271.91 99.0646 272.235 99.3686C272.56 99.6672 272.808 99.9952 272.979 100.353C273.15 100.71 273.235 101.062 273.235 101.409C273.235 101.414 273.235 101.422 273.235 101.433C273.235 101.438 273.235 101.446 273.235 101.457H272.251C272.251 101.43 272.248 101.401 272.243 101.369C272.243 101.331 272.24 101.297 272.235 101.265C272.187 100.881 272.035 100.539 271.779 100.241C271.523 99.9419 271.195 99.7046 270.795 99.5286C270.395 99.3526 269.942 99.2646 269.435 99.2646C268.864 99.2646 268.331 99.3952 267.835 99.6566C267.344 99.9126 266.947 100.297 266.643 100.809C266.339 101.321 266.187 101.961 266.187 102.729C266.187 103.491 266.336 104.134 266.635 104.657C266.939 105.174 267.336 105.566 267.827 105.833C268.323 106.094 268.859 106.225 269.435 106.225C270.064 106.225 270.584 106.121 270.995 105.913C271.406 105.705 271.715 105.435 271.923 105.105C272.131 104.774 272.24 104.43 272.251 104.073H273.235C273.235 104.43 273.152 104.79 272.987 105.153C272.827 105.515 272.587 105.846 272.267 106.145C271.952 106.443 271.558 106.683 271.083 106.865C270.614 107.041 270.067 107.129 269.443 107.129ZM278.499 107.129C277.848 107.129 277.28 107.03 276.795 106.833C276.309 106.635 275.933 106.35 275.667 105.977C275.405 105.598 275.275 105.142 275.275 104.609C275.275 104.07 275.413 103.622 275.691 103.265C275.968 102.902 276.363 102.619 276.875 102.417C277.392 102.214 278.003 102.078 278.707 102.009C279.789 101.897 280.565 101.785 281.035 101.673C281.509 101.555 281.747 101.369 281.747 101.113C281.747 101.097 281.747 101.081 281.747 101.065C281.747 101.043 281.747 101.022 281.747 101.001C281.747 100.451 281.523 100.025 281.075 99.7206C280.627 99.4166 279.989 99.2646 279.163 99.2646C278.299 99.2646 277.624 99.4352 277.139 99.7766C276.659 100.118 276.419 100.625 276.419 101.297H275.443C275.443 100.683 275.597 100.158 275.907 99.7206C276.216 99.2779 276.651 98.9419 277.211 98.7126C277.771 98.4779 278.424 98.3606 279.171 98.3606C279.843 98.3606 280.448 98.4646 280.987 98.6726C281.525 98.8806 281.952 99.1846 282.267 99.5846C282.587 99.9792 282.747 100.467 282.747 101.049C282.747 101.161 282.747 101.273 282.747 101.385C282.747 101.491 282.747 101.601 282.747 101.713V105.473C282.747 105.654 282.755 105.827 282.771 105.993C282.787 106.158 282.811 106.302 282.843 106.425C282.891 106.579 282.941 106.702 282.995 106.793C283.048 106.883 283.091 106.945 283.123 106.977H282.123C282.101 106.955 282.067 106.899 282.019 106.809C281.971 106.713 281.923 106.601 281.875 106.473C281.832 106.339 281.803 106.19 281.787 106.025C281.771 105.859 281.763 105.659 281.763 105.425L281.923 105.545C281.752 105.859 281.504 106.137 281.179 106.377C280.853 106.611 280.464 106.795 280.011 106.929C279.557 107.062 279.053 107.129 278.499 107.129ZM278.651 106.241C279.227 106.241 279.747 106.147 280.211 105.961C280.68 105.769 281.053 105.497 281.331 105.145C281.608 104.787 281.747 104.355 281.747 103.849V101.865L281.963 102.233C281.653 102.387 281.232 102.513 280.699 102.609C280.165 102.699 279.587 102.774 278.963 102.833C278.083 102.918 277.413 103.086 276.955 103.337C276.501 103.587 276.275 103.995 276.275 104.561C276.275 105.105 276.475 105.521 276.875 105.809C277.275 106.097 277.867 106.241 278.651 106.241ZM286.362 94.4726V106.977H285.386V94.4726H286.362ZM290.222 94.4726V106.977H289.246V94.4726H290.222ZM296.065 107.129C295.553 107.129 295.086 107.075 294.665 106.969C294.244 106.862 293.881 106.707 293.577 106.505C293.273 106.297 293.036 106.046 292.865 105.753C292.7 105.454 292.614 105.113 292.609 104.729C292.604 104.681 292.601 104.633 292.601 104.585C292.601 104.531 292.601 104.486 292.601 104.449H293.601C293.601 104.486 293.601 104.523 293.601 104.561C293.601 104.593 293.601 104.635 293.601 104.689C293.617 105.179 293.841 105.561 294.273 105.833C294.71 106.099 295.313 106.233 296.081 106.233C296.572 106.233 297.001 106.179 297.369 106.073C297.742 105.961 298.036 105.798 298.249 105.585C298.462 105.366 298.569 105.102 298.569 104.793C298.569 104.275 298.345 103.907 297.897 103.689C297.454 103.465 296.801 103.278 295.937 103.129C295.489 103.054 295.07 102.958 294.681 102.841C294.297 102.718 293.958 102.566 293.665 102.385C293.377 102.198 293.15 101.966 292.985 101.689C292.82 101.411 292.737 101.078 292.737 100.689C292.737 100.193 292.886 99.7712 293.185 99.4246C293.484 99.0779 293.884 98.8139 294.385 98.6326C294.892 98.4512 295.449 98.3606 296.057 98.3606C296.66 98.3606 297.212 98.4539 297.713 98.6406C298.22 98.8219 298.625 99.0939 298.929 99.4566C299.233 99.8192 299.385 100.278 299.385 100.833C299.385 100.854 299.385 100.881 299.385 100.913C299.385 100.945 299.385 100.977 299.385 101.009H298.393C298.393 100.982 298.393 100.958 298.393 100.937C298.393 100.91 298.393 100.886 298.393 100.865C298.393 100.475 298.284 100.163 298.065 99.9286C297.846 99.6939 297.561 99.5232 297.209 99.4166C296.857 99.3046 296.481 99.2486 296.081 99.2486C295.686 99.2486 295.308 99.2966 294.945 99.3926C294.582 99.4886 294.286 99.6406 294.057 99.8486C293.833 100.051 293.721 100.321 293.721 100.657C293.721 100.993 293.828 101.265 294.041 101.473C294.254 101.675 294.556 101.841 294.945 101.969C295.334 102.091 295.788 102.201 296.305 102.297C296.78 102.382 297.214 102.486 297.609 102.609C298.004 102.726 298.345 102.875 298.633 103.057C298.921 103.238 299.145 103.467 299.305 103.745C299.465 104.017 299.545 104.35 299.545 104.745C299.545 105.134 299.457 105.478 299.281 105.777C299.105 106.07 298.857 106.318 298.537 106.521C298.222 106.723 297.854 106.875 297.433 106.977C297.012 107.078 296.556 107.129 296.065 107.129ZM301.26 102.769V102.129H306.748V102.769H301.26ZM311.149 107.105C310.909 107.105 310.674 107.075 310.445 107.017C310.221 106.958 310.018 106.854 309.837 106.705C309.661 106.55 309.522 106.339 309.421 106.073C309.319 105.806 309.269 105.467 309.269 105.057C309.269 104.945 309.269 104.83 309.269 104.713C309.269 104.59 309.269 104.462 309.269 104.329V99.3526H307.221V98.4806H308.693C308.831 98.4806 308.941 98.4752 309.021 98.4646C309.101 98.4539 309.157 98.4272 309.189 98.3846C309.226 98.3419 309.247 98.2752 309.253 98.1846C309.263 98.0939 309.269 97.9686 309.269 97.8086V95.7366H310.261V98.4806H312.981V99.3526H310.261V104.001C310.261 104.129 310.261 104.251 310.261 104.369C310.261 104.486 310.261 104.595 310.261 104.697C310.261 105.177 310.33 105.553 310.469 105.825C310.613 106.097 310.882 106.233 311.277 106.233C311.426 106.233 311.573 106.219 311.717 106.193C311.861 106.166 311.97 106.137 312.045 106.105V106.969C311.954 107.006 311.829 107.038 311.669 107.065C311.509 107.091 311.335 107.105 311.149 107.105ZM318.451 107.121C317.619 107.121 316.883 106.931 316.243 106.553C315.603 106.169 315.101 105.643 314.739 104.977C314.376 104.31 314.195 103.558 314.195 102.721C314.195 101.878 314.376 101.129 314.739 100.473C315.101 99.8166 315.603 99.3019 316.243 98.9286C316.883 98.5552 317.619 98.3686 318.451 98.3686C319.283 98.3686 320.019 98.5552 320.659 98.9286C321.299 99.3019 321.8 99.8166 322.163 100.473C322.525 101.129 322.707 101.878 322.707 102.721C322.707 103.558 322.525 104.31 322.163 104.977C321.8 105.643 321.299 106.169 320.659 106.553C320.019 106.931 319.283 107.121 318.451 107.121ZM318.451 106.217C319.091 106.217 319.653 106.067 320.139 105.769C320.629 105.47 321.013 105.057 321.291 104.529C321.568 104.001 321.707 103.398 321.707 102.721C321.707 102.038 321.568 101.438 321.291 100.921C321.013 100.403 320.629 100.001 320.139 99.7126C319.653 99.4192 319.091 99.2726 318.451 99.2726C317.816 99.2726 317.253 99.4192 316.763 99.7126C316.272 100.001 315.888 100.403 315.611 100.921C315.333 101.438 315.195 102.038 315.195 102.721C315.195 103.398 315.333 104.001 315.611 104.529C315.888 105.057 316.272 105.47 316.763 105.769C317.253 106.067 317.816 106.217 318.451 106.217ZM324.432 102.769V102.129H329.92V102.769H324.432ZM335.608 107.129C334.957 107.129 334.389 107.03 333.904 106.833C333.419 106.635 333.043 106.35 332.776 105.977C332.515 105.598 332.384 105.142 332.384 104.609C332.384 104.07 332.523 103.622 332.8 103.265C333.077 102.902 333.472 102.619 333.984 102.417C334.501 102.214 335.112 102.078 335.816 102.009C336.899 101.897 337.675 101.785 338.144 101.673C338.619 101.555 338.856 101.369 338.856 101.113C338.856 101.097 338.856 101.081 338.856 101.065C338.856 101.043 338.856 101.022 338.856 101.001C338.856 100.451 338.632 100.025 338.184 99.7206C337.736 99.4166 337.099 99.2646 336.272 99.2646C335.408 99.2646 334.733 99.4352 334.248 99.7766C333.768 100.118 333.528 100.625 333.528 101.297H332.552C332.552 100.683 332.707 100.158 333.016 99.7206C333.325 99.2779 333.76 98.9419 334.32 98.7126C334.88 98.4779 335.533 98.3606 336.28 98.3606C336.952 98.3606 337.557 98.4646 338.096 98.6726C338.635 98.8806 339.061 99.1846 339.376 99.5846C339.696 99.9792 339.856 100.467 339.856 101.049C339.856 101.161 339.856 101.273 339.856 101.385C339.856 101.491 339.856 101.601 339.856 101.713V105.473C339.856 105.654 339.864 105.827 339.88 105.993C339.896 106.158 339.92 106.302 339.952 106.425C340 106.579 340.051 106.702 340.104 106.793C340.157 106.883 340.2 106.945 340.232 106.977H339.232C339.211 106.955 339.176 106.899 339.128 106.809C339.08 106.713 339.032 106.601 338.984 106.473C338.941 106.339 338.912 106.19 338.896 106.025C338.88 105.859 338.872 105.659 338.872 105.425L339.032 105.545C338.861 105.859 338.613 106.137 338.288 106.377C337.963 106.611 337.573 106.795 337.12 106.929C336.667 107.062 336.163 107.129 335.608 107.129ZM335.76 106.241C336.336 106.241 336.856 106.147 337.32 105.961C337.789 105.769 338.163 105.497 338.44 105.145C338.717 104.787 338.856 104.355 338.856 103.849V101.865L339.072 102.233C338.763 102.387 338.341 102.513 337.808 102.609C337.275 102.699 336.696 102.774 336.072 102.833C335.192 102.918 334.523 103.086 334.064 103.337C333.611 103.587 333.384 103.995 333.384 104.561C333.384 105.105 333.584 105.521 333.984 105.809C334.384 106.097 334.976 106.241 335.76 106.241ZM346.256 107.129C345.477 107.129 344.765 106.955 344.12 106.609C343.474 106.257 342.957 105.753 342.568 105.097C342.184 104.441 341.992 103.651 341.992 102.729C341.992 101.806 342.184 101.019 342.568 100.369C342.957 99.7179 343.474 99.2219 344.12 98.8806C344.765 98.5339 345.477 98.3606 346.256 98.3606C346.853 98.3606 347.386 98.4539 347.856 98.6406C348.325 98.8219 348.722 99.0646 349.048 99.3686C349.373 99.6672 349.621 99.9952 349.792 100.353C349.962 100.71 350.048 101.062 350.048 101.409C350.048 101.414 350.048 101.422 350.048 101.433C350.048 101.438 350.048 101.446 350.048 101.457H349.064C349.064 101.43 349.061 101.401 349.056 101.369C349.056 101.331 349.053 101.297 349.048 101.265C349 100.881 348.848 100.539 348.592 100.241C348.336 99.9419 348.008 99.7046 347.608 99.5286C347.208 99.3526 346.754 99.2646 346.248 99.2646C345.677 99.2646 345.144 99.3952 344.648 99.6566C344.157 99.9126 343.76 100.297 343.456 100.809C343.152 101.321 343 101.961 343 102.729C343 103.491 343.149 104.134 343.448 104.657C343.752 105.174 344.149 105.566 344.64 105.833C345.136 106.094 345.672 106.225 346.248 106.225C346.877 106.225 347.397 106.121 347.808 105.913C348.218 105.705 348.528 105.435 348.736 105.105C348.944 104.774 349.053 104.43 349.064 104.073H350.048C350.048 104.43 349.965 104.79 349.8 105.153C349.64 105.515 349.4 105.846 349.08 106.145C348.765 106.443 348.37 106.683 347.896 106.865C347.426 107.041 346.88 107.129 346.256 107.129ZM355.164 107.105C354.924 107.105 354.689 107.075 354.46 107.017C354.236 106.958 354.033 106.854 353.852 106.705C353.676 106.55 353.537 106.339 353.436 106.073C353.335 105.806 353.284 105.467 353.284 105.057C353.284 104.945 353.284 104.83 353.284 104.713C353.284 104.59 353.284 104.462 353.284 104.329V99.3526H351.236V98.4806H352.708C352.847 98.4806 352.956 98.4752 353.036 98.4646C353.116 98.4539 353.172 98.4272 353.204 98.3846C353.241 98.3419 353.263 98.2752 353.268 98.1846C353.279 98.0939 353.284 97.9686 353.284 97.8086V95.7366H354.276V98.4806H356.996V99.3526H354.276V104.001C354.276 104.129 354.276 104.251 354.276 104.369C354.276 104.486 354.276 104.595 354.276 104.697C354.276 105.177 354.345 105.553 354.484 105.825C354.628 106.097 354.897 106.233 355.292 106.233C355.441 106.233 355.588 106.219 355.732 106.193C355.876 106.166 355.985 106.137 356.06 106.105V106.969C355.969 107.006 355.844 107.038 355.684 107.065C355.524 107.091 355.351 107.105 355.164 107.105ZM358.948 106.977V98.4806H359.924V106.977H358.948ZM359.444 96.3366C359.236 96.3366 359.057 96.2779 358.908 96.1606C358.758 96.0379 358.684 95.8752 358.684 95.6726C358.684 95.4752 358.758 95.3179 358.908 95.2006C359.057 95.0779 359.236 95.0166 359.444 95.0166C359.646 95.0166 359.822 95.0779 359.972 95.2006C360.121 95.3179 360.196 95.4752 360.196 95.6726C360.196 95.8752 360.121 96.0379 359.972 96.1606C359.822 96.2779 359.646 96.3366 359.444 96.3366ZM366.591 107.121C365.759 107.121 365.023 106.931 364.383 106.553C363.743 106.169 363.242 105.643 362.879 104.977C362.517 104.31 362.335 103.558 362.335 102.721C362.335 101.878 362.517 101.129 362.879 100.473C363.242 99.8166 363.743 99.3019 364.383 98.9286C365.023 98.5552 365.759 98.3686 366.591 98.3686C367.423 98.3686 368.159 98.5552 368.799 98.9286C369.439 99.3019 369.941 99.8166 370.303 100.473C370.666 101.129 370.847 101.878 370.847 102.721C370.847 103.558 370.666 104.31 370.303 104.977C369.941 105.643 369.439 106.169 368.799 106.553C368.159 106.931 367.423 107.121 366.591 107.121ZM366.591 106.217C367.231 106.217 367.794 106.067 368.279 105.769C368.77 105.47 369.154 105.057 369.431 104.529C369.709 104.001 369.847 103.398 369.847 102.721C369.847 102.038 369.709 101.438 369.431 100.921C369.154 100.403 368.77 100.001 368.279 99.7126C367.794 99.4192 367.231 99.2726 366.591 99.2726C365.957 99.2726 365.394 99.4192 364.903 99.7126C364.413 100.001 364.029 100.403 363.751 100.921C363.474 101.438 363.335 102.038 363.335 102.721C363.335 103.398 363.474 104.001 363.751 104.529C364.029 105.057 364.413 105.47 364.903 105.769C365.394 106.067 365.957 106.217 366.591 106.217ZM379.3 106.977V102.753C379.3 102.491 379.3 102.283 379.3 102.129C379.3 101.974 379.3 101.822 379.3 101.673C379.3 101.198 379.215 100.785 379.044 100.433C378.879 100.075 378.623 99.7979 378.276 99.6006C377.929 99.3979 377.484 99.2966 376.94 99.2966C376.46 99.2966 376.009 99.4166 375.588 99.6566C375.167 99.8912 374.825 100.211 374.564 100.617C374.308 101.022 374.18 101.478 374.18 101.985L373.58 101.761C373.58 101.115 373.745 100.537 374.076 100.025C374.412 99.5126 374.849 99.1072 375.388 98.8086C375.932 98.5099 376.508 98.3606 377.116 98.3606C377.761 98.3606 378.321 98.4832 378.796 98.7286C379.271 98.9686 379.636 99.3179 379.892 99.7766C380.153 100.23 380.284 100.782 380.284 101.433C380.284 101.657 380.284 101.897 380.284 102.153C380.284 102.409 380.284 102.641 380.284 102.849V106.977H379.3ZM373.188 106.977V98.4806H374.18V106.977H373.188Z" fill="#101113"/>
<defs>
<filter id="filter0_dddd_2327_5865" x="26" y="3.97656" width="220" height="270" filterUnits="userSpaceOnUse" color-interpolation-filters="sRGB">
<feFlood flood-opacity="0" result="BackgroundImageFix"/>
<feColorMatrix in="SourceAlpha" type="matrix" values="0 0 0 0 0 0 0 0 0 0 0 0 0 0 0 0 0 0 127 0" result="hardAlpha"/>
<feOffset dy="5"/>
<feGaussianBlur stdDeviation="5"/>
<feColorMatrix type="matrix" values="0 0 0 0 0 0 0 0 0 0 0 0 0 0 0 0 0 0 0.05 0"/>
<feBlend mode="normal" in2="BackgroundImageFix" result="effect1_dropShadow_2327_5865"/>
<feColorMatrix in="SourceAlpha" type="matrix" values="0 0 0 0 0 0 0 0 0 0 0 0 0 0 0 0 0 0 127 0" result="hardAlpha"/>
<feOffset dy="19"/>
<feGaussianBlur stdDeviation="9.5"/>
<feColorMatrix type="matrix" values="0 0 0 0 0 0 0 0 0 0 0 0 0 0 0 0 0 0 0.04 0"/>
<feBlend mode="normal" in2="effect1_dropShadow_2327_5865" result="effect2_dropShadow_2327_5865"/>
<feColorMatrix in="SourceAlpha" type="matrix" values="0 0 0 0 0 0 0 0 0 0 0 0 0 0 0 0 0 0 127 0" result="hardAlpha"/>
<feOffset dy="42"/>
<feGaussianBlur stdDeviation="12.5"/>
<feColorMatrix type="matrix" values="0 0 0 0 0 0 0 0 0 0 0 0 0 0 0 0 0 0 0.03 0"/>
<feBlend mode="normal" in2="effect2_dropShadow_2327_5865" result="effect3_dropShadow_2327_5865"/>
<feColorMatrix in="SourceAlpha" type="matrix" values="0 0 0 0 0 0 0 0 0 0 0 0 0 0 0 0 0 0 127 0" result="hardAlpha"/>
<feOffset dy="75"/>
<feGaussianBlur stdDeviation="15"/>
<feColorMatrix type="matrix" values="0 0 0 0 0 0 0 0 0 0 0 0 0 0 0 0 0 0 0.01 0"/>
<feBlend mode="normal" in2="effect3_dropShadow_2327_5865" result="effect4_dropShadow_2327_5865"/>
<feBlend mode="normal" in="SourceGraphic" in2="effect4_dropShadow_2327_5865" result="shape"/>
</filter>
<linearGradient id="paint0_linear_2327_5865" x1="136" y1="37.4614" x2="136" y2="243.522" gradientUnits="userSpaceOnUse">
<stop stop-color="white"/>
<stop offset="1" stop-color="#0091FB"/>
</linearGradient>
</defs>
</svg>
