<svg width="29" height="40" viewBox="0 0 29 40" fill="none" xmlns="http://www.w3.org/2000/svg">
<g clip-path="url(#clip0_825_4717)">
<path d="M14.5111 12.9832C14.8175 12.9345 15.0582 12.7237 15.3701 12.648C17.5041 12.0967 19.4082 13.9291 19.3152 16.021C20.8144 15.2372 22.6146 15.5886 23.5229 17.0318C23.9442 17.7021 24.0099 18.2913 24.1193 19.0534C26.5542 17.7724 28.8851 19.5183 28.8249 22.1399C28.7757 24.4751 28.3762 27.7453 28.037 30.0913C26.4721 41.0318 13.4167 42.6426 6.98207 34.5994C4.49247 31.4913 3.00418 27.1453 4.18606 23.2264C4.74417 21.3724 6.10661 19.7075 8.16942 19.5237V3.9183C8.19131 1.14533 11.4032 -0.638452 13.5535 1.45344C13.8709 1.76155 14.5111 2.84803 14.5111 3.25885V12.9832ZM8.17489 26.5021V21.048C6.45679 21.3778 5.56492 23.3183 5.40077 24.9021C4.55266 33.2102 13.6356 41.1129 21.7337 37.0534C27.5445 34.1399 26.4612 27.2264 27.2929 21.8588C27.1779 20.794 26.5596 20.0697 25.4106 20.194C24.0263 20.3453 24.3327 22.1399 23.397 22.194C21.9853 22.2805 22.631 19.2967 22.445 18.3832C22.1331 16.8805 20.0156 16.6642 19.4629 18.1075C19.3261 18.4588 19.3699 18.6859 19.2933 18.9832C19.0744 19.8372 17.9199 19.8318 17.7886 18.9994C17.5861 17.7183 18.2318 15.4372 17.1593 14.4967C16.0869 13.5561 14.7026 14.3237 14.522 15.5994C14.429 16.2805 14.6916 18.0318 14.3688 18.4805C13.9365 19.0751 12.9079 18.7237 12.9735 17.967V3.65344C12.7273 1.68587 10.287 1.54533 9.80545 3.45344V25.8426C9.66866 26.3832 9.83828 27.0102 9.13243 27.1778C8.71112 27.2751 8.24603 26.9183 8.17489 26.5075V26.5021Z" fill="#0679B8"/>
<path d="M3.56776 3.59496V10.1409C4.03285 9.68145 4.66209 8.67605 5.35152 9.47064C5.68529 9.85983 5.5868 10.1355 5.34057 10.5139C5.07793 10.9193 3.67172 12.6815 3.34342 12.9517C2.8072 13.4004 2.44607 13.1625 2.03022 12.7517C1.77853 12.5085 0.0877848 10.4436 0.0385399 10.2598C-0.15844 9.52469 0.498159 8.91929 1.1657 9.34091C1.50494 9.55172 1.66909 10.0382 2.03569 10.1409V3.59496C1.67456 3.69767 1.50494 4.18415 1.1657 4.39496C0.498159 4.81118 -0.109195 4.25983 0.0166533 3.55172C0.0440116 3.38415 1.73475 1.28145 1.98098 1.0328C2.69776 0.308478 2.95493 0.443613 3.617 1.1301C4.01096 1.54091 5.06152 2.77334 5.34057 3.22199C5.61963 3.67064 5.64698 4.2328 5.07793 4.47605C4.29549 4.80578 4.07662 3.94632 3.56776 3.60037V3.59496Z" fill="#0679B8"/>
</g>
<defs>
<clipPath id="clip0_825_4717">
<rect width="29" height="40" fill="white"/>
</clipPath>
</defs>
</svg>
