<svg width="19" height="43" viewBox="0 0 19 43" fill="none" xmlns="http://www.w3.org/2000/svg">
<g clip-path="url(#clip0_825_4977)">
<path d="M15.8807 17.2618C17.4484 18.7528 18.6187 21.115 18.8063 23.2929C19.0603 26.2471 19.0437 31.4015 18.8284 34.378C17.9894 45.854 0.976599 45.8819 0.159632 34.378C-0.0556501 31.3512 -0.0611702 26.4258 0.159632 23.399C0.728196 15.6199 10.2503 11.9063 15.8807 17.2618ZM8.84266 16.8764C4.98415 17.2338 2.42285 20.3611 2.17997 24.1697C2.00885 26.8949 1.99781 31.0218 2.18549 33.7414C2.86445 43.4192 16.2009 43.3466 16.8136 33.6185C16.9847 30.9324 17.1172 23.6112 16.2009 21.344C15.0251 18.4401 11.9229 16.5916 8.83714 16.8764H8.84266Z" fill="#0679B8"/>
<path d="M9.21327 0.0286425C9.6328 -0.0774614 9.98608 0.1515 10.3118 0.386045C10.8803 0.793707 14.0212 3.96566 14.4076 4.52968C15.1308 5.58514 14.0875 6.80254 13.0828 6.12682L9.53896 2.56397L5.82396 6.17708C4.86348 6.73553 3.90851 5.57397 4.51571 4.59669C4.90764 3.97124 7.85534 1.07851 8.53983 0.508902C8.70543 0.369292 9.01455 0.0733179 9.20775 0.0286425H9.21327Z" fill="#0679B8"/>
<path d="M14.3747 11.823C14.2256 11.957 13.8061 12.1302 13.6019 12.119C12.7021 12.0743 10.4168 9.03639 9.53912 8.43327C9.18032 8.36626 6.49758 11.7504 5.67509 12.024C4.67596 12.3591 3.93076 11.3372 4.5766 10.399C4.98509 9.80145 8.25847 6.50106 8.86016 6.05989C9.31832 5.72483 9.66609 5.72483 10.1353 6.05989C10.6045 6.39496 14.2091 10.0527 14.474 10.4716C14.739 10.8904 14.7721 11.4656 14.3747 11.8286V11.823Z" fill="#0679B8"/>
<path d="M9.21333 20.5609C9.67149 20.4604 10.218 20.6112 10.4112 21.0802C10.5602 21.4376 10.5823 24.5761 10.4774 25.0396C10.2566 26.0448 8.6282 26.0783 8.48468 24.8162C8.4074 24.1293 8.39084 22.0408 8.49572 21.3762C8.55644 20.9965 8.83244 20.6502 9.20781 20.5665L9.21333 20.5609Z" fill="#0679B8"/>
</g>
<defs>
<clipPath id="clip0_825_4977">
<rect width="19" height="43" fill="white"/>
</clipPath>
</defs>
</svg>
