<svg width="16" height="14" viewBox="0 0 16 14" fill="none" xmlns="http://www.w3.org/2000/svg">
<path d="M14.0249 4.43555C14.0215 4.43555 14.1152 3.95148 14.0349 3.10836C13.9612 2.26461 13.7849 1.49023 13.4959 0.779297C13.4959 0.779297 13.3484 0.806484 13.0671 0.877422C12.7859 0.948359 12.3262 1.0918 11.6977 1.37867C11.0784 1.66617 10.4255 2.04867 9.74586 2.51273C9.28367 2.38055 8.59398 2.31305 7.66992 2.31305C6.7893 2.31305 6.09961 2.38055 5.59398 2.51273C4.10086 1.46648 2.84971 0.888672 1.84055 0.779297C1.55284 1.49034 1.3743 2.26898 1.30492 3.11523C1.22461 3.95898 1.31836 4.44586 1.31836 4.44586C0.504609 5.33617 0.169922 6.6193 0.169922 7.67867C0.169922 8.49805 0.193359 9.2393 0.374297 9.89742C0.561797 10.5509 0.799297 11.0849 1.08055 11.4955C1.37153 11.9108 1.72905 12.2752 2.13867 12.574C2.55711 12.889 2.94211 13.1159 3.29055 13.258C3.64211 13.4068 4.04055 13.5152 4.49586 13.593C4.83331 13.6583 5.17432 13.7036 5.51711 13.7287C5.51711 13.7287 6.45461 13.7793 7.67336 13.7793C8.89211 13.7793 9.82617 13.7287 9.82617 13.7287C10.1689 13.7028 10.5099 13.6571 10.8474 13.5918C11.2593 13.5253 11.6624 13.413 12.0493 13.2568C12.3977 13.1112 12.7827 12.8877 13.2055 12.5727C13.615 12.2743 13.9715 11.9094 14.2602 11.493C14.5415 11.0834 14.779 10.5484 14.9665 9.89492C15.154 9.24149 15.1699 8.49461 15.1699 7.67524C15.1699 6.64961 14.8352 5.34961 14.0249 4.43555Z" fill="#3A619B"/>
</svg>
