<svg width="18" height="12" viewBox="0 0 18 12" fill="none" xmlns="http://www.w3.org/2000/svg">
<path d="M8.6814 0.779297C5.5814 3.44593 5.56516 9.10234 8.6723 11.7793C11.6852 9.25298 11.875 3.58867 8.6814 0.779297ZM9.81222 11.2587C14.095 10.8214 17.4348 6.6963 17.1547 3.58078C17.0384 3.58078 16.9201 3.57652 16.8025 3.58138C14.8262 3.66582 13.1468 4.40992 11.6865 5.62114C11.5942 5.69768 11.5507 5.86594 11.55 5.99228C11.5448 7.41914 11.2693 8.7883 10.5602 10.0627C10.3334 10.4709 10.0637 10.8584 9.81222 11.2581V11.2587ZM7.55318 11.2599C7.53369 11.218 7.52394 11.1792 7.50054 11.1494C6.28914 9.59315 5.79522 7.83584 5.80237 5.93154C5.80237 5.8058 5.70228 5.64605 5.5957 5.55797C4.41029 4.58122 3.04747 3.92762 1.48512 3.67007C1.05619 3.59961 0.614259 3.59475 0.17688 3.55952C0.0209055 7.05043 3.53294 10.8627 7.55383 11.2599H7.55318ZM5.81861 5.00217C6.06882 4.26049 6.33008 3.49513 6.58159 2.72733C6.60434 2.65687 6.59589 2.53356 6.5465 2.49286C5.94729 1.99477 5.29155 1.57807 4.53572 1.31445C4.49998 1.35697 4.47398 1.37762 4.46164 1.40374C4.10029 2.1527 3.97876 2.95026 3.92612 3.75997C3.92222 3.82375 3.97486 3.91851 4.03271 3.95374C4.63906 4.31759 5.25256 4.67173 5.81927 5.00278L5.81861 5.00217ZM12.9532 1.29865C12.2675 1.51125 11.2966 2.05976 10.8806 2.4716C10.8183 2.53356 10.8085 2.68542 10.8384 2.77714C10.9762 3.20174 11.1523 3.61601 11.2829 4.04243C11.3856 4.37712 11.4435 4.72396 11.524 5.07871C11.9211 4.81751 12.2656 4.4816 12.6848 4.33764C13.5166 4.05154 13.5667 3.52854 13.3782 2.86279C13.2326 2.34951 13.0981 1.8338 12.9532 1.29865Z" fill="white"/>
<path d="M8.67989 0.779297C11.8735 3.58867 11.6837 9.25298 8.6708 11.7793C5.56365 9.10295 5.5799 3.44653 8.67989 0.779297Z" fill="#3A619B"/>
<path d="M9.8125 11.2591C10.0647 10.8588 10.3337 10.4713 10.5605 10.0637C11.2696 8.78932 11.5445 7.42017 11.5503 5.99331C11.5503 5.86757 11.5945 5.6987 11.6868 5.62217C13.1471 4.41095 14.8258 3.66684 16.8028 3.58241C16.9204 3.57755 17.0393 3.5818 17.155 3.5818C17.4351 6.69671 14.0953 10.8224 9.8125 11.2597V11.2591Z" fill="#3A619B"/>
<path d="M7.55379 11.259C3.53355 10.8618 0.0215145 7.05012 0.176839 3.55859C0.614868 3.59382 1.05615 3.59868 1.48508 3.66915C3.04742 3.9267 4.41025 4.57969 5.59566 5.55705C5.70224 5.64513 5.80298 5.80427 5.80233 5.93062C5.79583 7.83492 6.28975 9.59222 7.5005 11.1485C7.5239 11.1782 7.53365 11.2171 7.55314 11.259H7.55379Z" fill="#3A619B"/>
<path d="M5.81724 5.00278C5.25053 4.67173 4.63768 4.3176 4.03068 3.95375C3.97284 3.91913 3.91955 3.82376 3.9241 3.75998C3.97674 2.95027 4.09827 2.15271 4.45961 1.40375C4.47196 1.37763 4.49796 1.35697 4.5337 1.31445C5.28953 1.57808 5.94527 1.99478 6.54448 2.49287C6.59387 2.53357 6.60232 2.65688 6.57957 2.72734C6.32871 3.49514 6.0668 4.2605 5.81659 5.00218L5.81724 5.00278Z" fill="#3A619B"/>
<path d="M12.9533 1.29883C13.0982 1.83337 13.2327 2.34969 13.3783 2.86297C13.5674 3.52871 13.5167 4.05171 12.6849 4.33781C12.2651 4.48238 11.9213 4.81769 11.5242 5.07888C11.4436 4.72475 11.3864 4.3773 11.2831 4.0426C11.1518 3.61618 10.9757 3.20191 10.8385 2.77732C10.8086 2.68499 10.8184 2.53374 10.8808 2.47178C11.2967 2.05994 12.2677 1.51082 12.9533 1.29883Z" fill="#3A619B"/>
</svg>
