<svg width="17" height="15" viewBox="0 0 17 15" fill="none" xmlns="http://www.w3.org/2000/svg">
<g clip-path="url(#clip0_1769_2156)">
<path d="M7.17695 10.9533C7.27512 10.2813 6.87295 9.64458 6.00528 9.66474C6.0607 9.31026 6.01003 8.9793 5.77095 8.70882C5.53187 8.44002 5.22787 8.35098 4.90012 8.36778C4.88587 8.17626 4.90012 7.99314 4.85578 7.82682C4.65312 7.08594 3.8092 6.8037 3.23445 7.28922C2.90828 7.56474 2.60745 7.87218 2.28287 8.17794C1.89178 7.70922 1.5482 7.1733 1.29012 6.5769C0.810368 5.4681 0.712201 4.34082 1.21253 3.21018C1.6717 2.17362 2.44437 1.46634 3.43553 1.05642C5.12812 0.355864 6.68295 0.701944 8.1032 1.85778C8.1412 1.88802 8.18395 1.90986 8.18553 1.90986C7.8277 2.31306 7.49995 2.69274 7.16112 3.06066C6.84445 3.40338 6.51037 3.7293 6.18737 4.06698C5.6617 4.61466 5.6332 5.30178 6.10978 5.82258C6.61012 6.36858 7.42395 6.4089 7.91637 5.89986C8.20295 5.60418 8.47053 5.29002 8.75712 4.9977C8.82362 4.9305 8.94395 4.87674 9.0342 4.88682C9.5377 4.94058 10.0317 4.88514 10.5257 4.78266C10.589 4.76922 10.6856 4.79106 10.7284 4.83642C11.938 6.11826 13.1429 7.40682 14.351 8.69202C14.6281 8.9877 14.6503 9.19266 14.3938 9.5085C14.2814 9.64626 14.1373 9.76554 13.9869 9.8529C13.724 10.0041 13.5657 9.96714 13.3472 9.74706C12.3956 8.77938 11.444 7.81002 10.4925 6.84234C10.4481 6.79866 10.4069 6.7365 10.3531 6.72138C10.2977 6.70626 10.2074 6.71466 10.1726 6.7533C10.141 6.79026 10.1489 6.88266 10.1631 6.94482C10.1726 6.98682 10.2233 7.02042 10.2565 7.05402C11.1733 7.9881 12.0884 8.92386 13.0115 9.85122C13.2332 10.073 13.3741 10.3082 13.2427 10.6274C13.1034 10.9651 12.8548 11.1952 12.4985 11.2003C12.3576 11.2019 12.185 11.1045 12.0758 10.997C11.1036 10.0528 10.1441 9.09354 9.1767 8.14266C9.0817 8.05026 8.9772 7.8537 8.82837 8.01666C8.67637 8.18466 8.87112 8.2821 8.96453 8.3745C9.92087 9.32706 10.8835 10.2729 11.843 11.2204C12.1074 11.4808 12.1565 11.7563 11.9364 12.0537C11.805 12.2318 11.6134 12.3763 11.4219 12.4838C11.1907 12.6148 10.9659 12.5392 10.7759 12.3427C10.4085 11.9613 10.038 11.5833 9.66912 11.2036C9.61528 11.1482 9.56937 11.0726 9.50603 11.0457C9.4332 11.0138 9.34295 11.0255 9.25903 11.0171C9.27328 11.1045 9.27012 11.2019 9.30653 11.2775C9.34137 11.3498 9.41737 11.4002 9.47595 11.4607C9.83537 11.8303 10.1916 12.2015 10.5558 12.5661C10.7759 12.7862 10.8471 13.0449 10.7505 13.3473C10.6524 13.6547 10.4497 13.858 10.1504 13.9286C9.94303 13.9773 9.75937 13.8899 9.61212 13.7387C9.20362 13.3204 8.79987 12.8954 8.40087 12.467C8.35812 12.4199 8.32803 12.3259 8.33753 12.2637C8.45628 11.5111 8.02878 10.9684 7.30995 10.9634C7.26403 10.9634 7.21812 10.9583 7.17062 10.955L7.17695 10.9533ZM8.80778 10.3787C8.79987 10.3586 8.7967 10.3166 8.77453 10.2947C8.47212 9.98058 8.1697 9.66642 7.85778 9.36234C7.82612 9.3321 7.71212 9.35898 7.66937 9.39762C7.63928 9.4245 7.64087 9.54882 7.67253 9.58242C7.96545 9.89826 8.26312 10.2074 8.5687 10.5081C8.65737 10.5938 8.80145 10.5131 8.80937 10.3787H8.80778Z" fill="#3A619B"/>
<path d="M14.777 8.58612C13.4992 7.2606 12.2373 5.95356 10.958 4.62636C11.4235 4.39956 11.7845 4.09716 12.0584 3.68388C12.1011 3.62004 12.1613 3.5562 12.1756 3.48564C12.1898 3.41508 12.155 3.33444 12.1423 3.25884C12.0711 3.27396 11.9792 3.26724 11.9349 3.3126C11.8494 3.39996 11.7956 3.5226 11.718 3.62172C11.2651 4.20468 10.6619 4.48188 9.96997 4.54236C9.62164 4.5726 9.26697 4.539 8.91705 4.55244C8.82047 4.5558 8.7033 4.59948 8.63522 4.66836C8.32805 4.98252 8.04147 5.31516 7.73747 5.63268C7.30047 6.09132 6.58164 6.01236 6.2333 5.47476C5.9958 5.1102 6.04647 4.67508 6.37739 4.32564C6.68297 4.0014 6.99489 3.6822 7.30839 3.36636C7.85622 2.81364 8.37872 2.22396 8.96614 1.72164C9.91139 0.913557 10.9976 0.451557 12.2373 0.473397C14.2307 0.510357 16.0151 2.12652 16.354 4.2114C16.6026 5.74188 16.126 7.0338 15.1776 8.16444C15.0699 8.29212 14.9511 8.4114 14.8356 8.53236C14.8071 8.5626 14.7754 8.5878 14.7754 8.5878L14.777 8.58612Z" fill="#3A619B"/>
<path d="M6.91628 10.7231C6.8387 10.8827 6.78961 11.0725 6.6772 11.1969C6.4587 11.4388 6.21328 11.6555 5.9647 11.8638C5.67178 12.1074 5.25853 12.0688 5.00361 11.7966C4.75186 11.5295 4.72811 11.1213 4.98145 10.8508C5.2237 10.5921 5.48495 10.3501 5.75728 10.1317C5.99003 9.94526 6.26078 9.94022 6.52203 10.0914C6.74686 10.2225 6.8672 10.4257 6.91628 10.7248V10.7231Z" fill="#3A619B"/>
<path d="M4.99694 8.64844C5.33419 8.6938 5.57644 8.86852 5.68727 9.17764C5.78385 9.4498 5.71102 9.72364 5.4751 9.9454C5.27402 10.1352 5.07135 10.3251 4.86552 10.5099C4.53619 10.8056 4.07544 10.7787 3.81577 10.4511C3.5656 10.1369 3.62102 9.7186 3.95352 9.41116C4.14669 9.23308 4.33035 9.03988 4.53777 8.88196C4.67394 8.7778 4.84335 8.72404 4.99852 8.64844H4.99694Z" fill="#3A619B"/>
<path d="M6.71628 13.3407C6.39644 13.3004 6.14153 13.1206 6.03703 12.835C5.93886 12.5645 6.01961 12.2638 6.25395 12.0437C6.46611 11.8438 6.67353 11.6372 6.89519 11.4524C7.34169 11.0828 7.97186 11.3297 8.05578 11.9009C8.08903 12.1277 8.02728 12.331 7.86895 12.4872C7.6362 12.7157 7.40186 12.9442 7.15011 13.1458C7.0282 13.2432 6.86195 13.2785 6.7147 13.3407H6.71628Z" fill="#3A619B"/>
<path d="M2.47815 8.6765C2.55098 8.52194 2.5969 8.33882 2.70456 8.21954C2.93415 7.96922 3.18748 7.74074 3.44715 7.5257C3.73215 7.28882 4.1359 7.33249 4.38765 7.59961C4.61723 7.84321 4.6774 8.23297 4.46048 8.47489C4.18498 8.78401 3.88573 9.08809 3.5469 9.31321C3.10673 9.60553 2.52248 9.22922 2.47656 8.6765H2.47815Z" fill="#3A619B"/>
</g>
<defs>
<clipPath id="clip0_1769_2156">
<rect width="16" height="14" fill="white" transform="translate(0.669922 0.279297)"/>
</clipPath>
</defs>
</svg>
