<svg width="15" height="16" viewBox="0 0 15 16" fill="none" xmlns="http://www.w3.org/2000/svg">
<path fill-rule="evenodd" clip-rule="evenodd" d="M14.6699 14.9786C14.6699 15.1909 14.588 15.3946 14.4421 15.5448C14.2963 15.6949 14.0984 15.7793 13.8921 15.7793H9.13153C9.2487 15.6959 9.3595 15.6023 9.46256 15.4993C9.95097 15.0109 10.2254 14.3485 10.2254 13.6577C10.2254 12.1986 9.70173 11.0578 9.02905 10.2794C8.37199 9.519 7.5335 9.06475 6.87527 9.06475C6.76151 9.06475 6.65417 9.11749 6.58466 9.20754C6.51514 9.29759 6.49129 9.41477 6.52009 9.52483C6.69384 10.1888 6.4108 10.7602 5.98337 11.4286C5.93681 11.5014 5.88808 11.576 5.83841 11.6522C5.67155 11.9079 5.49403 12.1799 5.35233 12.4522C5.16483 12.8125 5.01666 13.2139 5.01666 13.6577C5.01666 14.3485 5.29104 15.0109 5.77945 15.4993C5.88251 15.6023 5.99331 15.6959 6.11049 15.7793H1.4477C1.24142 15.7793 1.04359 15.6949 0.897728 15.5448C0.751867 15.3946 0.669922 15.1909 0.669922 14.9786V6.56279C0.66984 6.44077 0.696847 6.32034 0.748879 6.2107C0.800912 6.10107 0.876594 6.00513 0.970145 5.93021L7.19237 0.948008C7.3289 0.838663 7.49694 0.779297 7.66992 0.779297C7.8429 0.779297 8.01094 0.838663 8.14748 0.948008L14.3697 5.93021C14.4633 6.00513 14.5389 6.10107 14.591 6.2107C14.643 6.32034 14.67 6.44077 14.6699 6.56279V14.9786ZM7.30622 9.89233C7.31602 10.6451 6.94733 11.2841 6.60195 11.8242C6.5467 11.9106 6.49231 11.994 6.43925 12.0753C6.27691 12.3242 6.12709 12.554 6.00369 12.7911C5.84356 13.0989 5.75092 13.3792 5.75092 13.6577C5.75092 14.1537 5.94795 14.6294 6.29866 14.9801C6.31289 14.9943 6.32732 15.0083 6.34195 15.022C6.28783 14.8376 6.25982 14.6308 6.25982 14.4034C6.25982 13.8773 6.44186 13.4824 6.57981 13.1832L6.58869 13.164C6.73586 12.8445 6.80035 12.6772 6.76346 12.4835C6.74299 12.376 6.77152 12.265 6.84126 12.1807C6.91101 12.0965 7.01471 12.0477 7.12411 12.0477C7.38677 12.0477 7.63338 12.1555 7.8395 12.2963C8.04906 12.4394 8.24284 12.6339 8.40734 12.8514C8.73119 13.2795 8.98272 13.8526 8.98272 14.4034C8.98272 14.6305 8.95478 14.8371 8.90079 15.0213C8.91517 15.0078 8.92936 14.9941 8.94335 14.9801C9.29406 14.6294 9.49109 14.1537 9.49109 13.6577C9.49109 12.3825 9.03593 11.4104 8.47348 10.7595C8.08133 10.3057 7.6547 10.0256 7.30622 9.89233ZM7.26766 13.445C7.33634 13.2963 7.41582 13.1241 7.46383 12.93C7.58341 13.0187 7.70727 13.143 7.82175 13.2944C8.08051 13.6364 8.24846 14.0577 8.24846 14.4034C8.24846 14.7843 8.14397 14.9961 8.03716 15.1099C7.93037 15.2237 7.78445 15.2792 7.62127 15.2792C7.4581 15.2792 7.31217 15.2237 7.20538 15.1099C7.09857 14.9961 6.99409 14.7843 6.99409 14.4034C6.99409 14.0444 7.11482 13.7768 7.25559 13.4712L7.26766 13.445Z" fill="#3A619B"/>
</svg>
